<svg xmlns="http://www.w3.org/2000/svg" width="46.013" height="64" viewBox="0 0 46.013 64">
  <g id="Group_130" data-name="Group 130" transform="translate(-286 -1813.78)">
    <path id="Path_490" data-name="Path 490" d="M1259.24,2656.853l2.933-4.746,5.28-1.8.587-5.546,3.973-3.92-1.893-5.253,1.893-5.24-3.973-3.92-.587-5.547-5.28-1.8-2.933-4.747-5.533.667-4.707-3-4.693,3-5.533-.667-2.933,4.747-5.28,1.8-.587,5.547-3.973,3.92,1.893,5.24L1226,2640.84l3.973,3.92.587,5.546,5.28,1.8,2.933,4.746,5.533-.667,4.693,3,4.707-3Zm-26.413-21.267A16.18,16.18,0,1,1,1249,2651.773,16.189,16.189,0,0,1,1232.827,2635.586Z" transform="translate(-940 -798.22)" fill="#5bae3a"/>
    <path id="Path_491" data-name="Path 491" d="M1246.357,2620.38a12.42,12.42,0,1,0,12.427,12.413A12.436,12.436,0,0,0,1246.357,2620.38Z" transform="translate(-937.357 -795.427)" fill="#5bae3a"/>
    <path id="Path_492" data-name="Path 492" d="M1243.147,2649.363l-6.587.8-3.467-5.64-1.187-.413-5.107,15.947,9.187-.507,7.187,5.747,4.227-13.213Z" transform="translate(-939.733 -787.516)" fill="#5bae3a"/>
    <path id="Path_493" data-name="Path 493" d="M1258.567,2644.523l-3.48,5.64-6.587-.8-4.24,2.72,4.227,13.213,7.187-5.747,9.187.507-5.107-15.947Z" transform="translate(-933.913 -787.516)" fill="#5bae3a"/>
  </g>
</svg>
