<svg xmlns="http://www.w3.org/2000/svg" width="19.269" height="21.41" viewBox="0 0 19.269 21.41">
  <path id="Path_190" data-name="Path 190" d="M1274.776,117.917h-7.493v2.141h7.493Zm5.353,5.353h-14.987V111.494h14.987Zm0-17.128h-1.07V104h-2.141v2.141h-8.564V104h-2.141v2.141h-1.071a2.1,2.1,0,0,0-.814.164,2,2,0,0,0-.7.465,2.054,2.054,0,0,0-.46.695,2.142,2.142,0,0,0-.161.818L1263,123.269a2.149,2.149,0,0,0,2.141,2.141h14.987a2.151,2.151,0,0,0,2.141-2.141V108.282a2.153,2.153,0,0,0-2.141-2.141Zm-2.141,7.494h-10.7v2.141h10.7Z" transform="translate(-1263 -104)" fill="#fff"/>
</svg>
