<svg xmlns="http://www.w3.org/2000/svg" xmlns:xlink="http://www.w3.org/1999/xlink" width="64" height="64" viewBox="0 0 64 64">
  <defs>
    <clipPath id="clip-path">
      <rect id="Rectangle_60" data-name="Rectangle 60" width="64" height="64" transform="translate(1208 3038)" fill="#fff"/>
    </clipPath>
  </defs>
  <g id="Group_12" data-name="Group 12" transform="translate(-1208 -3038)" clip-path="url(#clip-path)">
    <path id="Path_494" data-name="Path 494" d="M1246.62,3052.793a11.61,11.61,0,0,1,5.413,8.64,9.382,9.382,0,1,0-5.413-8.64Zm-6.144,19.219a9.39,9.39,0,1,0-9.39-9.39A9.384,9.384,0,0,0,1240.475,3072.012Zm3.977.64h-7.963a12.03,12.03,0,0,0-12.023,12.014v9.746l.027.146.677.21a54.671,54.671,0,0,0,16.338,2.633c8.832,0,13.952-2.514,14.263-2.679l.631-.311h.064v-9.746A12.016,12.016,0,0,0,1244.453,3072.652Zm15.534-9.691h-7.909a11.561,11.561,0,0,1-3.566,8.055,14.282,14.282,0,0,1,10.194,13.669v3c7.808-.283,12.306-2.5,12.6-2.642l.631-.32H1272v-9.747A12.028,12.028,0,0,0,1259.986,3062.96Zm-35.986-.64a9.305,9.305,0,0,0,4.992-1.454,11.612,11.612,0,0,1,4.37-7.406c.009-.174.027-.347.027-.53a9.385,9.385,0,1,0-9.39,9.39Zm8.43,8.695a11.605,11.605,0,0,1-3.566-8.009c-.292-.028-.585-.046-.878-.046h-7.973A12.028,12.028,0,0,0,1208,3074.974v9.747l.027.146.667.21a56.387,56.387,0,0,0,13.531,2.542v-2.935A14.3,14.3,0,0,1,1232.43,3071.015Z" transform="translate(0 -0.476)" fill="#5bae3a"/>
  </g>
</svg>
