<svg xmlns="http://www.w3.org/2000/svg" width="20" height="20" viewBox="0 0 20 20">
  <g id="DOCTOR" transform="translate(-24.784 -24.788)">
    <path id="Path_65" data-name="Path 65" d="M44.776,44.256l-1.191-6.168a3.659,3.659,0,0,0-2.454-2.783l-2.423-.792a4.539,4.539,0,0,0,.649-2.337V27.347A2.562,2.562,0,0,0,36.8,24.788H32.77a2.562,2.562,0,0,0-2.56,2.559v4.829a4.539,4.539,0,0,0,.649,2.337l-2.423.792a3.659,3.659,0,0,0-2.454,2.783l-1.191,6.168a.447.447,0,0,0,.354.523.463.463,0,0,0,.085.008.447.447,0,0,0,.438-.362l1.191-6.168a2.765,2.765,0,0,1,1.855-2.1l.218-.071v1.29a2.005,2.005,0,1,0,.893,0V35.792l1.355-.443,3.183,9.14a.446.446,0,0,0,.842,0l3.184-9.14,1.193.39V37.2a2.229,2.229,0,0,0-1.779,2.18V41.58a.446.446,0,0,0,.446.446H38.8a.446.446,0,0,0,0-.893H38.7V39.384a1.333,1.333,0,1,1,2.665,0v1.748h-.108a.446.446,0,0,0,0,.893h.555a.446.446,0,0,0,.446-.446V39.384a2.229,2.229,0,0,0-1.779-2.18V36.031l.379.124a2.765,2.765,0,0,1,1.855,2.1L43.9,44.426a.447.447,0,0,0,.438.362.463.463,0,0,0,.085-.008.447.447,0,0,0,.354-.524ZM30.492,39.326a1.113,1.113,0,1,1-1.114-1.113A1.113,1.113,0,0,1,30.492,39.326Zm.611-7.15v-.829l1.458-2.236h4.447l1.458,2.236v.829a3.682,3.682,0,1,1-7.363,0Zm0-4.829a1.669,1.669,0,0,1,1.667-1.667H36.8a1.669,1.669,0,0,1,1.667,1.667v2.365l-.842-1.292a.446.446,0,0,0-.374-.2H32.319a.446.446,0,0,0-.374.2L31.1,29.713Zm3.682,15.636-2.412-6.928a4.533,4.533,0,0,0,4.825,0Z" transform="translate(0 0)" fill="#5bae3a"/>
    <path id="Path_66" data-name="Path 66" d="M83.577,93.774a.446.446,0,0,0-.446.446v1.514a.446.446,0,0,0,.893,0V94.22a.446.446,0,0,0-.446-.446Z" transform="translate(-43.468 -51.394)" fill="#5bae3a"/>
    <path id="Path_67" data-name="Path 67" d="M41.815,93.774a.446.446,0,0,0-.446.446v1.514a.446.446,0,1,0,.893,0V94.22A.446.446,0,0,0,41.815,93.774Z" transform="translate(-12.356 -51.394)" fill="#5bae3a"/>
  </g>
</svg>
