<svg xmlns="http://www.w3.org/2000/svg" width="48" height="32" viewBox="0 0 48 32">
  <g id="email" transform="translate(0 -85.333)">
    <g id="Group_227" data-name="Group 227" transform="translate(0 85.333)">
      <path id="Path_4341" data-name="Path 4341" d="M43,85.333H5a5.007,5.007,0,0,0-5,5v22a5.007,5.007,0,0,0,5,5H43a5.007,5.007,0,0,0,5-5v-22A5.007,5.007,0,0,0,43,85.333ZM17.64,103.1l-12,10a1,1,0,0,1-1.282-1.538l12-10A1,1,0,1,1,17.64,103.1Zm6.36.266a5.584,5.584,0,0,1-3.162-.986L4.436,91.159a1,1,0,1,1,1.128-1.65l16.4,11.222a3.581,3.581,0,0,0,4.066,0l16.4-11.222a1,1,0,0,1,1.13,1.65l-16.4,11.222A5.584,5.584,0,0,1,24,103.367Zm19.768,9.606a1,1,0,0,1-1.408.128l-12-10a1,1,0,1,1,1.282-1.538l12,10A1,1,0,0,1,43.768,112.973Z" transform="translate(0 -85.333)" fill="#5bae3a"/>
    </g>
  </g>
</svg>
