<svg xmlns="http://www.w3.org/2000/svg" width="20" height="20" viewBox="0 0 20 20">
  <g id="HEART" transform="translate(-24.789 -24.788)">
    <path id="Path_113" data-name="Path 113" d="M58.63,55.275h-.879V54.4a.446.446,0,0,0-.446-.446H55.722a.446.446,0,0,0-.446.446v.878H54.4a.446.446,0,0,0-.446.446V57.3a.446.446,0,0,0,.446.446h.878v.879a.446.446,0,0,0,.446.446H57.3a.446.446,0,0,0,.446-.446v-.879h.879a.446.446,0,0,0,.446-.446V55.722a.446.446,0,0,0-.446-.448Zm-.446,1.584H57.3a.447.447,0,0,0-.446.446v.878h-.691V57.3a.447.447,0,0,0-.446-.446h-.878v-.691h.879a.447.447,0,0,0,.446-.446v-.878h.691v.879a.447.447,0,0,0,.446.446h.878Z" transform="translate(-21.724 -21.725)" fill="#5bae3a"/>
    <path id="Path_114" data-name="Path 114" d="M49.218,42.3a4.459,4.459,0,0,0-5.72-.466,4.433,4.433,0,0,0-6.052,6.364.445.445,0,0,0,.094.138l5.643,5.643a.446.446,0,0,0,.631,0l5.643-5.643a.414.414,0,0,0,.089-.132A4.461,4.461,0,0,0,49.218,42.3Zm-.43,5.42a.4.4,0,0,0-.047.069L43.5,53.029l-5.241-5.241a.451.451,0,0,0-.049-.071,3.541,3.541,0,0,1,5-4.98.447.447,0,0,0,.579,0,3.541,3.541,0,0,1,5,4.98Z" transform="translate(-8.709 -12.077)" fill="#5bae3a"/>
    <path id="Path_115" data-name="Path 115" d="M34.789,24.788a10,10,0,1,0,10,10A10,10,0,0,0,34.789,24.788Zm0,19.107A9.107,9.107,0,1,1,43.9,34.788,9.107,9.107,0,0,1,34.789,43.9Z" fill="#5bae3a"/>
  </g>
</svg>
