<svg id="location-pin" xmlns="http://www.w3.org/2000/svg" width="48" height="47.998" viewBox="0 0 48 47.998">
  <path id="Path_4348" data-name="Path 4348" d="M24,11A10.074,10.074,0,0,0,14,21.124c0,7.706,8.656,15.2,9.026,15.514a1.5,1.5,0,0,0,1.95,0C25.344,36.324,34,28.83,34,21.124A10.074,10.074,0,0,0,24,11Zm0,14a4,4,0,1,1,4-4A4,4,0,0,1,24,25Z" transform="translate(14 11)" fill="#5bae3a"/>
  <path id="Path_4349" data-name="Path 4349" d="M20,0a20,20,0,0,0,0,40,19.427,19.427,0,0,0,5.64-.82c-3.062-6.876-1.56-13.064,2.58-17.14-.072,0-1.028-.41-1.1-.44-7.834-2.982-15.158,6.45-8.58,14.3A16,16,0,0,1,6.32,28.24a6.274,6.274,0,0,0,4.82-6.04,3.554,3.554,0,0,1,2.84-3.46c6.908-1.48,7.56-10.068,4.9-14.68a14.951,14.951,0,0,1,5.6.6c-.554,5.588,2.466,12.356,9.14,11.72l1.9-.22a13.294,13.294,0,0,1,.32,2.02,12.311,12.311,0,0,1,4.08-.02A20.05,20.05,0,0,0,20,0Z" fill="#5bae3a"/>
</svg>
