<svg xmlns="http://www.w3.org/2000/svg" width="16.48" height="20" viewBox="0 0 16.48 20">
  <g id="MEDICAL_PRESCRIPTION" data-name="MEDICAL PRESCRIPTION" transform="translate(-31.686 -24.788)">
    <path id="Path_138" data-name="Path 138" d="M47.279,34.914a3.03,3.03,0,0,0-3.821-.379v-6.8a.446.446,0,0,0-.131-.315l-2.505-2.505a.446.446,0,0,0-.316-.131H32.132a.446.446,0,0,0-.446.446V40.611a.446.446,0,0,0,.446.446h5.36A3.027,3.027,0,0,0,42.576,43.9l2.351-2.351L47.279,39.2a3.028,3.028,0,0,0,0-4.282Zm-6.326-8.6.982.982h-.982ZM32.578,40.163V25.68H40.06v2.059a.446.446,0,0,0,.446.446h2.059v7.159l-1.921,1.92-2.351,2.352a3.055,3.055,0,0,0-.431.546Zm9.367,3.105a2.136,2.136,0,0,1-3.02-3.02l2.036-2.036,3.019,3.02Zm4.7-4.7L44.612,40.6l-3.02-3.02,2.036-2.036a2.136,2.136,0,1,1,3.02,3.02Z" fill="#5bae3a"/>
    <path id="Path_139" data-name="Path 139" d="M41.808,45.767h2.975a.446.446,0,0,0,0-.892H41.808a.446.446,0,0,0,0,.892Z" transform="translate(-7.209 -14.965)" fill="#5bae3a"/>
    <path id="Path_140" data-name="Path 140" d="M44.783,68.5H41.808a.446.446,0,0,0,0,.892h2.975a.446.446,0,0,0,0-.892Z" transform="translate(-7.209 -32.566)" fill="#5bae3a"/>
    <path id="Path_141" data-name="Path 141" d="M41.808,53.642h5.945a.446.446,0,1,0,0-.892H41.808a.446.446,0,0,0,0,.892Z" transform="translate(-7.209 -20.832)" fill="#5bae3a"/>
    <path id="Path_142" data-name="Path 142" d="M41.808,61.517h5.945a.446.446,0,1,0,0-.892H41.808a.446.446,0,1,0,0,.892Z" transform="translate(-7.209 -26.699)" fill="#5bae3a"/>
  </g>
</svg>
