<svg xmlns="http://www.w3.org/2000/svg" width="20" height="19.011" viewBox="0 0 20 19.011">
  <g id="MONITOR" transform="translate(-24.787 -26.726)">
    <path id="Path_143" data-name="Path 143" d="M43.946,40.242h2.266l.666,2.111a.446.446,0,0,0,.862-.04l.818-3.75,1.16,4.823a.446.446,0,0,0,.434.342h.012a.447.447,0,0,0,.427-.366l.57-3.119h2.348a.446.446,0,1,0,0-.893h-2.72a.447.447,0,0,0-.439.366l-.258,1.41L48.97,36.462a.446.446,0,0,0-.87.009l-.875,4.015-.26-.825a.447.447,0,0,0-.426-.312H43.946a.446.446,0,1,0,0,.893Z" transform="translate(-13.941 -6.999)" fill="#5bae3a"/>
    <path id="Path_144" data-name="Path 144" d="M43.213,26.726H26.361A1.576,1.576,0,0,0,24.787,28.3V39.848a1.576,1.576,0,0,0,1.574,1.574H31.44v1.743h-.648a.446.446,0,0,0-.446.446v1.68a.446.446,0,0,0,.446.446h7.991a.446.446,0,0,0,.446-.446v-1.68a.446.446,0,0,0-.446-.446h-.648V41.422h5.078a1.576,1.576,0,0,0,1.574-1.574V28.3A1.576,1.576,0,0,0,43.213,26.726Zm-16.851.893H43.213a.682.682,0,0,1,.682.682v9.93H25.68V28.3a.682.682,0,0,1,.682-.682ZM38.336,44.844h-7.1v-.787h7.1Zm-1.095-1.68H32.332V41.422h4.909Zm5.971-2.635H26.361a.682.682,0,0,1-.682-.681v-.725H43.894v.725A.682.682,0,0,1,43.213,40.53Z" fill="#5bae3a"/>
  </g>
</svg>
