<svg id="phone-call" xmlns="http://www.w3.org/2000/svg" width="48" height="48" viewBox="0 0 48 48">
  <g id="Group_228" data-name="Group 228">
    <path id="Path_4342" data-name="Path 4342" d="M44.211,31.6a27.442,27.442,0,0,1-8.61-1.369,3.689,3.689,0,0,0-3.746.793l-5.449,4.115A30.438,30.438,0,0,1,12.859,21.6l4-5.32a3.824,3.824,0,0,0,.937-3.865,27.431,27.431,0,0,1-1.379-8.625A3.794,3.794,0,0,0,12.632,0H3.789A3.794,3.794,0,0,0,0,3.789,44.262,44.262,0,0,0,44.211,48,3.794,3.794,0,0,0,48,44.211V35.394A3.794,3.794,0,0,0,44.211,31.6Z" fill="#5bae3a"/>
  </g>
</svg>
