<svg xmlns="http://www.w3.org/2000/svg" width="40.649" height="40.649" viewBox="0 0 40.649 40.649">
  <g id="Group_132" data-name="Group 132" transform="translate(-225 -1022)">
    <path id="Path_295" data-name="Path 295" d="M1059.325,1168.649A20.325,20.325,0,1,0,1039,1148.325,20.327,20.327,0,0,0,1059.325,1168.649Z" transform="translate(-814 -106)" fill="rgba(91,174,58,0.1)"/>
    <g id="Group_6" data-name="Group 6" transform="translate(230 1027)">
      <path id="Path_296" data-name="Path 296" d="M1064.261,1168.522A15.261,15.261,0,1,0,1049,1153.261,15.264,15.264,0,0,0,1064.261,1168.522Z" transform="translate(-1049 -1138)" fill="#5bae3a"/>
    </g>
    <path id="Path_297" data-name="Path 297" d="M1074.421,1160.326l5.234,2.937a.9.9,0,0,1,.255.31.914.914,0,0,1,.09.4.877.877,0,0,1-.09.39.853.853,0,0,1-.255.31l-5.234,2.937a2.493,2.493,0,0,1-1.421.345v-7.966A2.53,2.53,0,0,1,1074.421,1160.326Z" transform="translate(-831 -121.981)" fill="#fff"/>
  </g>
</svg>
