<svg xmlns="http://www.w3.org/2000/svg" xmlns:xlink="http://www.w3.org/1999/xlink" width="72" height="50" viewBox="0 0 72 50">
  <defs>
    <clipPath id="clip-path">
      <rect id="Rectangle_61" data-name="Rectangle 61" width="72" height="50" transform="translate(1207 2385)" fill="#fff"/>
    </clipPath>
  </defs>
  <g id="Our_Staff_icon" data-name="Our Staff icon" transform="translate(-1207 -2385)" clip-path="url(#clip-path)">
    <path id="Path_495" data-name="Path 495" d="M1242.95,2409.69a6.945,6.945,0,1,0-6.95-6.94A6.946,6.946,0,0,0,1242.95,2409.69Z" fill="#5bae3a"/>
    <path id="Path_496" data-name="Path 496" d="M1267.96,2389.82a7.738,7.738,0,0,0-2.99-.19,6.738,6.738,0,0,0-2.36.85,6.946,6.946,0,0,0-3.49,5.73A11.193,11.193,0,0,0,1267.96,2389.82Z" fill="#5bae3a"/>
    <path id="Path_497" data-name="Path 497" d="M1267.3,2394.82a13.476,13.476,0,0,1-4,2.65,14.958,14.958,0,0,1-3.87,1.08,6.943,6.943,0,0,0,6.64,4.91,6.867,6.867,0,0,0,6.69-5.04A10.944,10.944,0,0,1,1267.3,2394.82Z" fill="#5bae3a"/>
    <path id="Path_498" data-name="Path 498" d="M1268.88,2392.99a8.892,8.892,0,0,0,4.12,3.03,6.915,6.915,0,0,0-2.75-5.05l-.14-.11A15.948,15.948,0,0,1,1268.88,2392.99Z" fill="#5bae3a"/>
    <path id="Path_499" data-name="Path 499" d="M1230.1,2422.76v11.09a.679.679,0,0,0,.68.67h11.37v-8.69l-4.14-13.48A10.824,10.824,0,0,0,1230.1,2422.76Z" fill="#5bae3a"/>
    <path id="Path_500" data-name="Path 500" d="M1232.15,2412.94a10.944,10.944,0,0,0-7.15-6.86l-4.14,15v7.12h6.88v-5.44A13.1,13.1,0,0,1,1232.15,2412.94Zm-5.04,3.5h-2.19a1.185,1.185,0,1,1,0-2.37h2.19a1.185,1.185,0,1,1,0,2.37Z" fill="#5bae3a"/>
    <path id="Path_501" data-name="Path 501" d="M1271.19,2406.04l-1.96,8.42a3.566,3.566,0,0,1-2.23,2.55v11.19h11.32a.674.674,0,0,0,.68-.68v-11.08A10.815,10.815,0,0,0,1271.19,2406.04Zm3.08,10.9h-2.88a1.18,1.18,0,1,1,0-2.36h2.88a1.18,1.18,0,0,1,0,2.36Z" fill="#5bae3a"/>
    <path id="Path_502" data-name="Path 502" d="M1248.59,2412.57l-4.07,13.26v8.69h10.62a.67.67,0,0,0,.67-.67v-11.09A10.826,10.826,0,0,0,1248.59,2412.57Zm3.2,11.13h-2.87a1.18,1.18,0,1,1,0-2.36h2.87a1.18,1.18,0,0,1,0,2.36Z" fill="#5bae3a"/>
    <path id="Path_503" data-name="Path 503" d="M1207,2416.42v11.1a.674.674,0,0,0,.68.68h10.81v-7.12l-4.1-14.9A10.783,10.783,0,0,0,1207,2416.42Z" fill="#5bae3a"/>
    <path id="Path_504" data-name="Path 504" d="M1221.91,2405.62h-4.11c-.37,0-.73.02-1.08.05l2.97,10.78,2.98-10.81C1222.4,2405.64,1222.16,2405.62,1221.91,2405.62Z" fill="#5bae3a"/>
    <path id="Path_505" data-name="Path 505" d="M1245.01,2411.96h-4.11a4.43,4.43,0,0,0-.52.02l2.96,9.65,2.94-9.6A10.8,10.8,0,0,0,1245.01,2411.96Z" fill="#5bae3a"/>
    <path id="Path_506" data-name="Path 506" d="M1262.4,2414.44l-1.91-8.2a11.061,11.061,0,0,0-6.69,6.71,13.131,13.131,0,0,1,4.38,9.79v5.44h6.45v-11.19A3.608,3.608,0,0,1,1262.4,2414.44Z" fill="#5bae3a"/>
    <path id="Path_507" data-name="Path 507" d="M1268.2,2405.62h-4.11a11.327,11.327,0,0,0-1.3.08l1.91,8.22a1.182,1.182,0,0,0,1.1.93h.08a1.146,1.146,0,0,0,1.02-.93l1.93-8.27C1268.64,2405.64,1268.42,2405.62,1268.2,2405.62Z" fill="#5bae3a"/>
    <path id="Path_508" data-name="Path 508" d="M1219.84,2403.46a6.95,6.95,0,1,0-6.94-6.93A6.984,6.984,0,0,0,1219.84,2403.46Z" fill="#5bae3a"/>
    <path id="Path_509" data-name="Path 509" d="M1264.97,2388.89a1.52,1.52,0,0,1,3.04,0,8.981,8.981,0,0,1-.05.93,8.231,8.231,0,0,1,2.13,1.03l.14.1.15.12v-2.18a3.885,3.885,0,1,0-7.77,0v1.59a6.851,6.851,0,0,1,2.36-.83Z" fill="#5bae3a"/>
    <path id="Path_510" data-name="Path 510" d="M1264.97,2389.65a6.851,6.851,0,0,0-2.36.83A6.407,6.407,0,0,1,1264.97,2389.65Z" fill="#5bae3a"/>
  </g>
</svg>
