<svg xmlns="http://www.w3.org/2000/svg" width="20" height="20.004" viewBox="0 0 20 20.004">
  <g id="STETHOSCOPE" transform="translate(-24.786 -24.769)">
    <path id="Path_176" data-name="Path 176" d="M43.917,28V26.829a1.547,1.547,0,0,0-1.545-1.545h-.778V25.22a.446.446,0,1,0-.893,0v1.17a.446.446,0,1,0,.893,0v-.213h.778a.653.653,0,0,1,.652.652v1.118A1.4,1.4,0,0,0,42,29.152L41.8,31.208a3.327,3.327,0,0,1-6.621,0l-.206-2.055a1.4,1.4,0,0,0-1.023-1.205V26.829a.653.653,0,0,1,.652-.652h.778v.213a.446.446,0,1,0,.893,0V25.22a.446.446,0,0,0-.893,0v.065H34.6a1.547,1.547,0,0,0-1.545,1.545V28a1.4,1.4,0,0,0-.861,1.431l.206,2.055a6.1,6.1,0,0,0,5.642,5.487v1.958a4.95,4.95,0,1,1-9.9,0V30.549a2.907,2.907,0,1,0-.893,0v8.381a5.842,5.842,0,1,0,11.684,0V36.972a6.1,6.1,0,0,0,5.642-5.487l.206-2.055A1.4,1.4,0,0,0,43.917,28Zm-18.239-.32A2.015,2.015,0,1,1,27.693,29.7,2.015,2.015,0,0,1,25.679,27.681ZM43.685,31.4a5.226,5.226,0,0,1-10.4,0l-.207-2.055a.5.5,0,0,1,.449-.551l.051,0a.505.505,0,0,1,.5.453l.207,2.055a4.22,4.22,0,0,0,8.4,0l.206-2.055a.5.5,0,1,1,1,.1Z" transform="translate(0)" fill="#5bae3a"/>
    <path id="Path_177" data-name="Path 177" d="M33.918,32.739a1.18,1.18,0,1,0-1.18,1.18A1.18,1.18,0,0,0,33.918,32.739Zm-1.467,0a.287.287,0,1,1,.287.287A.287.287,0,0,1,32.451,32.739Z" transform="translate(-5.045 -5.058)" fill="#5bae3a"/>
  </g>
</svg>
