<svg xmlns="http://www.w3.org/2000/svg" width="20" height="20" viewBox="0 0 20 20">
  <path id="VACCINATION" d="M44.423,27.852l-2.541-2.541a1.519,1.519,0,1,0-2.149,2.149l.13.13-2.869,2.869-.888-.888a.447.447,0,0,0-.632,0L30.915,34.13h0l-2.937,2.937a.447.447,0,0,0,0,.632l.818.818-.6.9a.447.447,0,0,0,.056.564l.434.434L25,44.1a.447.447,0,0,0,.632.632l3.692-3.69.434.434a.447.447,0,0,0,.564.056l.9-.6.818.818a.447.447,0,0,0,.632,0l7.5-7.5a.447.447,0,0,0,0-.632l-.888-.888,2.869-2.869.13.13a1.519,1.519,0,1,0,2.149-2.149ZM30.13,40.589l-.984-.984.3-.443,1.132,1.132Zm2.222.218-.762-.762h0l-1.9-1.9h0l-.762-.762.68-.68.761.76A.447.447,0,0,0,31,36.832l-.762-.762.991-.991.761.76a.447.447,0,1,0,.632-.633l-.761-.76.991-.991.761.76a.447.447,0,1,0,.632-.632l-.76-.761.991-.991.759.761a.447.447,0,1,0,.632-.632l-.761-.76.68-.68,3.424,3.424Zm6.291-8.7-1.015-1.015L40.5,28.223l1.016,1.016Zm5.148-2.739a.626.626,0,0,1-.884,0l-2.54-2.54a.625.625,0,1,1,.884-.884l2.54,2.54a.626.626,0,0,1,0,.884Z" transform="translate(-24.868 -24.867)" fill="#5bae3a"/>
</svg>
