<svg xmlns="http://www.w3.org/2000/svg" width="20.001" height="20" viewBox="0 0 20.001 20">
  <g id="VIRUS" transform="translate(-24.786 -24.788)">
    <path id="Path_181" data-name="Path 181" d="M43.517,32.227a1.272,1.272,0,0,0-1.27,1.27v.041H41.121a6.454,6.454,0,0,0-.971-2.346l.8-.8.029.029a1.27,1.27,0,0,0,1.8-1.8L40.945,26.8a1.271,1.271,0,1,0-1.8,1.8l.029.029-.794.8a6.445,6.445,0,0,0-2.346-.971V27.329h.041a1.27,1.27,0,0,0,0-2.541H33.5a1.27,1.27,0,0,0,0,2.541h.041v1.126a6.445,6.445,0,0,0-2.346.971l-.8-.8.029-.029a1.27,1.27,0,1,0-1.8-1.8L26.8,28.63a1.271,1.271,0,0,0,1.8,1.8l.029-.029.8.794a6.454,6.454,0,0,0-.971,2.346H27.327V33.5a1.27,1.27,0,1,0-2.541,0v2.582a1.27,1.27,0,1,0,2.541,0v-.041h1.126a6.454,6.454,0,0,0,.971,2.346l-.8.8-.029-.029a1.27,1.27,0,0,0-1.8,1.8l1.826,1.825a1.271,1.271,0,0,0,1.8-1.8l-.029-.029.794-.8a6.446,6.446,0,0,0,2.346.971v1.126H33.5a1.27,1.27,0,1,0,0,2.541h2.582a1.27,1.27,0,1,0,0-2.541h-.041V41.122a6.445,6.445,0,0,0,2.346-.971l.8.8-.029.029a1.27,1.27,0,1,0,1.8,1.8l1.826-1.825a1.271,1.271,0,0,0-1.8-1.8l-.029.029-.8-.794a6.454,6.454,0,0,0,.971-2.346h1.126v.041a1.27,1.27,0,1,0,2.541,0V33.5A1.272,1.272,0,0,0,43.517,32.227Zm.378,3.851a.378.378,0,0,1-.756,0v-.486a.446.446,0,0,0-.446-.447h-1.95a.446.446,0,0,0-.442.387,5.554,5.554,0,0,1-1.088,2.627.446.446,0,0,0,.039.587l1.379,1.379a.446.446,0,0,0,.631,0l.344-.344a.379.379,0,0,1,.536.536l-1.825,1.825a.387.387,0,0,1-.536,0,.378.378,0,0,1,0-.534l.344-.344a.446.446,0,0,0,0-.631l-1.379-1.381a.446.446,0,0,0-.587-.039A5.55,5.55,0,0,1,35.532,40.3a.446.446,0,0,0-.388.443v1.95a.447.447,0,0,0,.446.446h.487a.378.378,0,1,1,0,.755H33.5a.378.378,0,1,1,0-.755h.487a.447.447,0,0,0,.447-.446v-1.95a.446.446,0,0,0-.387-.442,5.55,5.55,0,0,1-2.627-1.088.446.446,0,0,0-.587.039L29.45,40.631a.446.446,0,0,0,0,.631l.344.345a.378.378,0,0,1,0,.534.387.387,0,0,1-.534,0l-1.825-1.825a.379.379,0,1,1,.536-.536l.344.344a.459.459,0,0,0,.631,0l1.378-1.378a.446.446,0,0,0,.039-.587,5.554,5.554,0,0,1-1.088-2.627.446.446,0,0,0-.443-.388h-1.95a.446.446,0,0,0-.446.446v.487a.378.378,0,0,1-.756,0V33.5a.378.378,0,0,1,.756,0v.487a.446.446,0,0,0,.446.447h1.95a.446.446,0,0,0,.442-.387,5.554,5.554,0,0,1,1.088-2.627.446.446,0,0,0-.039-.587l-1.379-1.379a.446.446,0,0,0-.631,0l-.344.344a.378.378,0,0,1-.536-.534l1.825-1.825a.387.387,0,0,1,.534,0,.377.377,0,0,1,0,.536l-.344.344a.447.447,0,0,0,0,.631l1.38,1.378a.446.446,0,0,0,.587.039,5.55,5.55,0,0,1,2.627-1.088.446.446,0,0,0,.388-.443v-1.95a.447.447,0,0,0-.446-.446H33.5a.378.378,0,0,1,0-.755h2.582a.378.378,0,1,1,0,.755H35.59a.447.447,0,0,0-.447.446v1.95a.446.446,0,0,0,.387.442,5.55,5.55,0,0,1,2.627,1.088.446.446,0,0,0,.587-.039l1.379-1.379a.447.447,0,0,0,0-.631l-.345-.345a.378.378,0,0,1,0-.534.387.387,0,0,1,.536,0l1.825,1.825a.378.378,0,0,1-.536.534l-.344-.344a.459.459,0,0,0-.631,0L39.25,30.83a.446.446,0,0,0-.039.587A5.554,5.554,0,0,1,40.3,34.043a.446.446,0,0,0,.443.388h1.95a.446.446,0,0,0,.446-.446V33.5a.378.378,0,0,1,.756,0Z" fill="#5bae3a"/>
    <path id="Path_182" data-name="Path 182" d="M50.488,53.672a1.674,1.674,0,1,0,0,3.347.446.446,0,0,0,0-.893.781.781,0,1,1,.781-.781.446.446,0,0,0,.893,0A1.676,1.676,0,0,0,50.488,53.672Z" transform="translate(-17.9 -21.518)" fill="#5bae3a"/>
    <path id="Path_183" data-name="Path 183" d="M69.561,63.3a1.408,1.408,0,0,0-1.407,1.407.446.446,0,1,0,.893,0,.514.514,0,1,1,.514.514.446.446,0,0,0,0,.893,1.407,1.407,0,1,0,0-2.813Z" transform="translate(-32.308 -28.69)" fill="#5bae3a"/>
  </g>
</svg>
