<svg xmlns="http://www.w3.org/2000/svg" width="16" height="10.667" viewBox="0 0 16 10.667">
  <g id="email" transform="translate(0 -85.333)">
    <g id="Group_227" data-name="Group 227" transform="translate(0 85.333)">
      <path id="Path_4341" data-name="Path 4341" d="M14.333,85.333H1.667A1.669,1.669,0,0,0,0,87v7.333A1.669,1.669,0,0,0,1.667,96H14.333A1.669,1.669,0,0,0,16,94.333V87A1.669,1.669,0,0,0,14.333,85.333ZM5.88,91.256l-4,3.333a.334.334,0,0,1-.427-.513l4-3.333a.334.334,0,1,1,.427.513ZM8,91.344a1.861,1.861,0,0,1-1.054-.329L1.479,87.275a.333.333,0,1,1,.376-.55l5.467,3.741a1.194,1.194,0,0,0,1.355,0l5.467-3.741a.333.333,0,0,1,.377.55L9.054,91.016A1.861,1.861,0,0,1,8,91.344Zm6.589,3.2a.333.333,0,0,1-.469.043l-4-3.333a.334.334,0,1,1,.427-.513l4,3.333A.334.334,0,0,1,14.589,94.546Z" transform="translate(0 -85.333)" fill="#1d465c"/>
    </g>
  </g>
</svg>
