<svg id="patient" xmlns="http://www.w3.org/2000/svg" width="16" height="16" viewBox="0 0 16 16">
  <path id="Path_4339" data-name="Path 4339" d="M12.667,21.333a.667.667,0,0,1-.555-.3l-1.135-1.7H9.667a.667.667,0,1,1,0-1.333h1.667a.668.668,0,0,1,.555.3l.7,1.044,1.486-2.973A.668.668,0,0,1,14.641,16a.658.658,0,0,1,.6.323l1.806,3.011h1.289a.667.667,0,0,1,0,1.333H16.667a.666.666,0,0,1-.571-.323L14.72,18.051l-1.457,2.914a.667.667,0,0,1-.555.367Z" transform="translate(-3 -5.333)" fill="#1d465c"/>
  <circle id="Ellipse_7" data-name="Ellipse 7" cx="3.333" cy="3.333" r="3.333" transform="translate(2.667)" fill="#1d465c"/>
  <path id="Path_4340" data-name="Path 4340" d="M4.667,17.333a2,2,0,0,1,2-2H8.333a2,2,0,0,1,.972.251l.573-1.146a1.989,1.989,0,0,1,1.476-1.063A3.323,3.323,0,0,0,8.667,12H3.333A3.334,3.334,0,0,0,0,15.333V17.5a.5.5,0,0,0,.5.5H4.789A1.977,1.977,0,0,1,4.667,17.333Z" transform="translate(0 -4)" fill="#1d465c"/>
</svg>
