<svg id="phone-call" xmlns="http://www.w3.org/2000/svg" width="16" height="16" viewBox="0 0 16 16">
  <g id="Group_228" data-name="Group 228">
    <path id="Path_4342" data-name="Path 4342" d="M14.737,10.535a9.147,9.147,0,0,1-2.87-.456,1.23,1.23,0,0,0-1.249.264L8.8,11.715A10.146,10.146,0,0,1,4.286,7.2L5.621,5.427a1.275,1.275,0,0,0,.312-1.288,9.144,9.144,0,0,1-.46-2.875A1.265,1.265,0,0,0,4.211,0H1.263A1.265,1.265,0,0,0,0,1.263,14.754,14.754,0,0,0,14.737,16,1.265,1.265,0,0,0,16,14.737V11.8A1.265,1.265,0,0,0,14.737,10.535Z" fill="#1d465c"/>
  </g>
</svg>
