<svg xmlns="http://www.w3.org/2000/svg" width="36.93" height="49.363" viewBox="0 0 36.93 49.363">
  <g id="Group_440" data-name="Group 440" transform="translate(-391.818 97.307)">
    <path id="Path_8050" data-name="Path 8050" d="M290.767,108.426h-2v27.985h2Z" transform="translate(120.36 -184.355)" fill="#5cad33"/>
    <path id="Path_8051" data-name="Path 8051" d="M289.76,133.932c-1.215-3.533-4.425-6.166-7.254-8.493-3.4-2.777-6.527-5.592-7.741-9.508l1.907-.594c1.053,3.4,3.822,5.881,7.1,8.557,3.036,2.489,6.48,5.313,7.877,9.381Z" transform="translate(119.372 -183.868)" fill="#5cad33"/>
    <path id="Path_8052" data-name="Path 8052" d="M279.826,123.147a9.841,9.841,0,0,1-.179-7.474l1.865.717a7.83,7.83,0,0,0,.139,5.946Z" transform="translate(119.671 -183.844)" fill="#5cad33"/>
    <path id="Path_8053" data-name="Path 8053" d="M291.94,121.079a41.93,41.93,0,0,0-18.405-15.644l-.794,1.829a39.923,39.923,0,0,1,17.645,15.093l1.477-.939A2.474,2.474,0,0,1,291.94,121.079Z" transform="translate(119.23 -184.566)" fill="#5cad33"/>
    <path id="Path_8054" data-name="Path 8054" d="M279.687,111.416a22.265,22.265,0,0,0-2.641-9.712l1.758-.952a24.255,24.255,0,0,1,2.88,10.592Z" transform="translate(119.533 -184.896)" fill="#5cad33"/>
    <path id="Path_8055" data-name="Path 8055" d="M290.618,133.931l-1.9-.65c1.4-4.068,4.842-6.892,7.874-9.381,3.262-2.675,6.047-5.164,7.1-8.557l1.907.594c-1.219,3.916-4.357,6.731-7.742,9.508-2.833,2.319-6.039,4.952-7.254,8.493" transform="translate(120.356 -183.868)" fill="#5cad33"/>
    <path id="Path_8056" data-name="Path 8056" d="M299.614,123.147l-1.825-.807a7.867,7.867,0,0,0,.139-5.945l1.865-.718a9.841,9.841,0,0,1-.179,7.474" transform="translate(120.996 -183.844)" fill="#5cad33"/>
    <path id="Path_8057" data-name="Path 8057" d="M306.973,105.435a41.911,41.911,0,0,0-18.142,15.241,2.574,2.574,0,0,1,.08.633v.272l1.224.777a39.885,39.885,0,0,1,17.645-15.093Z" transform="translate(120.364 -184.566)" fill="#5cad33"/>
    <path id="Path_8058" data-name="Path 8058" d="M299.884,111.416l-2-.072a24.213,24.213,0,0,1,2.88-10.592l1.745.952a22.265,22.265,0,0,0-2.641,9.712" transform="translate(121.003 -184.896)" fill="#5cad33"/>
    <path id="Path_8059" data-name="Path 8059" d="M289.563,111.609a110.061,110.061,0,0,0-12.188-15.173l1.44-1.384a112.01,112.01,0,0,1,12.4,15.449Z" transform="translate(119.556 -185.298)" fill="#5cad33"/>
    <path id="Path_8060" data-name="Path 8060" d="M284.975,103.777l-1.912-.581a102,102,0,0,1,3.856-10.4l1.831.794a100.087,100.087,0,0,0-3.775,10.192" transform="translate(119.957 -185.457)" fill="#5cad33"/>
    <path id="Path_8061" data-name="Path 8061" d="M290.687,111.174l-1.666-1.112a112.492,112.492,0,0,1,12.418-15.45L302.879,96a109.873,109.873,0,0,0-12.188,15.173" transform="translate(120.377 -185.329)" fill="#5cad33"/>
    <path id="Path_8062" data-name="Path 8062" d="M294.737,103.338a100.931,100.931,0,0,0-3.776-10.192l1.848-.794a102.511,102.511,0,0,1,3.822,10.4Z" transform="translate(120.514 -185.489)" fill="#5cad33"/>
    <path id="Path_8063" data-name="Path 8063" d="M295.437,94.631a4.459,4.459,0,0,1,2.685-5.7l1.3-.471.472,1.308a4.456,4.456,0,0,1-2.675,5.7h0a1.394,1.394,0,0,1-1.779-.847v0" transform="translate(120.811 -185.763)" fill="#5cad33"/>
    <path id="Path_8064" data-name="Path 8064" d="M288.985,104.709a4.455,4.455,0,0,1,0-6.3h0l.981-.981.981.981a4.455,4.455,0,0,1,0,6.3l0,0a1.387,1.387,0,0,1-1.958,0l0,0" transform="translate(120.283 -185.131)" fill="#5cad33"/>
    <path id="Path_8065" data-name="Path 8065" d="M302.637,104.1a3.081,3.081,0,0,1,3.644-2.378l.942.2-.195.939a3.083,3.083,0,0,1-3.648,2.386.953.953,0,0,1-.744-1.127v-.006" transform="translate(121.336 -184.833)" fill="#5cad33"/>
    <path id="Path_8066" data-name="Path 8066" d="M300.763,113.076a4.454,4.454,0,0,1,5.435-3.185h.005l1.342.352-.349,1.341a4.453,4.453,0,0,1-5.435,3.186h-.005a1.386,1.386,0,0,1-.994-1.694v-.005" transform="translate(121.202 -184.262)" fill="#5cad33"/>
    <path id="Path_8067" data-name="Path 8067" d="M277.363,104.1a3.088,3.088,0,0,0-3.656-2.379l-.939.2.2.938a3.082,3.082,0,0,0,3.647,2.387.959.959,0,0,0,.743-1.134" transform="translate(119.231 -184.833)" fill="#5cad33"/>
    <path id="Path_8068" data-name="Path 8068" d="M279.385,113.076a4.455,4.455,0,0,0-5.436-3.185h-.005l-1.346.352.352,1.341a4.455,4.455,0,0,0,5.436,3.186h0a1.388,1.388,0,0,0,1-1.694v-.005" transform="translate(119.22 -184.262)" fill="#5cad33"/>
    <path id="Path_8069" data-name="Path 8069" d="M284.175,94.631a4.453,4.453,0,0,0-2.675-5.7h0l-1.307-.471-.468,1.308a4.454,4.454,0,0,0,2.675,5.7,1.389,1.389,0,0,0,1.776-.839l0-.011" transform="translate(119.703 -185.763)" fill="#5cad33"/>
    <path id="Path_8070" data-name="Path 8070" d="M287.238,122.766a3.083,3.083,0,0,0-2.365-3.66l-.939-.2-.2.939a3.083,3.083,0,0,0,2.368,3.66.94.94,0,0,0,.375.005.957.957,0,0,0,.763-.744" transform="translate(120 -183.617)" fill="#5cad33"/>
    <path id="Path_8071" data-name="Path 8071" d="M287.237,111.837a3.08,3.08,0,0,0-2.365-3.66l-.939-.2-.2.942a3.088,3.088,0,0,0,2.369,3.661.968.968,0,0,0,.723-.134.96.96,0,0,0,.415-.606" transform="translate(120 -184.387)" fill="#5cad33"/>
    <path id="Path_8072" data-name="Path 8072" d="M292.137,122.766a3.083,3.083,0,0,1,2.365-3.66l.939-.2.2.939a3.082,3.082,0,0,1-2.366,3.66.962.962,0,0,1-1.142-.739Z" transform="translate(120.592 -183.617)" fill="#5cad33"/>
    <path id="Path_8073" data-name="Path 8073" d="M292.137,111.837a3.083,3.083,0,0,1,2.365-3.66l.939-.2.2.938a3.09,3.09,0,0,1-2.366,3.661.964.964,0,0,1-1.142-.74Z" transform="translate(120.592 -184.387)" fill="#5cad33"/>
  </g>
</svg>
