<svg version="1.2" baseProfile="tiny-ps" xmlns="http://www.w3.org/2000/svg" viewBox="0 0 240 48" width="240" height="48">
	<title>logo-svg</title>
	<style>
		tspan { white-space:pre }
		.shp0 { fill: #ffffff } 
		.shp1 { fill: #5bae3a } 
	</style>
	<g id="Group_5">
		<path id="Path_11" class="shp0" d="M6.63 24.41L5.33 23.33L4.33 24.46L2.97 23.33L4.1 22.01L5.4 23.13L6.41 21.97L7.77 23.13L6.63 24.41ZM5.06 21.17C4.75 21.19 4.45 21.19 4.14 21.15C3.84 21.12 3.54 21.06 3.25 20.97C2.95 20.89 2.67 20.77 2.4 20.64C2.13 20.5 1.87 20.34 1.62 20.16C1.42 19.98 1.24 19.77 1.09 19.56C0.93 19.34 0.8 19.1 0.7 18.85C0.59 18.6 0.52 18.34 0.47 18.08C0.43 17.81 0.41 17.54 0.43 17.28C0.44 16.93 0.47 16.58 0.52 16.23C0.57 15.89 0.64 15.55 0.73 15.21C0.82 14.88 0.93 14.54 1.06 14.22C1.19 13.9 1.33 13.58 1.5 13.28L3.12 13.92C3.03 14.14 2.95 14.36 2.87 14.58C2.8 14.8 2.74 15.03 2.68 15.26C2.63 15.49 2.59 15.72 2.55 15.95C2.52 16.19 2.5 16.42 2.49 16.66C2.49 18.19 3.49 18.96 5.49 18.96C7.28 18.96 8.4 18.45 8.87 17.44C8.63 17.4 8.4 17.35 8.16 17.3C7.93 17.25 7.7 17.2 7.46 17.14C7.23 17.08 7 17.01 6.77 16.94C6.54 16.88 6.32 16.8 6.09 16.72L6.51 14.69C6.89 14.79 7.27 14.88 7.65 14.96C8.03 15.03 8.41 15.1 8.8 15.15C9.18 15.2 9.57 15.24 9.96 15.27C10.35 15.3 10.74 15.31 11.12 15.32L11.37 15.32L11.37 17.65L11.16 17.65C10.9 17.65 10.7 17.64 10.57 17.63C10.52 17.89 10.45 18.15 10.35 18.39C10.24 18.64 10.12 18.88 9.97 19.1C9.82 19.32 9.65 19.52 9.45 19.71C9.26 19.89 9.05 20.06 8.83 20.2C8.55 20.37 8.25 20.53 7.95 20.65C7.65 20.78 7.33 20.89 7.01 20.97C6.69 21.05 6.37 21.11 6.04 21.15C5.71 21.18 5.38 21.19 5.05 21.17" />
		<path id="Path_12" fill-rule="evenodd" class="shp0" d="M26.94 17.65C26.72 17.65 26.5 17.64 26.28 17.62C26.06 17.59 25.85 17.56 25.64 17.5C25.42 17.45 25.22 17.38 25.01 17.3C24.81 17.22 24.61 17.12 24.42 17.01C24.02 17.14 23.62 17.26 23.22 17.35C22.81 17.44 22.4 17.52 21.98 17.58C21.57 17.64 21.16 17.68 20.74 17.7C20.32 17.72 19.9 17.73 19.49 17.71C19.06 17.74 18.64 17.73 18.22 17.7C17.79 17.67 17.37 17.62 16.95 17.54C16.54 17.46 16.13 17.36 15.72 17.23C15.32 17.1 14.92 16.95 14.54 16.78C14.35 16.94 14.14 17.08 13.92 17.2C13.7 17.32 13.47 17.42 13.24 17.5C13 17.57 12.75 17.62 12.5 17.65C12.26 17.67 12.01 17.67 11.76 17.65L11.37 17.65C11.23 17.65 11.11 17.53 11 17.31C10.95 17.18 10.91 17.04 10.89 16.9C10.86 16.76 10.85 16.62 10.85 16.48C10.85 16.34 10.86 16.2 10.89 16.06C10.91 15.93 10.95 15.79 11 15.66C11.1 15.43 11.23 15.32 11.37 15.32L11.74 15.32C11.87 15.33 11.99 15.34 12.11 15.33C12.24 15.33 12.36 15.31 12.48 15.28C12.6 15.25 12.72 15.21 12.83 15.16C12.94 15.11 13.05 15.06 13.16 14.99C13.21 14.92 13.27 14.84 13.31 14.77C13.35 14.69 13.39 14.61 13.42 14.52C13.45 14.43 13.46 14.35 13.48 14.26C13.49 14.17 13.49 14.08 13.48 13.99L13.48 11.72L15.43 11.58L15.43 13.52C15.43 13.61 15.43 13.71 15.43 13.8C15.42 13.9 15.42 13.99 15.42 14.09C15.41 14.18 15.4 14.27 15.39 14.37C15.39 14.46 15.37 14.56 15.36 14.65L15.61 14.75C15.78 14.41 15.97 14.07 16.18 13.75C16.39 13.43 16.62 13.12 16.87 12.83C17.11 12.53 17.38 12.25 17.65 11.98C17.93 11.72 18.22 11.47 18.53 11.23C18.77 11.06 19.03 10.9 19.3 10.77C19.57 10.64 19.85 10.52 20.13 10.43C20.42 10.34 20.71 10.27 21.01 10.23C21.3 10.18 21.6 10.16 21.91 10.16C22.15 10.15 22.4 10.16 22.65 10.2C22.89 10.24 23.13 10.31 23.36 10.4C23.59 10.49 23.81 10.61 24.02 10.74C24.23 10.88 24.42 11.04 24.59 11.21C24.76 11.4 24.92 11.6 25.05 11.82C25.18 12.04 25.29 12.26 25.38 12.5C25.46 12.74 25.53 12.98 25.57 13.23C25.6 13.48 25.62 13.74 25.61 13.99C25.61 14.09 25.6 14.19 25.6 14.29C25.6 14.39 25.59 14.49 25.58 14.59C25.58 14.69 25.57 14.79 25.56 14.89C25.55 14.99 25.54 15.09 25.53 15.19C25.64 15.21 25.75 15.23 25.86 15.24C25.97 15.26 26.08 15.27 26.2 15.28C26.31 15.3 26.42 15.3 26.53 15.31C26.65 15.32 26.76 15.32 26.87 15.32L27.34 15.32L27.34 17.65L26.94 17.65ZM19.93 15.33C20.25 15.34 20.57 15.34 20.89 15.33C21.21 15.31 21.53 15.29 21.85 15.26C22.17 15.22 22.48 15.18 22.8 15.12C23.12 15.07 23.43 15 23.74 14.93C23.75 14.76 23.75 14.59 23.72 14.42C23.7 14.25 23.67 14.08 23.62 13.91C23.57 13.75 23.5 13.59 23.42 13.44C23.34 13.29 23.25 13.15 23.14 13.01C23.04 12.9 22.93 12.8 22.81 12.72C22.69 12.63 22.56 12.56 22.42 12.51C22.28 12.45 22.14 12.41 21.99 12.38C21.85 12.36 21.7 12.35 21.55 12.36C21.37 12.36 21.19 12.37 21.01 12.4C20.83 12.43 20.65 12.47 20.48 12.52C20.31 12.58 20.14 12.65 19.98 12.73C19.81 12.81 19.66 12.91 19.51 13.01C19.31 13.16 19.12 13.32 18.94 13.49C18.75 13.66 18.57 13.83 18.4 14.01C18.23 14.2 18.07 14.39 17.91 14.58C17.76 14.78 17.61 14.98 17.47 15.19C17.68 15.21 17.88 15.24 18.08 15.26C18.29 15.27 18.49 15.29 18.7 15.3C18.9 15.31 19.11 15.32 19.31 15.33C19.52 15.33 19.72 15.33 19.92 15.33L19.93 15.33Z" />
		<path id="Path_13" fill-rule="evenodd" class="shp0" d="M42.91 17.65C42.69 17.65 42.47 17.64 42.25 17.62C42.04 17.59 41.82 17.56 41.61 17.5C41.4 17.45 41.19 17.38 40.98 17.3C40.78 17.22 40.58 17.12 40.39 17.01C40 17.14 39.59 17.26 39.19 17.35C38.78 17.44 38.37 17.52 37.96 17.58C37.54 17.64 37.13 17.68 36.71 17.7C36.29 17.72 35.88 17.73 35.46 17.71C35.03 17.74 34.61 17.73 34.19 17.7C33.76 17.67 33.34 17.62 32.93 17.54C32.51 17.46 32.1 17.36 31.69 17.23C31.29 17.1 30.89 16.95 30.51 16.78C30.32 16.94 30.11 17.08 29.89 17.2C29.68 17.32 29.45 17.42 29.21 17.5C28.97 17.57 28.73 17.62 28.48 17.65C28.23 17.67 27.98 17.67 27.73 17.65L27.34 17.65C27.2 17.65 27.08 17.53 26.98 17.31C26.93 17.18 26.89 17.04 26.86 16.9C26.83 16.76 26.82 16.62 26.82 16.48C26.82 16.34 26.83 16.2 26.86 16.06C26.89 15.93 26.93 15.79 26.98 15.66C27.08 15.43 27.2 15.32 27.34 15.32L27.72 15.32C27.84 15.33 27.96 15.34 28.08 15.33C28.21 15.33 28.33 15.31 28.45 15.28C28.57 15.25 28.69 15.21 28.8 15.16C28.92 15.11 29.02 15.06 29.13 14.99C29.19 14.92 29.24 14.84 29.28 14.77C29.33 14.69 29.36 14.61 29.39 14.52C29.42 14.43 29.44 14.35 29.45 14.26C29.46 14.17 29.46 14.08 29.45 13.99L29.45 11.72L31.4 11.58L31.4 13.52C31.4 13.61 31.4 13.71 31.4 13.8C31.4 13.9 31.39 13.99 31.39 14.09C31.38 14.18 31.37 14.27 31.37 14.37C31.36 14.46 31.35 14.56 31.34 14.65L31.58 14.75C31.75 14.41 31.94 14.07 32.16 13.75C32.37 13.43 32.6 13.12 32.84 12.83C33.09 12.53 33.35 12.25 33.63 11.98C33.9 11.72 34.2 11.47 34.5 11.23C34.75 11.06 35 10.9 35.27 10.77C35.54 10.64 35.82 10.52 36.11 10.43C36.39 10.34 36.68 10.27 36.98 10.23C37.28 10.18 37.58 10.16 37.88 10.16C38.12 10.15 38.37 10.16 38.62 10.2C38.86 10.24 39.1 10.31 39.33 10.4C39.56 10.49 39.79 10.61 39.99 10.74C40.2 10.88 40.39 11.04 40.56 11.21C40.74 11.4 40.89 11.6 41.02 11.82C41.15 12.04 41.26 12.26 41.35 12.5C41.44 12.74 41.5 12.98 41.54 13.23C41.58 13.48 41.59 13.74 41.58 13.99C41.58 14.09 41.58 14.19 41.57 14.29C41.57 14.39 41.56 14.49 41.56 14.59C41.55 14.69 41.54 14.79 41.53 14.89C41.52 14.99 41.51 15.09 41.5 15.19C41.61 15.21 41.72 15.23 41.83 15.24C41.94 15.26 42.06 15.27 42.17 15.28C42.28 15.3 42.39 15.3 42.51 15.31C42.62 15.32 42.73 15.32 42.85 15.32L43.32 15.32L43.32 17.65L42.91 17.65ZM35.9 15.33C36.22 15.34 36.54 15.34 36.86 15.33C37.18 15.31 37.5 15.29 37.82 15.26C38.14 15.22 38.46 15.18 38.77 15.12C39.09 15.07 39.4 15 39.71 14.93C39.72 14.76 39.72 14.59 39.7 14.42C39.68 14.25 39.64 14.08 39.59 13.91C39.54 13.75 39.47 13.59 39.39 13.44C39.31 13.29 39.22 13.15 39.11 13.01C39.01 12.9 38.9 12.8 38.78 12.72C38.66 12.63 38.53 12.56 38.39 12.51C38.25 12.45 38.11 12.41 37.97 12.38C37.82 12.36 37.67 12.35 37.52 12.36C37.34 12.36 37.16 12.37 36.98 12.4C36.8 12.43 36.62 12.47 36.45 12.52C36.28 12.58 36.11 12.65 35.95 12.73C35.79 12.81 35.63 12.91 35.48 13.01C35.28 13.16 35.09 13.32 34.91 13.49C34.72 13.66 34.54 13.83 34.37 14.01C34.2 14.2 34.04 14.39 33.88 14.58C33.73 14.78 33.58 14.98 33.44 15.19C33.65 15.21 33.85 15.24 34.06 15.26C34.26 15.27 34.46 15.29 34.67 15.3C34.87 15.31 35.08 15.32 35.28 15.33C35.49 15.33 35.69 15.33 35.9 15.33L35.9 15.33Z" />
		<path id="Path_14" class="shp0" d="M47.56 7.05L49.05 8.33L47.82 9.72L46.32 8.5L47.56 7.05ZM43.32 17.65C43.18 17.65 43.06 17.54 42.95 17.31C42.9 17.18 42.87 17.04 42.84 16.91C42.81 16.77 42.8 16.63 42.8 16.49C42.8 16.35 42.81 16.21 42.84 16.07C42.87 15.93 42.9 15.79 42.95 15.66C43.05 15.43 43.18 15.32 43.32 15.32L43.94 15.32C44.44 15.33 44.95 15.33 45.45 15.32C45.96 15.3 46.46 15.28 46.96 15.25C47.47 15.21 47.97 15.16 48.47 15.11C48.98 15.05 49.48 14.98 49.98 14.9C48.34 13.35 47.23 12.57 46.65 12.57C46.59 12.57 46.54 12.57 46.48 12.58C46.43 12.58 46.38 12.59 46.33 12.61C46.27 12.62 46.22 12.64 46.17 12.66C46.12 12.69 46.08 12.71 46.03 12.74C45.98 12.79 45.92 12.83 45.88 12.88C45.83 12.93 45.78 12.99 45.74 13.04C45.69 13.1 45.65 13.15 45.61 13.21C45.58 13.27 45.54 13.33 45.51 13.4L44.07 12.85C44.12 12.68 44.19 12.51 44.26 12.35C44.34 12.19 44.42 12.03 44.52 11.88C44.61 11.73 44.71 11.58 44.83 11.44C44.94 11.3 45.06 11.17 45.19 11.05C45.29 10.96 45.41 10.87 45.53 10.8C45.65 10.73 45.78 10.67 45.91 10.62C46.05 10.58 46.18 10.54 46.32 10.52C46.46 10.5 46.6 10.49 46.75 10.49C47.57 10.49 48.64 11.06 49.96 12.2C50.19 12.4 50.77 12.92 51.7 13.77C51.82 13.9 51.95 14.01 52.08 14.13C52.21 14.24 52.34 14.35 52.48 14.46C52.62 14.57 52.76 14.67 52.9 14.77C53.05 14.86 53.19 14.96 53.34 15.04C53.46 15.09 53.59 15.14 53.71 15.18C53.84 15.22 53.97 15.25 54.1 15.27C54.22 15.29 54.35 15.31 54.49 15.32C54.62 15.33 54.75 15.33 54.88 15.32L55.12 15.32L55.12 17.65L54.78 17.65C54.51 17.67 54.24 17.65 53.97 17.61C53.7 17.57 53.44 17.51 53.18 17.42C52.92 17.33 52.68 17.21 52.44 17.08C52.21 16.94 51.98 16.78 51.78 16.6C51.11 16.78 50.43 16.94 49.75 17.07C49.07 17.2 48.39 17.32 47.7 17.4C47.01 17.49 46.32 17.56 45.63 17.6C44.94 17.64 44.24 17.66 43.55 17.65L43.32 17.65Z" />
		<path id="Path_15" class="shp0" d="M58.35 10.6L57.05 9.52L56.05 10.65L54.68 9.52L55.82 8.21L57.12 9.32L58.13 8.16L59.49 9.32L58.35 10.6ZM55.12 17.65C54.98 17.65 54.86 17.54 54.76 17.31C54.71 17.18 54.67 17.05 54.64 16.91C54.62 16.77 54.6 16.63 54.6 16.49C54.6 16.35 54.62 16.21 54.64 16.07C54.67 15.93 54.71 15.8 54.76 15.66C54.86 15.44 54.98 15.32 55.12 15.32L55.37 15.32C55.52 15.34 55.67 15.34 55.82 15.34C55.97 15.33 56.12 15.31 56.26 15.28C56.41 15.25 56.56 15.22 56.7 15.17C56.84 15.12 56.98 15.05 57.11 14.98C57.18 14.92 57.25 14.86 57.31 14.78C57.36 14.71 57.41 14.63 57.45 14.54C57.48 14.46 57.51 14.37 57.53 14.28C57.54 14.18 57.55 14.09 57.54 14L57.54 11.73L59.49 11.59L59.49 13.79C59.49 13.89 59.49 14 59.48 14.1C59.48 14.21 59.47 14.31 59.47 14.42C59.46 14.52 59.45 14.63 59.43 14.73C59.42 14.84 59.41 14.94 59.39 15.05C59.56 15.1 59.73 15.14 59.91 15.18C60.08 15.21 60.26 15.24 60.43 15.26C60.61 15.29 60.79 15.3 60.97 15.31C61.14 15.32 61.32 15.33 61.5 15.32L61.6 15.32L61.6 17.65L61.16 17.65C60.92 17.67 60.67 17.66 60.43 17.63C60.18 17.61 59.94 17.56 59.71 17.5C59.47 17.44 59.24 17.36 59.01 17.26C58.79 17.16 58.58 17.04 58.37 16.91C58.17 17.05 57.95 17.17 57.73 17.27C57.51 17.37 57.27 17.45 57.04 17.52C56.8 17.58 56.56 17.62 56.31 17.65C56.07 17.67 55.82 17.67 55.58 17.65L55.12 17.65Z" />
		<path id="Path_16" class="shp0" d="M61.6 17.65C61.46 17.65 61.34 17.53 61.23 17.31C61.18 17.18 61.15 17.04 61.12 16.9C61.09 16.76 61.08 16.62 61.08 16.48C61.08 16.34 61.09 16.2 61.12 16.06C61.15 15.93 61.18 15.79 61.23 15.66C61.34 15.43 61.46 15.32 61.6 15.32L61.73 15.32C61.88 15.32 62.02 15.32 62.17 15.31C62.32 15.3 62.47 15.29 62.61 15.28C62.76 15.26 62.9 15.24 63.05 15.22C63.2 15.2 63.34 15.17 63.48 15.14C63.53 14.46 63.55 13.59 63.55 12.52C63.55 10.98 63.53 8.84 63.5 6.1L65.58 5.92C65.59 8.76 65.59 10.84 65.59 12.18C65.59 13.41 65.57 14.37 65.52 15.05C65.51 15.21 65.5 15.36 65.48 15.52C65.46 15.67 65.44 15.83 65.41 15.98C65.38 16.13 65.35 16.29 65.31 16.44C65.28 16.59 65.23 16.74 65.19 16.89C65.06 16.95 64.94 17.01 64.81 17.06C64.69 17.11 64.56 17.16 64.43 17.21C64.3 17.25 64.16 17.29 64.03 17.33C63.9 17.36 63.76 17.39 63.63 17.42C63.47 17.46 63.31 17.49 63.15 17.52C62.99 17.55 62.83 17.57 62.67 17.59C62.51 17.61 62.35 17.62 62.18 17.63C62.02 17.64 61.86 17.65 61.7 17.65L61.6 17.65Z" />
		<path id="Path_17" class="shp0" d="M69.7 17.65L67.64 17.65L67.64 6.1L69.7 5.92L69.7 17.65Z" />
		<path id="Path_18" class="shp0" d="M80.08 21.17C79.77 21.19 79.47 21.19 79.16 21.15C78.86 21.12 78.56 21.06 78.27 20.97C77.98 20.89 77.69 20.77 77.42 20.64C77.15 20.5 76.89 20.34 76.64 20.16C76.44 19.98 76.26 19.77 76.11 19.56C75.95 19.34 75.82 19.1 75.72 18.85C75.61 18.6 75.54 18.34 75.49 18.08C75.45 17.81 75.43 17.54 75.45 17.28C75.46 16.93 75.49 16.58 75.54 16.23C75.59 15.89 75.66 15.55 75.75 15.21C75.84 14.88 75.95 14.54 76.08 14.22C76.21 13.9 76.36 13.58 76.52 13.28L78.14 13.92C78.05 14.14 77.97 14.36 77.89 14.58C77.82 14.8 77.76 15.03 77.7 15.26C77.65 15.49 77.61 15.72 77.58 15.95C77.54 16.19 77.52 16.42 77.51 16.66C77.51 18.19 78.51 18.96 80.51 18.96C82.3 18.96 83.42 18.45 83.89 17.44C83.65 17.4 83.42 17.35 83.18 17.3C82.95 17.25 82.72 17.2 82.49 17.14C82.25 17.08 82.02 17.01 81.79 16.94C81.57 16.88 81.34 16.8 81.11 16.72L81.53 14.69C81.91 14.79 82.29 14.88 82.67 14.96C83.05 15.03 83.43 15.1 83.82 15.15C84.2 15.2 84.59 15.24 84.98 15.27C85.37 15.3 85.76 15.31 86.14 15.32L86.39 15.32L86.39 17.65L86.18 17.65C85.92 17.65 85.72 17.64 85.59 17.63C85.54 17.89 85.47 18.15 85.37 18.39C85.26 18.64 85.14 18.88 84.99 19.1C84.84 19.32 84.67 19.52 84.47 19.71C84.28 19.89 84.07 20.06 83.85 20.2C83.57 20.37 83.27 20.53 82.97 20.65C82.67 20.78 82.35 20.89 82.04 20.97C81.72 21.05 81.39 21.11 81.06 21.15C80.73 21.18 80.4 21.19 80.07 21.17" />
		<path id="Path_19" class="shp0" d="M96.05 17.66C95.85 17.68 95.64 17.67 95.44 17.64C95.24 17.61 95.04 17.56 94.85 17.49C94.66 17.42 94.48 17.32 94.31 17.21C94.14 17.1 93.98 16.97 93.84 16.82C93.67 16.99 93.49 17.13 93.29 17.26C93.09 17.38 92.87 17.48 92.65 17.56C92.43 17.64 92.2 17.69 91.96 17.72C91.73 17.75 91.49 17.75 91.26 17.72C91.04 17.73 90.81 17.72 90.59 17.69C90.37 17.67 90.15 17.62 89.93 17.56C89.71 17.5 89.5 17.43 89.3 17.33C89.09 17.24 88.9 17.13 88.71 17.01C88.56 17.12 88.39 17.21 88.22 17.3C88.05 17.38 87.87 17.45 87.69 17.5C87.51 17.55 87.32 17.59 87.13 17.62C86.95 17.64 86.76 17.65 86.57 17.64L86.39 17.64C86.25 17.64 86.13 17.53 86.02 17.3C85.97 17.17 85.93 17.04 85.91 16.9C85.88 16.76 85.87 16.62 85.87 16.48C85.87 16.34 85.88 16.2 85.91 16.06C85.93 15.92 85.97 15.78 86.02 15.65C86.13 15.43 86.25 15.31 86.39 15.31L86.83 15.31C86.92 15.32 87.01 15.32 87.1 15.31C87.19 15.3 87.29 15.28 87.37 15.25C87.46 15.22 87.55 15.19 87.63 15.14C87.71 15.1 87.79 15.05 87.86 14.99C87.93 14.9 87.99 14.81 88.04 14.72C88.1 14.62 88.14 14.52 88.18 14.42C88.22 14.32 88.24 14.21 88.26 14.1C88.28 13.99 88.29 13.88 88.29 13.78L88.37 12.63L90.2 12.48L90.12 13.81C90.12 13.9 90.11 14 90.1 14.09C90.09 14.19 90.08 14.28 90.07 14.38C90.06 14.47 90.05 14.57 90.03 14.66C90.01 14.75 90 14.85 89.98 14.94C90.08 15 90.19 15.04 90.3 15.09C90.41 15.13 90.52 15.16 90.64 15.19C90.75 15.22 90.87 15.24 90.99 15.25C91.1 15.26 91.22 15.27 91.34 15.26C91.44 15.27 91.55 15.26 91.65 15.25C91.76 15.24 91.86 15.22 91.96 15.19C92.06 15.17 92.16 15.13 92.25 15.09C92.35 15.05 92.44 15 92.53 14.94C92.6 14.88 92.68 14.82 92.74 14.74C92.8 14.66 92.85 14.58 92.89 14.49C92.94 14.4 92.96 14.31 92.98 14.21C93 14.12 93 14.02 93 13.92L93 12.38L94.85 12.25L94.85 14.13C94.85 14.92 95.27 15.31 96.11 15.31C96.23 15.31 96.35 15.31 96.46 15.3C96.58 15.29 96.69 15.27 96.81 15.25C96.92 15.23 97.04 15.2 97.15 15.17C97.26 15.14 97.37 15.1 97.48 15.05C97.46 14.79 97.44 14.53 97.41 14.27C97.39 14 97.35 13.74 97.32 13.48C97.28 13.22 97.23 12.96 97.18 12.7C97.13 12.44 97.07 12.19 97.01 11.93L98.94 11.51C98.99 11.73 99.04 11.95 99.08 12.17C99.12 12.39 99.16 12.61 99.18 12.83C99.21 13.05 99.24 13.27 99.25 13.49C99.27 13.72 99.28 13.94 99.28 14.16C99.29 14.39 99.28 14.62 99.27 14.85C99.26 15.07 99.24 15.3 99.21 15.53C99.18 15.75 99.15 15.98 99.1 16.2C99.06 16.42 99 16.64 98.94 16.86C98.72 16.99 98.49 17.1 98.26 17.2C98.03 17.3 97.79 17.38 97.55 17.45C97.3 17.52 97.05 17.57 96.8 17.61C96.55 17.64 96.3 17.66 96.05 17.66Z" />
		<path id="Path_20" fill-rule="evenodd" class="shp0" d="M102.77 21.08C102.62 21.07 102.47 21.07 102.32 21.06C102.17 21.05 102.02 21.03 101.87 21.01C101.72 20.99 101.57 20.97 101.42 20.94C101.28 20.91 101.13 20.87 100.98 20.83L101.18 18.91C101.29 18.93 101.39 18.94 101.5 18.96C101.61 18.97 101.72 18.99 101.83 19C101.93 19.01 102.04 19.01 102.15 19.02C102.26 19.02 102.37 19.02 102.48 19.02C102.67 19.03 102.87 19.03 103.07 19.01C103.26 19 103.46 18.97 103.65 18.92C103.84 18.88 104.03 18.82 104.21 18.75C104.4 18.68 104.58 18.6 104.75 18.51C104.87 18.44 104.98 18.37 105.09 18.29C105.2 18.21 105.3 18.11 105.39 18.02C105.48 17.92 105.57 17.81 105.64 17.7C105.72 17.58 105.78 17.47 105.84 17.34C105.7 17.36 105.56 17.37 105.42 17.38C105.28 17.39 105.14 17.4 104.99 17.41C104.85 17.41 104.71 17.42 104.57 17.42C104.43 17.42 104.29 17.42 104.15 17.42C103.93 17.45 103.7 17.45 103.48 17.42C103.26 17.4 103.04 17.35 102.83 17.28C102.62 17.21 102.41 17.12 102.22 17.01C102.03 16.89 101.85 16.76 101.69 16.61C101.56 16.45 101.46 16.28 101.36 16.1C101.27 15.93 101.19 15.74 101.13 15.55C101.07 15.36 101.03 15.16 101 14.97C100.98 14.77 100.97 14.57 100.98 14.37C100.97 14.11 100.99 13.86 101.03 13.6C101.06 13.35 101.12 13.1 101.2 12.86C101.28 12.62 101.38 12.38 101.5 12.16C101.62 11.93 101.76 11.72 101.91 11.52C102.05 11.34 102.21 11.17 102.38 11.03C102.55 10.88 102.74 10.76 102.95 10.66C103.15 10.55 103.36 10.48 103.59 10.43C103.81 10.38 104.03 10.35 104.26 10.36C104.51 10.35 104.76 10.38 105 10.44C105.24 10.5 105.48 10.58 105.7 10.7C105.92 10.81 106.12 10.96 106.31 11.12C106.5 11.29 106.66 11.47 106.8 11.68C106.98 11.94 107.14 12.22 107.28 12.52C107.42 12.81 107.53 13.11 107.62 13.42C107.71 13.72 107.77 14.04 107.81 14.36C107.85 14.68 107.87 15 107.85 15.32L108.8 15.32L108.8 17.65L107.59 17.65C106.96 19.93 105.36 21.07 102.77 21.08M104.85 15.32L106.02 15.32C106.01 15.15 105.99 14.97 105.97 14.8C105.94 14.63 105.9 14.47 105.86 14.3C105.81 14.13 105.76 13.97 105.69 13.81C105.63 13.65 105.56 13.49 105.47 13.34C105.42 13.21 105.34 13.09 105.25 12.98C105.16 12.87 105.06 12.78 104.94 12.7C104.83 12.62 104.7 12.56 104.56 12.51C104.43 12.47 104.29 12.45 104.15 12.44C104.1 12.44 104.05 12.44 104 12.44C103.95 12.45 103.9 12.45 103.85 12.46C103.8 12.47 103.76 12.48 103.71 12.5C103.66 12.52 103.61 12.53 103.57 12.55C103.52 12.58 103.48 12.6 103.44 12.63C103.4 12.65 103.36 12.68 103.32 12.71C103.28 12.74 103.24 12.78 103.21 12.81C103.17 12.85 103.14 12.89 103.11 12.93C103.05 13.01 103 13.09 102.96 13.18C102.91 13.26 102.87 13.36 102.84 13.45C102.81 13.54 102.79 13.64 102.77 13.73C102.76 13.83 102.75 13.93 102.75 14.03C102.75 14.07 102.75 14.12 102.76 14.17C102.76 14.21 102.77 14.26 102.78 14.31C102.78 14.35 102.8 14.4 102.81 14.44C102.83 14.49 102.85 14.53 102.87 14.57C102.89 14.61 102.91 14.65 102.94 14.69C102.96 14.73 102.99 14.77 103.02 14.8C103.05 14.84 103.09 14.87 103.12 14.9C103.16 14.93 103.19 14.96 103.23 14.99C103.36 15.06 103.48 15.11 103.61 15.16C103.75 15.21 103.88 15.24 104.02 15.27C104.15 15.3 104.29 15.32 104.43 15.33C104.57 15.34 104.71 15.33 104.85 15.32L104.85 15.32Z" />
		<path id="Path_21" fill-rule="evenodd" class="shp0" d="M118.9 17.65C118.71 17.66 118.53 17.66 118.34 17.64C118.16 17.62 117.97 17.58 117.8 17.53C117.62 17.48 117.44 17.41 117.28 17.32C117.11 17.24 116.95 17.14 116.81 17.03C116.6 17.14 116.4 17.24 116.18 17.32C115.97 17.4 115.75 17.47 115.53 17.52C115.31 17.57 115.09 17.61 114.86 17.63C114.63 17.66 114.41 17.67 114.18 17.66C113.89 17.67 113.61 17.66 113.33 17.64C113.05 17.61 112.77 17.56 112.49 17.5C112.21 17.43 111.94 17.35 111.68 17.24C111.41 17.14 111.15 17.02 110.91 16.89C110.77 17.01 110.63 17.12 110.48 17.22C110.32 17.31 110.16 17.4 109.99 17.46C109.82 17.53 109.65 17.57 109.47 17.61C109.29 17.64 109.11 17.65 108.93 17.65L108.8 17.65C108.66 17.65 108.53 17.53 108.43 17.31C108.38 17.17 108.34 17.04 108.32 16.9C108.29 16.76 108.28 16.62 108.28 16.48C108.28 16.34 108.29 16.2 108.32 16.06C108.34 15.92 108.38 15.79 108.43 15.66C108.53 15.43 108.66 15.32 108.8 15.32L109.07 15.32C109.18 15.32 109.29 15.31 109.39 15.29C109.5 15.27 109.6 15.23 109.7 15.18C109.79 15.13 109.88 15.07 109.96 15C110.04 14.92 110.11 14.84 110.17 14.75C110.21 14.7 110.24 14.66 110.28 14.61C110.31 14.57 110.34 14.52 110.37 14.47C110.4 14.42 110.43 14.37 110.46 14.32C110.49 14.28 110.52 14.23 110.55 14.17L110.97 13.36L111 13.3L111.04 13.21C111.06 13.18 111.08 13.15 111.09 13.12C111.18 12.95 111.27 12.78 111.37 12.61C111.46 12.45 111.57 12.29 111.68 12.13C111.8 11.98 111.92 11.83 112.04 11.68C112.17 11.54 112.31 11.4 112.45 11.27C112.58 11.16 112.73 11.06 112.88 10.98C113.04 10.9 113.2 10.83 113.37 10.78C113.53 10.72 113.7 10.68 113.88 10.66C114.05 10.64 114.23 10.63 114.4 10.64C115.89 10.64 116.89 11.69 117.4 13.8C117.42 13.91 117.44 14.02 117.47 14.13C117.5 14.23 117.53 14.34 117.58 14.44C117.62 14.55 117.67 14.65 117.73 14.75C117.78 14.84 117.84 14.94 117.91 15.03C117.99 15.08 118.08 15.13 118.16 15.17C118.25 15.22 118.34 15.25 118.44 15.27C118.53 15.3 118.63 15.31 118.72 15.32C118.82 15.33 118.92 15.33 119.01 15.32L119.37 15.32L119.37 17.65L118.9 17.65ZM114.41 15.53C114.53 15.53 114.66 15.53 114.79 15.52C114.91 15.51 115.04 15.5 115.16 15.48C115.29 15.45 115.41 15.43 115.54 15.4C115.66 15.37 115.78 15.33 115.9 15.29C115.87 15.12 115.83 14.95 115.78 14.78C115.74 14.61 115.69 14.44 115.63 14.28C115.58 14.11 115.52 13.95 115.45 13.79C115.39 13.63 115.32 13.47 115.24 13.31C115.2 13.22 115.14 13.14 115.08 13.07C115.01 13 114.93 12.94 114.85 12.89C114.77 12.84 114.68 12.8 114.58 12.78C114.49 12.75 114.39 12.74 114.29 12.75C114.2 12.74 114.11 12.75 114.02 12.77C113.93 12.79 113.84 12.81 113.75 12.85C113.67 12.88 113.58 12.92 113.51 12.98C113.43 13.03 113.36 13.09 113.29 13.15C113.19 13.28 113.08 13.41 112.98 13.54C112.88 13.68 112.79 13.82 112.7 13.96C112.61 14.1 112.53 14.24 112.45 14.39C112.37 14.54 112.3 14.69 112.23 14.84L112.08 15.13C112.27 15.2 112.45 15.26 112.64 15.31C112.84 15.36 113.03 15.4 113.22 15.43C113.42 15.47 113.62 15.49 113.81 15.51C114.01 15.52 114.21 15.53 114.41 15.53L114.41 15.53Z" />
		<path id="Path_22" class="shp0" d="M119.38 17.65C119.24 17.65 119.12 17.53 119.01 17.31C118.96 17.18 118.92 17.04 118.9 16.9C118.87 16.76 118.86 16.62 118.86 16.48C118.86 16.34 118.87 16.2 118.9 16.06C118.92 15.93 118.96 15.79 119.01 15.66C119.12 15.43 119.24 15.32 119.38 15.32L119.51 15.32C119.66 15.32 119.8 15.32 119.95 15.31C120.1 15.3 120.24 15.29 120.39 15.28C120.54 15.26 120.68 15.24 120.83 15.22C120.97 15.2 121.12 15.17 121.26 15.14C121.3 14.46 121.33 13.59 121.33 12.52C121.33 10.98 121.31 8.84 121.28 6.1L123.36 5.92C123.37 8.76 123.37 10.84 123.37 12.18C123.37 13.41 123.35 14.37 123.3 15.05C123.29 15.21 123.28 15.36 123.26 15.52C123.24 15.67 123.22 15.83 123.19 15.98C123.16 16.13 123.13 16.29 123.09 16.44C123.05 16.59 123.01 16.74 122.97 16.89C122.84 16.95 122.72 17.01 122.59 17.06C122.46 17.11 122.33 17.16 122.2 17.21C122.07 17.25 121.94 17.29 121.81 17.33C121.68 17.36 121.54 17.39 121.41 17.42C121.25 17.46 121.09 17.49 120.93 17.52C120.77 17.55 120.61 17.57 120.45 17.59C120.29 17.61 120.13 17.62 119.96 17.63C119.8 17.64 119.64 17.65 119.48 17.65L119.38 17.65Z" />
		<path id="Path_23" class="shp0" d="M127.48 17.65L125.42 17.65L125.42 6.1L127.48 5.92L127.48 17.65Z" />
		<path id="Path_24" class="shp0" d="M147.51 39.04L147.51 33.73L141.39 33.73L141.39 39.04L140.23 39.04L140.23 27.75L141.39 27.75L141.39 32.73L147.51 32.73L147.51 27.75L148.68 27.75L148.68 39.04L147.51 39.04Z" />
		<path id="Path_25" fill-rule="evenodd" class="shp0" d="M157.55 31.88C157.86 32.33 158.11 32.83 158.27 33.36C158.44 33.88 158.52 34.43 158.52 34.98C158.52 35.53 158.44 36.08 158.27 36.6C158.11 37.13 157.86 37.62 157.55 38.07C157.2 38.44 156.78 38.73 156.31 38.93C155.85 39.13 155.35 39.24 154.84 39.24C154.33 39.24 153.83 39.13 153.37 38.93C152.9 38.73 152.48 38.44 152.13 38.07C151.82 37.62 151.57 37.13 151.4 36.6C151.24 36.08 151.15 35.53 151.15 34.98C151.15 34.43 151.24 33.88 151.4 33.35C151.57 32.83 151.82 32.33 152.13 31.88C152.48 31.51 152.9 31.22 153.37 31.02C153.83 30.82 154.33 30.72 154.84 30.72C155.35 30.72 155.85 30.82 156.31 31.02C156.78 31.22 157.2 31.51 157.55 31.88ZM152.48 33.74C152.37 34.14 152.32 34.56 152.32 34.98C152.32 35.4 152.37 35.81 152.48 36.22C152.59 36.62 152.75 37.01 152.96 37.37C153.19 37.65 153.48 37.87 153.8 38.02C154.13 38.17 154.48 38.25 154.84 38.25C155.2 38.25 155.55 38.17 155.88 38.02C156.2 37.87 156.49 37.65 156.72 37.38C156.93 37.01 157.09 36.62 157.19 36.22C157.3 35.81 157.35 35.4 157.35 34.98C157.35 34.56 157.3 34.14 157.19 33.73C157.09 33.33 156.93 32.94 156.72 32.57C156.49 32.3 156.2 32.08 155.88 31.93C155.55 31.78 155.2 31.7 154.84 31.7C154.48 31.7 154.13 31.78 153.8 31.93C153.48 32.09 153.19 32.31 152.96 32.58C152.75 32.94 152.59 33.33 152.48 33.74Z" />
		<path id="Path_26" class="shp0" d="M165.3 31.12L165.14 32.08C164.97 32.02 164.8 31.97 164.63 31.92C164.46 31.88 164.29 31.84 164.12 31.81C163.94 31.78 163.77 31.75 163.59 31.74C163.42 31.72 163.24 31.71 163.07 31.7C161.91 31.7 161.33 32.13 161.33 32.99C161.33 33.04 161.33 33.09 161.34 33.14C161.34 33.19 161.35 33.24 161.36 33.29C161.37 33.34 161.38 33.39 161.4 33.44C161.42 33.48 161.43 33.53 161.46 33.58C161.48 33.62 161.51 33.66 161.54 33.7C161.57 33.74 161.6 33.78 161.63 33.81C161.67 33.85 161.71 33.88 161.75 33.91C161.79 33.94 161.83 33.96 161.88 33.99C161.92 34.01 161.96 34.04 162.01 34.06C162.05 34.08 162.09 34.11 162.14 34.13C162.18 34.15 162.23 34.17 162.27 34.19C162.32 34.21 162.36 34.23 162.41 34.25C162.57 34.32 162.8 34.4 163.11 34.49C163.29 34.54 163.48 34.6 163.66 34.66C163.84 34.73 164.01 34.8 164.19 34.88C164.36 34.96 164.53 35.04 164.7 35.14C164.86 35.23 165.03 35.34 165.18 35.45C165.29 35.54 165.39 35.64 165.47 35.75C165.56 35.86 165.63 35.98 165.68 36.11C165.74 36.24 165.78 36.37 165.81 36.51C165.83 36.65 165.84 36.79 165.83 36.93C165.84 37.1 165.83 37.26 165.8 37.43C165.77 37.59 165.71 37.75 165.64 37.9C165.57 38.05 165.48 38.19 165.37 38.32C165.26 38.45 165.14 38.56 165 38.66C164.84 38.76 164.68 38.85 164.5 38.93C164.33 39 164.15 39.07 163.96 39.11C163.78 39.16 163.59 39.2 163.4 39.22C163.22 39.24 163.02 39.25 162.84 39.24C162.71 39.24 162.58 39.23 162.45 39.23C162.33 39.22 162.2 39.21 162.07 39.2C161.95 39.18 161.82 39.17 161.69 39.15C161.57 39.13 161.44 39.11 161.32 39.08C161.22 39.07 161.12 39.05 161.02 39.02C160.91 39 160.81 38.98 160.72 38.95C160.62 38.92 160.52 38.89 160.42 38.86C160.32 38.82 160.22 38.79 160.13 38.75L160.32 37.78C160.52 37.86 160.72 37.93 160.93 37.98C161.13 38.04 161.34 38.09 161.55 38.13C161.76 38.17 161.97 38.2 162.18 38.22C162.39 38.24 162.6 38.25 162.82 38.25C162.94 38.26 163.06 38.26 163.18 38.25C163.3 38.23 163.41 38.21 163.53 38.19C163.65 38.16 163.76 38.12 163.87 38.07C163.98 38.03 164.09 37.97 164.19 37.91C164.27 37.86 164.34 37.8 164.41 37.73C164.47 37.66 164.53 37.58 164.57 37.5C164.61 37.41 164.65 37.32 164.67 37.23C164.69 37.14 164.7 37.04 164.69 36.95C164.69 36.86 164.69 36.77 164.67 36.68C164.65 36.59 164.61 36.51 164.57 36.43C164.53 36.35 164.48 36.28 164.41 36.22C164.35 36.15 164.28 36.1 164.21 36.05C164.08 35.98 163.94 35.91 163.81 35.84C163.67 35.78 163.53 35.72 163.39 35.66C163.26 35.61 163.11 35.56 162.97 35.51C162.83 35.46 162.68 35.42 162.54 35.38C162.38 35.34 162.22 35.29 162.07 35.23C161.92 35.18 161.77 35.11 161.62 35.04C161.47 34.97 161.33 34.89 161.19 34.8C161.05 34.71 160.92 34.62 160.79 34.52C160.69 34.42 160.59 34.32 160.51 34.2C160.43 34.09 160.36 33.96 160.31 33.83C160.26 33.7 160.22 33.57 160.2 33.43C160.17 33.29 160.17 33.15 160.18 33.01C160.17 32.85 160.18 32.69 160.2 32.53C160.23 32.37 160.28 32.22 160.34 32.07C160.41 31.92 160.49 31.78 160.58 31.66C160.68 31.53 160.79 31.41 160.91 31.31C161.06 31.2 161.22 31.11 161.39 31.03C161.55 30.95 161.73 30.89 161.9 30.84C162.08 30.79 162.26 30.75 162.44 30.73C162.62 30.71 162.81 30.71 162.99 30.72C163.19 30.71 163.38 30.72 163.58 30.73C163.77 30.75 163.97 30.77 164.16 30.81C164.35 30.84 164.55 30.88 164.73 30.94C164.92 30.99 165.11 31.05 165.29 31.12" />
		<path id="Path_27" fill-rule="evenodd" class="shp0" d="M170.9 30.72C171.16 30.7 171.42 30.71 171.68 30.75C171.94 30.79 172.19 30.86 172.43 30.95C172.68 31.05 172.91 31.17 173.13 31.31C173.34 31.46 173.54 31.63 173.73 31.82C173.89 32.02 174.04 32.24 174.17 32.47C174.3 32.71 174.41 32.95 174.49 33.21C174.58 33.46 174.64 33.72 174.67 33.98C174.71 34.25 174.72 34.51 174.7 34.78C174.72 35.06 174.71 35.35 174.67 35.64C174.64 35.92 174.58 36.2 174.5 36.48C174.42 36.75 174.31 37.02 174.18 37.27C174.05 37.53 173.9 37.77 173.73 38C173.56 38.21 173.36 38.4 173.14 38.56C172.92 38.72 172.68 38.85 172.43 38.95C172.18 39.06 171.91 39.13 171.64 39.18C171.38 39.22 171.1 39.23 170.83 39.21C170.67 39.22 170.51 39.21 170.35 39.19C170.19 39.18 170.04 39.15 169.88 39.12C169.72 39.09 169.57 39.04 169.42 38.99C169.26 38.94 169.12 38.88 168.97 38.81L168.97 42.02L167.84 42.02L167.84 31.48C168.07 31.35 168.32 31.24 168.56 31.15C168.81 31.06 169.06 30.98 169.32 30.91C169.58 30.85 169.84 30.8 170.1 30.77C170.37 30.74 170.63 30.72 170.9 30.72M168.98 37.8C169.11 37.87 169.25 37.94 169.39 37.99C169.53 38.05 169.68 38.09 169.82 38.13C169.97 38.17 170.12 38.2 170.27 38.22C170.42 38.24 170.57 38.25 170.72 38.25C170.92 38.26 171.12 38.25 171.31 38.22C171.5 38.19 171.69 38.13 171.87 38.06C172.05 37.98 172.23 37.88 172.38 37.77C172.54 37.65 172.69 37.51 172.81 37.37C172.94 37.18 173.06 36.98 173.15 36.78C173.25 36.57 173.33 36.36 173.39 36.14C173.45 35.93 173.49 35.7 173.51 35.48C173.54 35.25 173.54 35.03 173.53 34.8C173.53 34.6 173.53 34.4 173.5 34.21C173.48 34.01 173.44 33.82 173.38 33.63C173.32 33.44 173.25 33.25 173.17 33.07C173.08 32.9 172.98 32.73 172.86 32.57C172.74 32.42 172.6 32.29 172.45 32.17C172.3 32.06 172.14 31.96 171.96 31.89C171.79 31.82 171.61 31.76 171.42 31.73C171.23 31.7 171.04 31.69 170.86 31.7C170.69 31.7 170.53 31.71 170.37 31.73C170.2 31.74 170.04 31.77 169.88 31.81C169.73 31.85 169.57 31.9 169.42 31.96C169.27 32.02 169.12 32.09 168.98 32.17L168.98 37.8Z" />
		<path id="Path_28" class="shp0" d="M178.24 39.04L177.1 39.04L177.1 30.91L178.23 30.91L178.24 39.04ZM178.23 29C178.15 29.07 178.06 29.12 177.97 29.16C177.87 29.2 177.77 29.22 177.67 29.22C177.57 29.22 177.47 29.2 177.37 29.16C177.27 29.12 177.19 29.07 177.11 29C177.08 28.96 177.05 28.92 177.02 28.88C177 28.83 176.97 28.79 176.96 28.74C176.94 28.69 176.93 28.64 176.92 28.6C176.91 28.55 176.91 28.49 176.91 28.44C176.92 28.25 177 28.06 177.14 27.92C177.29 27.79 177.47 27.71 177.67 27.71C177.87 27.71 178.06 27.79 178.2 27.92C178.34 28.06 178.42 28.25 178.43 28.44C178.43 28.49 178.43 28.55 178.42 28.6C178.41 28.65 178.4 28.69 178.38 28.74C178.37 28.79 178.34 28.84 178.32 28.88C178.29 28.92 178.26 28.96 178.23 29L178.23 29Z" />
		<path id="Path_29" class="shp0" d="M184.89 39.08C184.79 39.1 184.69 39.13 184.59 39.15C184.49 39.17 184.39 39.18 184.29 39.2C184.19 39.21 184.08 39.22 183.98 39.23C183.88 39.23 183.78 39.24 183.67 39.24C182.09 39.24 181.3 38.38 181.3 36.66L181.3 31.87L180.06 31.87L180.06 30.91L181.3 30.91L181.3 29L182.43 28.92L182.43 30.92L184.63 30.92L184.63 31.87L182.43 31.87L182.43 36.66C182.42 36.77 182.42 36.87 182.43 36.98C182.44 37.09 182.46 37.2 182.49 37.3C182.52 37.41 182.56 37.51 182.61 37.61C182.66 37.7 182.72 37.8 182.78 37.88C182.85 37.95 182.93 38.01 183.01 38.06C183.09 38.11 183.18 38.15 183.27 38.18C183.36 38.21 183.45 38.23 183.54 38.25C183.64 38.26 183.73 38.26 183.83 38.25C183.91 38.26 183.99 38.25 184.08 38.25C184.16 38.24 184.24 38.24 184.33 38.22C184.41 38.21 184.49 38.2 184.57 38.18C184.65 38.17 184.73 38.15 184.81 38.13L184.89 39.08Z" />
		<path id="Path_30" fill-rule="evenodd" class="shp0" d="M192.29 38.48C192.04 38.61 191.8 38.72 191.54 38.82C191.29 38.92 191.02 39 190.76 39.07C190.49 39.13 190.22 39.18 189.95 39.2C189.68 39.23 189.4 39.24 189.13 39.23C188.93 39.24 188.73 39.24 188.53 39.22C188.33 39.2 188.13 39.16 187.94 39.1C187.75 39.05 187.56 38.97 187.38 38.89C187.2 38.8 187.02 38.7 186.86 38.58C186.8 38.53 186.74 38.47 186.68 38.41C186.62 38.35 186.57 38.29 186.52 38.23C186.47 38.16 186.42 38.09 186.38 38.02C186.33 37.95 186.3 37.88 186.26 37.8C186.23 37.73 186.2 37.65 186.17 37.57C186.15 37.5 186.13 37.42 186.11 37.34C186.09 37.26 186.08 37.17 186.08 37.09C186.07 37.01 186.07 36.93 186.07 36.84C186.06 36.76 186.06 36.67 186.07 36.58C186.08 36.49 186.09 36.4 186.1 36.31C186.12 36.23 186.14 36.14 186.17 36.06C186.2 35.97 186.23 35.89 186.27 35.81C186.31 35.73 186.35 35.65 186.4 35.57C186.45 35.5 186.5 35.43 186.56 35.36C186.61 35.29 186.68 35.23 186.74 35.17C186.81 35.11 186.88 35.05 186.95 35C187.12 34.89 187.29 34.8 187.47 34.72C187.66 34.64 187.84 34.57 188.03 34.52C188.23 34.46 188.42 34.43 188.62 34.4C188.82 34.38 189.02 34.37 189.22 34.38C189.38 34.38 189.54 34.38 189.71 34.39C189.87 34.4 190.04 34.42 190.2 34.44C190.36 34.45 190.53 34.48 190.69 34.51C190.85 34.53 191.01 34.57 191.17 34.6L191.17 33.67C191.17 32.36 190.47 31.7 189.05 31.7C188.87 31.7 188.68 31.7 188.49 31.72C188.31 31.74 188.12 31.76 187.94 31.8C187.75 31.83 187.57 31.88 187.39 31.93C187.22 31.98 187.04 32.05 186.87 32.12L186.61 31.18C186.81 31.1 187.01 31.03 187.22 30.97C187.43 30.91 187.64 30.86 187.85 30.82C188.06 30.78 188.27 30.75 188.49 30.73C188.7 30.72 188.92 30.71 189.13 30.71C189.35 30.7 189.56 30.7 189.77 30.73C189.98 30.75 190.19 30.8 190.39 30.87C190.59 30.93 190.79 31.02 190.97 31.12C191.16 31.22 191.33 31.34 191.5 31.48C191.64 31.63 191.76 31.79 191.87 31.97C191.97 32.14 192.06 32.32 192.13 32.52C192.19 32.71 192.24 32.91 192.27 33.11C192.3 33.31 192.3 33.51 192.29 33.72L192.29 38.48ZM189.23 38.33C189.4 38.34 189.56 38.34 189.73 38.32C189.9 38.31 190.07 38.28 190.23 38.24C190.39 38.2 190.56 38.15 190.71 38.09C190.87 38.03 191.02 37.96 191.17 37.88L191.17 35.43C191.02 35.39 190.87 35.36 190.71 35.34C190.56 35.31 190.41 35.29 190.25 35.27C190.1 35.25 189.94 35.23 189.79 35.22C189.64 35.21 189.48 35.21 189.32 35.2C187.91 35.2 187.2 35.74 187.2 36.81C187.2 36.92 187.2 37.03 187.23 37.14C187.25 37.24 187.28 37.35 187.32 37.45C187.37 37.54 187.43 37.64 187.5 37.72C187.56 37.8 187.64 37.88 187.73 37.94C187.84 38.01 187.95 38.08 188.08 38.13C188.2 38.18 188.32 38.22 188.45 38.26C188.57 38.29 188.7 38.31 188.83 38.32C188.97 38.34 189.1 38.34 189.23 38.33Z" />
		<path id="Path_31" class="shp0" d="M196.17 27.36L196.17 36.73C196.16 36.83 196.16 36.94 196.17 37.04C196.18 37.14 196.19 37.23 196.21 37.33C196.23 37.43 196.26 37.53 196.29 37.62C196.33 37.72 196.37 37.81 196.41 37.9C196.46 37.96 196.52 38.02 196.58 38.07C196.64 38.12 196.71 38.16 196.79 38.19C196.86 38.23 196.94 38.25 197.02 38.26C197.1 38.27 197.18 38.28 197.26 38.27C197.3 38.27 197.33 38.26 197.37 38.26C197.41 38.26 197.45 38.25 197.49 38.25C197.53 38.25 197.57 38.24 197.61 38.24C197.65 38.23 197.69 38.23 197.73 38.22L197.83 39.14C197.77 39.15 197.71 39.17 197.65 39.18C197.59 39.19 197.53 39.2 197.46 39.21C197.4 39.22 197.34 39.22 197.28 39.23C197.22 39.23 197.16 39.24 197.1 39.24C195.73 39.24 195.04 38.41 195.04 36.75L195.04 27.45L196.17 27.36Z" />
		<path id="Path_32" class="shp1" d="M222.81 48L220.86 48L220.86 20.79L222.81 20.79L222.81 48Z" />
		<path id="Path_33" class="shp0" d="M137.85 21.18C137.55 21.2 137.24 21.19 136.94 21.16C136.64 21.12 136.34 21.06 136.04 20.97C135.75 20.89 135.47 20.78 135.2 20.64C134.92 20.5 134.66 20.34 134.42 20.16C134.22 19.98 134.04 19.78 133.88 19.56C133.73 19.34 133.6 19.1 133.49 18.85C133.39 18.61 133.32 18.35 133.27 18.08C133.23 17.82 133.21 17.55 133.23 17.28C133.24 16.93 133.27 16.58 133.32 16.24C133.37 15.89 133.44 15.55 133.53 15.22C133.62 14.88 133.73 14.55 133.86 14.22C133.98 13.9 134.13 13.58 134.3 13.28L135.92 13.92C135.83 14.14 135.74 14.36 135.67 14.58C135.6 14.81 135.53 15.03 135.48 15.26C135.43 15.49 135.38 15.72 135.35 15.96C135.32 16.19 135.3 16.42 135.29 16.66C135.29 18.19 136.29 18.96 138.29 18.96C140.07 18.96 141.2 18.45 141.66 17.44C141.43 17.4 141.19 17.35 140.96 17.3C140.73 17.25 140.49 17.2 140.26 17.14C140.03 17.08 139.8 17.02 139.57 16.95C139.34 16.88 139.11 16.8 138.89 16.73L139.31 14.69C139.69 14.79 140.06 14.88 140.45 14.96C140.83 15.04 141.21 15.1 141.6 15.15C141.98 15.21 142.37 15.25 142.76 15.27C143.14 15.3 143.53 15.32 143.92 15.32L144.16 15.32L144.16 17.65L143.95 17.65C143.69 17.65 143.5 17.64 143.37 17.63C143.32 17.89 143.24 18.15 143.14 18.4C143.04 18.64 142.91 18.88 142.76 19.1C142.61 19.32 142.44 19.52 142.25 19.71C142.06 19.9 141.85 20.06 141.62 20.2C141.34 20.38 141.05 20.53 140.75 20.66C140.44 20.79 140.13 20.89 139.81 20.97C139.49 21.06 139.17 21.11 138.84 21.15C138.51 21.18 138.18 21.19 137.85 21.17" />
		<path id="Path_34" fill-rule="evenodd" class="shp0" d="M148.39 6.13L149.88 7.41L148.65 8.8L147.16 7.57L148.39 6.13ZM144.17 17.65C144.03 17.65 143.91 17.54 143.8 17.31C143.75 17.18 143.71 17.04 143.69 16.91C143.66 16.77 143.65 16.63 143.65 16.49C143.65 16.35 143.66 16.2 143.69 16.07C143.71 15.93 143.75 15.79 143.8 15.66C143.9 15.43 144.03 15.32 144.17 15.32L144.58 15.32C144.72 15.32 144.86 15.32 145 15.31C145.13 15.31 145.27 15.3 145.41 15.29C145.55 15.28 145.69 15.27 145.83 15.26C145.97 15.24 146.11 15.23 146.25 15.21C146.1 15.05 145.96 14.88 145.84 14.69C145.72 14.51 145.62 14.32 145.54 14.11C145.46 13.91 145.4 13.7 145.36 13.48C145.32 13.27 145.3 13.05 145.31 12.83C145.29 12.6 145.3 12.37 145.34 12.15C145.37 11.92 145.43 11.7 145.51 11.49C145.59 11.27 145.7 11.07 145.83 10.88C145.95 10.69 146.1 10.51 146.26 10.36C146.43 10.21 146.6 10.09 146.78 9.98C146.97 9.87 147.17 9.77 147.37 9.7C147.57 9.63 147.78 9.57 147.99 9.54C148.2 9.51 148.42 9.49 148.63 9.5C148.84 9.49 149.05 9.51 149.26 9.54C149.47 9.57 149.67 9.63 149.87 9.7C150.06 9.77 150.25 9.86 150.43 9.97C150.61 10.07 150.78 10.2 150.94 10.34C151.09 10.48 151.23 10.65 151.35 10.82C151.47 11 151.58 11.19 151.66 11.38C151.74 11.58 151.8 11.79 151.83 12C151.87 12.21 151.88 12.42 151.87 12.64C151.87 12.88 151.85 13.12 151.8 13.35C151.75 13.59 151.68 13.82 151.59 14.04C151.5 14.26 151.38 14.47 151.25 14.66C151.11 14.86 150.95 15.04 150.78 15.21C150.93 15.23 151.08 15.24 151.22 15.26C151.37 15.27 151.52 15.28 151.67 15.29C151.82 15.3 151.97 15.31 152.12 15.31C152.27 15.32 152.42 15.32 152.56 15.32L153.09 15.32L153.09 17.65L152.13 17.65C151.8 17.67 151.48 17.66 151.16 17.64C150.83 17.62 150.51 17.58 150.19 17.52C149.87 17.47 149.56 17.39 149.24 17.3C148.93 17.21 148.63 17.1 148.33 16.97C148.03 17.09 147.72 17.19 147.41 17.28C147.1 17.36 146.78 17.44 146.46 17.49C146.14 17.55 145.82 17.59 145.5 17.62C145.18 17.65 144.85 17.66 144.53 17.65L144.17 17.65ZM146.96 12.84C146.96 13.6 147.47 14.26 148.49 14.82C149.58 14.32 150.13 13.74 150.13 13.07C150.13 12.97 150.12 12.87 150.1 12.77C150.08 12.67 150.05 12.58 150.01 12.49C149.97 12.39 149.92 12.31 149.86 12.23C149.8 12.15 149.73 12.07 149.66 12C149.57 11.93 149.48 11.87 149.39 11.82C149.3 11.76 149.2 11.72 149.09 11.68C148.99 11.65 148.89 11.62 148.78 11.6C148.67 11.59 148.56 11.58 148.46 11.58C148.36 11.58 148.26 11.59 148.17 11.6C148.07 11.62 147.98 11.64 147.89 11.67C147.8 11.7 147.71 11.74 147.63 11.79C147.54 11.84 147.47 11.89 147.39 11.96C147.33 12.01 147.26 12.07 147.21 12.14C147.16 12.2 147.11 12.28 147.08 12.35C147.04 12.43 147.01 12.51 146.99 12.59C146.97 12.68 146.96 12.76 146.96 12.85L146.96 12.84Z" />
		<path id="Path_35" class="shp0" d="M160.22 6.83L161.47 7.88L160.45 9.04L159.2 8.03L160.22 6.83ZM161.77 11.05L160.48 10L159.46 11.15L158.13 10.05L159.23 8.76L160.51 9.86L161.54 8.66L162.88 9.8L161.77 11.05ZM162.71 17.71C162.51 17.73 162.3 17.72 162.1 17.69C161.9 17.66 161.71 17.6 161.52 17.53C161.33 17.45 161.15 17.36 160.99 17.24C160.82 17.13 160.67 16.99 160.53 16.84C160.36 17.01 160.18 17.15 159.98 17.27C159.78 17.4 159.56 17.5 159.34 17.57C159.12 17.65 158.89 17.7 158.65 17.73C158.42 17.76 158.18 17.76 157.95 17.73C157.73 17.74 157.5 17.73 157.28 17.71C157.06 17.68 156.84 17.64 156.62 17.58C156.41 17.51 156.19 17.44 155.99 17.35C155.79 17.25 155.59 17.14 155.4 17.02C155.25 17.13 155.08 17.23 154.91 17.31C154.74 17.39 154.56 17.46 154.38 17.51C154.2 17.56 154.01 17.6 153.83 17.63C153.64 17.65 153.45 17.66 153.26 17.65L153.08 17.65C152.94 17.65 152.82 17.54 152.71 17.31C152.66 17.18 152.63 17.04 152.6 16.91C152.57 16.77 152.56 16.63 152.56 16.49C152.56 16.35 152.57 16.21 152.6 16.07C152.63 15.93 152.66 15.79 152.71 15.66C152.82 15.43 152.94 15.32 153.08 15.32L153.52 15.32C153.61 15.33 153.7 15.33 153.8 15.32C153.89 15.31 153.98 15.29 154.07 15.26C154.15 15.23 154.24 15.2 154.32 15.15C154.4 15.11 154.48 15.06 154.55 15C154.62 14.92 154.68 14.83 154.74 14.73C154.79 14.63 154.84 14.53 154.87 14.43C154.91 14.33 154.94 14.22 154.95 14.11C154.97 14.01 154.98 13.9 154.98 13.79L155.06 12.62L156.9 12.49L156.81 13.82C156.81 13.91 156.8 14.01 156.79 14.1C156.79 14.2 156.78 14.29 156.76 14.39C156.75 14.48 156.74 14.58 156.72 14.67C156.71 14.77 156.69 14.86 156.67 14.95C156.77 15.01 156.88 15.06 156.99 15.1C157.1 15.14 157.21 15.17 157.32 15.2C157.44 15.23 157.55 15.25 157.67 15.26C157.78 15.27 157.9 15.28 158.02 15.27C158.12 15.28 158.23 15.27 158.33 15.26C158.44 15.25 158.54 15.23 158.64 15.2C158.74 15.17 158.84 15.14 158.94 15.1C159.04 15.05 159.13 15 159.22 14.94C159.29 14.89 159.37 14.82 159.43 14.74C159.49 14.67 159.54 14.59 159.58 14.5C159.62 14.41 159.65 14.32 159.67 14.22C159.69 14.13 159.69 14.03 159.69 13.93L159.69 12.41L161.54 12.3L161.54 14.14C161.54 14.93 161.96 15.32 162.8 15.32C163.65 15.32 164.07 14.96 164.07 14.24L164.07 12.17L165.91 12L165.91 14.2C165.91 14.27 165.9 14.34 165.9 14.41C165.9 14.49 165.9 14.56 165.89 14.63C165.89 14.7 165.88 14.77 165.88 14.84C165.87 14.91 165.86 14.98 165.86 15.05C166 15.1 166.14 15.15 166.29 15.19C166.43 15.23 166.58 15.26 166.73 15.29C166.88 15.31 167.03 15.32 167.19 15.33C167.34 15.34 167.49 15.33 167.64 15.32L167.85 15.32L167.85 17.65L167.53 17.65C167.31 17.65 167.09 17.64 166.87 17.61C166.65 17.58 166.43 17.53 166.22 17.47C166 17.41 165.8 17.33 165.59 17.24C165.39 17.15 165.2 17.04 165.01 16.92C164.86 17.06 164.69 17.18 164.51 17.29C164.33 17.39 164.14 17.48 163.94 17.55C163.74 17.62 163.54 17.66 163.33 17.69C163.13 17.72 162.92 17.73 162.71 17.71" />
		<path id="Path_36" class="shp0" d="M171.08 10.6L169.78 9.52L168.78 10.65L167.41 9.52L168.55 8.21L169.85 9.32L170.86 8.16L172.22 9.32L171.08 10.6ZM167.85 17.65C167.71 17.65 167.59 17.54 167.49 17.31C167.44 17.18 167.4 17.05 167.37 16.91C167.35 16.77 167.33 16.63 167.33 16.49C167.33 16.35 167.35 16.21 167.37 16.07C167.4 15.93 167.44 15.79 167.49 15.66C167.59 15.44 167.71 15.32 167.85 15.32L168.1 15.32C168.25 15.34 168.4 15.34 168.55 15.34C168.7 15.33 168.85 15.31 169 15.28C169.14 15.25 169.29 15.21 169.43 15.16C169.57 15.11 169.71 15.05 169.84 14.98C169.88 14.95 169.91 14.92 169.95 14.89C169.98 14.86 170.01 14.82 170.04 14.78C170.06 14.75 170.09 14.71 170.11 14.67C170.14 14.63 170.16 14.58 170.18 14.54C170.2 14.5 170.21 14.45 170.23 14.41C170.24 14.37 170.25 14.32 170.26 14.27C170.27 14.23 170.27 14.18 170.28 14.14C170.28 14.09 170.28 14.04 170.28 14L170.28 11.73L172.23 11.58L172.23 13.78C172.23 13.89 172.22 14 172.22 14.1C172.22 14.21 172.21 14.31 172.2 14.42C172.19 14.52 172.18 14.63 172.17 14.73C172.16 14.84 172.14 14.94 172.13 15.05C172.3 15.1 172.47 15.14 172.64 15.18C172.82 15.21 172.99 15.24 173.17 15.26C173.35 15.29 173.52 15.3 173.7 15.31C173.88 15.32 174.06 15.33 174.24 15.32L174.34 15.32L174.34 17.65L173.9 17.65C173.65 17.66 173.41 17.66 173.16 17.63C172.92 17.61 172.68 17.56 172.44 17.5C172.21 17.44 171.97 17.36 171.75 17.26C171.53 17.16 171.31 17.04 171.11 16.91C170.9 17.05 170.69 17.17 170.46 17.27C170.24 17.37 170.01 17.45 169.77 17.52C169.54 17.58 169.29 17.62 169.05 17.65C168.8 17.67 168.56 17.67 168.31 17.65L167.85 17.65Z" />
		<path id="Path_37" class="shp0" d="M183.96 17.71C183.76 17.73 183.55 17.72 183.35 17.69C183.15 17.66 182.96 17.6 182.77 17.53C182.58 17.45 182.4 17.36 182.24 17.24C182.07 17.13 181.92 16.99 181.78 16.84C181.61 17.01 181.43 17.15 181.23 17.27C181.03 17.4 180.81 17.5 180.59 17.57C180.37 17.65 180.14 17.7 179.91 17.73C179.67 17.76 179.44 17.76 179.2 17.73C178.98 17.74 178.75 17.73 178.53 17.71C178.31 17.68 178.09 17.64 177.87 17.58C177.66 17.52 177.45 17.44 177.24 17.35C177.04 17.25 176.84 17.14 176.65 17.02C176.5 17.13 176.33 17.22 176.16 17.31C175.99 17.39 175.82 17.46 175.63 17.51C175.45 17.56 175.27 17.6 175.08 17.63C174.89 17.65 174.7 17.66 174.51 17.65L174.33 17.65C174.19 17.65 174.07 17.54 173.97 17.31C173.92 17.18 173.88 17.04 173.85 16.91C173.83 16.77 173.81 16.63 173.81 16.49C173.81 16.35 173.83 16.21 173.85 16.07C173.88 15.93 173.92 15.79 173.97 15.66C174.07 15.44 174.19 15.32 174.33 15.32L174.77 15.32C174.86 15.33 174.96 15.33 175.05 15.32C175.14 15.31 175.23 15.29 175.32 15.26C175.4 15.23 175.49 15.2 175.57 15.15C175.65 15.11 175.73 15.06 175.8 15C175.87 14.92 175.93 14.83 175.99 14.73C176.04 14.63 176.09 14.53 176.12 14.43C176.16 14.33 176.19 14.22 176.21 14.11C176.22 14.01 176.23 13.9 176.23 13.79L176.31 12.62L178.15 12.49L178.06 13.82C178.06 13.91 178.05 14.01 178.05 14.1C178.04 14.2 178.03 14.29 178.01 14.39C178 14.48 177.99 14.58 177.97 14.67C177.96 14.77 177.94 14.86 177.92 14.95C178.02 15.01 178.13 15.06 178.24 15.1C178.35 15.14 178.46 15.17 178.57 15.2C178.69 15.23 178.8 15.25 178.92 15.26C179.03 15.27 179.15 15.28 179.27 15.27C179.37 15.28 179.48 15.28 179.58 15.26C179.69 15.25 179.79 15.23 179.89 15.2C179.99 15.17 180.09 15.14 180.19 15.1C180.28 15.05 180.38 15 180.47 14.94C180.51 14.92 180.54 14.88 180.58 14.85C180.61 14.82 180.65 14.78 180.68 14.74C180.71 14.71 180.74 14.67 180.76 14.63C180.79 14.58 180.81 14.54 180.83 14.5C180.85 14.45 180.87 14.41 180.88 14.36C180.9 14.32 180.91 14.27 180.92 14.22C180.93 14.17 180.93 14.13 180.94 14.08C180.94 14.03 180.94 13.98 180.94 13.93L180.94 12.41L182.79 12.3L182.79 14.14C182.79 14.93 183.21 15.32 184.05 15.32C184.9 15.32 185.32 14.96 185.32 14.24L185.32 12.17L187.15 12L187.15 14.2C187.15 14.28 187.15 14.35 187.15 14.42C187.15 14.49 187.15 14.56 187.14 14.63C187.14 14.7 187.13 14.77 187.13 14.84C187.12 14.91 187.11 14.98 187.11 15.05C187.25 15.1 187.39 15.15 187.54 15.19C187.68 15.23 187.83 15.26 187.98 15.29C188.13 15.31 188.28 15.33 188.44 15.33C188.59 15.34 188.74 15.33 188.89 15.32L189.1 15.32L189.1 17.65L188.78 17.65C188.56 17.65 188.34 17.64 188.12 17.61C187.9 17.58 187.68 17.54 187.47 17.47C187.25 17.41 187.05 17.33 186.84 17.24C186.64 17.15 186.45 17.04 186.26 16.92C186.11 17.06 185.94 17.18 185.76 17.29C185.58 17.4 185.39 17.48 185.19 17.55C184.99 17.62 184.79 17.67 184.58 17.69C184.37 17.72 184.16 17.73 183.96 17.72" />
		<path id="Path_38" fill-rule="evenodd" class="shp0" d="M194.59 17.67C194.3 17.68 194.01 17.66 193.72 17.63C193.43 17.6 193.14 17.55 192.86 17.49C192.58 17.42 192.3 17.33 192.03 17.23C191.75 17.12 191.49 17 191.23 16.86C191.1 16.99 190.96 17.11 190.8 17.21C190.65 17.31 190.49 17.39 190.31 17.46C190.14 17.53 189.96 17.58 189.78 17.61C189.6 17.64 189.42 17.66 189.23 17.65L189.1 17.65C188.96 17.65 188.84 17.54 188.74 17.31C188.69 17.18 188.65 17.05 188.62 16.91C188.6 16.77 188.58 16.63 188.58 16.49C188.58 16.35 188.6 16.21 188.62 16.07C188.65 15.93 188.69 15.79 188.74 15.66C188.84 15.44 188.96 15.32 189.1 15.32L189.38 15.32C189.47 15.33 189.57 15.32 189.66 15.3C189.75 15.28 189.85 15.25 189.93 15.21C190.02 15.17 190.1 15.12 190.17 15.07C190.25 15.01 190.32 14.94 190.38 14.87C190.47 14.76 190.55 14.64 190.63 14.52C190.71 14.4 190.79 14.28 190.86 14.16C190.94 14.04 191.01 13.91 191.07 13.78C191.14 13.66 191.2 13.53 191.26 13.4C191.29 13.35 191.3 13.32 191.31 13.3L191.35 13.22C191.36 13.21 191.36 13.2 191.36 13.19C191.37 13.18 191.37 13.18 191.38 13.17C191.38 13.16 191.38 13.15 191.39 13.14C191.39 13.13 191.39 13.13 191.39 13.12C191.48 12.94 191.57 12.78 191.67 12.61C191.77 12.45 191.87 12.29 191.99 12.13C192.1 11.98 192.22 11.83 192.35 11.69C192.48 11.54 192.61 11.4 192.75 11.27C192.89 11.16 193.03 11.07 193.19 10.98C193.35 10.9 193.51 10.83 193.68 10.78C193.85 10.72 194.02 10.68 194.19 10.66C194.37 10.64 194.55 10.63 194.72 10.64C194.94 10.64 195.15 10.66 195.36 10.7C195.57 10.75 195.78 10.82 195.97 10.91C196.17 11.01 196.35 11.12 196.52 11.26C196.68 11.4 196.83 11.55 196.96 11.73C197.11 11.92 197.24 12.12 197.35 12.33C197.46 12.54 197.55 12.76 197.62 12.99C197.7 13.21 197.75 13.45 197.78 13.68C197.82 13.92 197.83 14.16 197.82 14.4C197.83 14.65 197.82 14.89 197.8 15.14C197.78 15.39 197.74 15.64 197.7 15.88C197.65 16.13 197.59 16.37 197.52 16.61C197.45 16.84 197.37 17.08 197.27 17.31C197.05 17.37 196.83 17.43 196.61 17.48C196.39 17.53 196.17 17.57 195.94 17.6C195.72 17.63 195.49 17.65 195.27 17.66C195.04 17.67 194.82 17.67 194.59 17.67M194.97 15.53C195.3 15.53 195.63 15.52 195.96 15.48C195.97 15.42 195.98 15.35 195.98 15.28C195.99 15.21 196 15.15 196 15.08C196.01 15.01 196.01 14.94 196.02 14.88C196.02 14.81 196.02 14.74 196.02 14.67C196.03 14.55 196.02 14.43 196.01 14.31C196 14.19 195.98 14.07 195.95 13.96C195.92 13.84 195.88 13.72 195.83 13.61C195.78 13.5 195.73 13.39 195.66 13.29C195.61 13.21 195.55 13.13 195.48 13.06C195.4 12.99 195.32 12.93 195.23 12.88C195.15 12.84 195.05 12.8 194.96 12.78C194.86 12.76 194.76 12.75 194.66 12.75C194.56 12.75 194.47 12.75 194.38 12.77C194.28 12.79 194.19 12.82 194.1 12.85C194.02 12.89 193.93 12.93 193.85 12.98C193.77 13.03 193.7 13.09 193.63 13.16C193.53 13.29 193.42 13.42 193.32 13.55C193.22 13.69 193.13 13.83 193.04 13.97C192.95 14.11 192.86 14.25 192.79 14.4C192.71 14.55 192.63 14.7 192.56 14.85C192.49 15 192.45 15.09 192.43 15.13C192.64 15.2 192.84 15.26 193.05 15.31C193.26 15.37 193.47 15.41 193.68 15.45C193.89 15.48 194.11 15.5 194.32 15.52C194.54 15.53 194.75 15.54 194.97 15.53L194.97 15.53Z" />
		<path id="Path_39" fill-rule="evenodd" class="shp0" d="M8.41 39.05C8.11 38 7.76 36.9 7.36 35.72L2.25 35.72C1.85 36.9 1.5 38 1.2 39.05L0 39.05C0.29 38.08 0.59 37.13 0.91 36.17C1.23 35.22 1.56 34.27 1.91 33.33C2.26 32.39 2.62 31.45 3.01 30.52C3.39 29.6 3.78 28.67 4.19 27.76L5.41 27.76C5.82 28.67 6.22 29.59 6.61 30.52C6.99 31.45 7.36 32.39 7.71 33.33C8.06 34.27 8.4 35.22 8.71 36.17C9.03 37.12 9.33 38.08 9.62 39.05L8.41 39.05ZM4.8 28.95C4.12 30.46 3.38 32.38 2.58 34.7L7.02 34.7C6.22 32.38 5.48 30.46 4.8 28.95L4.8 28.95Z" />
		<path id="Path_40" class="shp0" d="M12.43 27.37L12.43 36.74C12.42 36.84 12.42 36.94 12.43 37.04C12.43 37.14 12.45 37.24 12.47 37.34C12.49 37.43 12.52 37.53 12.55 37.62C12.58 37.72 12.62 37.81 12.67 37.9C12.69 37.93 12.72 37.96 12.75 37.99C12.77 38.02 12.8 38.05 12.84 38.07C12.87 38.1 12.9 38.12 12.93 38.14C12.97 38.16 13 38.18 13.04 38.2C13.08 38.22 13.12 38.23 13.15 38.24C13.19 38.25 13.23 38.26 13.27 38.27C13.31 38.27 13.35 38.28 13.39 38.28C13.43 38.28 13.47 38.28 13.51 38.27C13.55 38.27 13.59 38.27 13.63 38.27C13.67 38.26 13.71 38.26 13.75 38.26C13.78 38.25 13.82 38.25 13.86 38.24C13.9 38.24 13.94 38.23 13.98 38.22L14.08 39.14C14.02 39.16 13.96 39.17 13.9 39.18C13.84 39.2 13.78 39.21 13.72 39.21C13.66 39.22 13.59 39.23 13.53 39.23C13.47 39.24 13.41 39.24 13.35 39.24C11.98 39.24 11.29 38.42 11.29 36.76L11.29 27.45L12.43 27.37Z" />
		<path id="Path_41" class="shp0" d="M17.09 32.25L17.09 39.04L15.96 39.04L15.96 31.54C16.21 31.41 16.47 31.29 16.74 31.19C17.01 31.09 17.29 31 17.57 30.93C17.84 30.86 18.13 30.81 18.41 30.77C18.7 30.74 18.99 30.72 19.27 30.72C19.48 30.71 19.7 30.71 19.91 30.74C20.11 30.77 20.32 30.83 20.52 30.9C20.72 30.97 20.91 31.06 21.09 31.17C21.27 31.28 21.44 31.41 21.59 31.56C21.81 31.42 22.03 31.31 22.26 31.2C22.5 31.1 22.74 31.01 22.98 30.94C23.23 30.87 23.48 30.82 23.73 30.78C23.98 30.74 24.23 30.72 24.49 30.72C24.7 30.7 24.92 30.71 25.13 30.74C25.34 30.76 25.55 30.81 25.75 30.88C25.95 30.95 26.14 31.04 26.33 31.14C26.51 31.25 26.69 31.38 26.84 31.52C26.98 31.66 27.1 31.82 27.2 31.99C27.3 32.16 27.39 32.34 27.46 32.52C27.52 32.71 27.57 32.9 27.6 33.1C27.63 33.29 27.64 33.49 27.63 33.69L27.63 39.04L26.5 39.04L26.5 33.75C26.5 33.62 26.5 33.49 26.48 33.35C26.46 33.22 26.43 33.09 26.39 32.96C26.35 32.83 26.29 32.71 26.22 32.59C26.16 32.47 26.08 32.36 26 32.26C25.9 32.16 25.78 32.08 25.67 32C25.55 31.93 25.42 31.86 25.29 31.82C25.16 31.77 25.02 31.73 24.88 31.72C24.74 31.7 24.6 31.69 24.46 31.7C24.25 31.7 24.05 31.72 23.84 31.75C23.64 31.78 23.44 31.82 23.24 31.88C23.04 31.94 22.85 32.02 22.66 32.11C22.48 32.2 22.3 32.3 22.13 32.42C22.17 32.53 22.2 32.64 22.23 32.76C22.26 32.88 22.28 33 22.3 33.11C22.32 33.23 22.33 33.35 22.34 33.47C22.35 33.59 22.36 33.71 22.35 33.83L22.35 39.04L21.24 39.04L21.24 33.75C21.28 33.48 21.26 33.2 21.17 32.94C21.09 32.67 20.95 32.43 20.75 32.23C20.56 32.03 20.32 31.88 20.06 31.79C19.8 31.7 19.52 31.67 19.25 31.7C19.06 31.7 18.87 31.71 18.68 31.74C18.5 31.76 18.31 31.79 18.13 31.84C17.95 31.89 17.77 31.94 17.6 32.01C17.43 32.08 17.26 32.16 17.09 32.25" />
		<path id="Path_42" fill-rule="evenodd" class="shp0" d="M36.99 33.36C37.16 33.88 37.24 34.43 37.24 34.98C37.24 35.53 37.16 36.08 36.99 36.6C36.83 37.13 36.59 37.63 36.27 38.08C35.92 38.44 35.5 38.74 35.04 38.94C34.57 39.14 34.07 39.24 33.56 39.24C33.06 39.24 32.56 39.14 32.09 38.94C31.63 38.74 31.21 38.44 30.86 38.08C30.54 37.63 30.29 37.13 30.13 36.6C29.96 36.08 29.88 35.53 29.88 34.98C29.88 34.43 29.96 33.88 30.13 33.36C30.29 32.83 30.54 32.33 30.86 31.88C31.21 31.52 31.63 31.22 32.09 31.02C32.56 30.82 33.06 30.72 33.56 30.72C34.07 30.72 34.57 30.82 35.04 31.02C35.5 31.22 35.92 31.52 36.27 31.88C36.59 32.33 36.83 32.83 36.99 33.36ZM31.68 32.58C31.47 32.95 31.31 33.33 31.21 33.74C31.1 34.14 31.04 34.56 31.04 34.98C31.04 35.4 31.1 35.81 31.21 36.22C31.31 36.62 31.47 37.01 31.68 37.37C31.91 37.65 32.2 37.87 32.52 38.02C32.85 38.17 33.2 38.25 33.56 38.25C33.92 38.25 34.28 38.18 34.6 38.03C34.93 37.88 35.21 37.66 35.45 37.38C35.65 37.02 35.81 36.63 35.92 36.22C36.02 35.82 36.08 35.4 36.08 34.98C36.08 34.56 36.02 34.14 35.92 33.74C35.81 33.33 35.65 32.94 35.45 32.58C35.21 32.3 34.93 32.08 34.6 31.93C34.28 31.78 33.92 31.7 33.56 31.7C33.2 31.71 32.85 31.78 32.53 31.94C32.2 32.09 31.91 32.31 31.68 32.58Z" />
		<path id="Path_43" fill-rule="evenodd" class="shp0" d="M45.45 31.88C45.76 32.33 46.01 32.83 46.17 33.36C46.34 33.88 46.42 34.43 46.42 34.98C46.42 35.53 46.34 36.08 46.17 36.6C46.01 37.13 45.76 37.63 45.45 38.08C45.1 38.44 44.68 38.74 44.22 38.94C43.75 39.13 43.25 39.24 42.74 39.24C42.24 39.24 41.74 39.13 41.27 38.94C40.8 38.74 40.38 38.44 40.04 38.08C39.72 37.63 39.47 37.13 39.31 36.6C39.14 36.08 39.06 35.53 39.06 34.98C39.06 34.43 39.14 33.88 39.31 33.36C39.47 32.83 39.72 32.33 40.03 31.88C40.38 31.52 40.8 31.22 41.27 31.02C41.73 30.82 42.24 30.72 42.74 30.72C43.25 30.72 43.75 30.82 44.22 31.02C44.68 31.22 45.1 31.52 45.45 31.88ZM40.38 33.74C40.28 34.14 40.22 34.56 40.22 34.98C40.22 35.4 40.28 35.81 40.38 36.22C40.49 36.62 40.65 37.01 40.86 37.37C41.09 37.65 41.38 37.87 41.7 38.02C42.03 38.17 42.38 38.25 42.74 38.25C43.1 38.26 43.45 38.18 43.78 38.03C44.1 37.88 44.39 37.66 44.62 37.38C44.83 37.02 44.99 36.63 45.1 36.22C45.2 35.82 45.26 35.4 45.26 34.98C45.26 34.56 45.2 34.14 45.1 33.74C44.99 33.33 44.83 32.94 44.62 32.58C44.39 32.3 44.1 32.08 43.78 31.93C43.45 31.78 43.1 31.7 42.74 31.7C42.38 31.7 42.03 31.78 41.7 31.94C41.38 32.09 41.09 32.31 40.86 32.58C40.65 32.95 40.49 33.33 40.38 33.74Z" />
		<path id="Path_44" class="shp0" d="M53.2 31.12L53.04 32.08C52.87 32.02 52.7 31.97 52.53 31.92C52.36 31.88 52.19 31.84 52.02 31.81C51.84 31.78 51.67 31.75 51.49 31.74C51.32 31.72 51.14 31.71 50.97 31.7C49.81 31.7 49.23 32.14 49.23 33C49.23 33.04 49.23 33.09 49.24 33.14C49.24 33.19 49.25 33.24 49.26 33.29C49.27 33.34 49.28 33.39 49.3 33.44C49.32 33.48 49.33 33.53 49.35 33.58C49.38 33.62 49.41 33.66 49.44 33.7C49.47 33.74 49.5 33.78 49.53 33.81C49.57 33.85 49.61 33.88 49.65 33.91C49.69 33.94 49.73 33.96 49.78 33.99C49.82 34.01 49.86 34.04 49.91 34.06C49.95 34.08 49.99 34.11 50.04 34.13C50.08 34.15 50.13 34.17 50.17 34.19C50.22 34.21 50.26 34.23 50.31 34.25C50.47 34.32 50.7 34.4 51.01 34.5C51.2 34.54 51.38 34.6 51.56 34.66C51.74 34.73 51.92 34.8 52.09 34.88C52.26 34.96 52.43 35.05 52.6 35.14C52.76 35.24 52.93 35.34 53.08 35.45C53.19 35.54 53.29 35.64 53.37 35.75C53.46 35.86 53.53 35.98 53.58 36.11C53.64 36.24 53.68 36.37 53.71 36.51C53.73 36.65 53.74 36.79 53.73 36.93C53.74 37.1 53.73 37.26 53.7 37.43C53.67 37.59 53.61 37.75 53.54 37.9C53.47 38.05 53.38 38.19 53.27 38.32C53.16 38.45 53.04 38.56 52.9 38.66C52.74 38.76 52.58 38.85 52.4 38.93C52.23 39 52.05 39.07 51.87 39.12C51.68 39.16 51.49 39.2 51.3 39.22C51.12 39.24 50.93 39.25 50.73 39.24C50.61 39.24 50.48 39.23 50.35 39.23C50.23 39.22 50.1 39.21 49.97 39.2C49.85 39.18 49.72 39.17 49.6 39.15C49.47 39.13 49.34 39.11 49.22 39.08C49.12 39.07 49.02 39.05 48.92 39.02C48.82 39 48.72 38.98 48.62 38.95C48.52 38.92 48.42 38.89 48.32 38.86C48.22 38.83 48.13 38.79 48.03 38.75L48.22 37.79C48.42 37.86 48.63 37.93 48.83 37.99C49.03 38.04 49.24 38.09 49.45 38.13C49.66 38.17 49.87 38.2 50.08 38.22C50.29 38.24 50.5 38.25 50.72 38.25C50.84 38.26 50.96 38.26 51.08 38.25C51.2 38.24 51.31 38.22 51.43 38.19C51.55 38.16 51.66 38.12 51.77 38.08C51.88 38.03 51.99 37.98 52.09 37.91C52.17 37.86 52.25 37.8 52.31 37.73C52.37 37.66 52.43 37.58 52.47 37.5C52.52 37.41 52.55 37.32 52.57 37.23C52.59 37.14 52.6 37.04 52.59 36.95C52.6 36.9 52.59 36.86 52.59 36.81C52.59 36.77 52.58 36.73 52.57 36.68C52.56 36.64 52.55 36.6 52.53 36.55C52.51 36.51 52.49 36.47 52.47 36.43C52.45 36.39 52.43 36.36 52.4 36.32C52.38 36.29 52.35 36.25 52.32 36.22C52.29 36.19 52.25 36.16 52.22 36.13C52.18 36.1 52.15 36.07 52.11 36.05C51.98 35.98 51.84 35.91 51.71 35.85C51.57 35.78 51.44 35.72 51.3 35.66C51.16 35.61 51.02 35.56 50.87 35.51C50.73 35.46 50.59 35.42 50.44 35.38C50.28 35.34 50.13 35.29 49.97 35.24C49.82 35.18 49.67 35.11 49.52 35.04C49.38 34.97 49.23 34.89 49.09 34.8C48.96 34.71 48.82 34.62 48.69 34.52C48.59 34.43 48.49 34.32 48.41 34.2C48.33 34.09 48.26 33.97 48.21 33.83C48.16 33.7 48.12 33.57 48.1 33.43C48.08 33.29 48.07 33.15 48.08 33.01C48.07 32.85 48.08 32.69 48.1 32.53C48.13 32.37 48.18 32.22 48.24 32.07C48.31 31.92 48.39 31.78 48.48 31.66C48.58 31.53 48.69 31.41 48.81 31.31C48.96 31.2 49.12 31.11 49.29 31.03C49.45 30.95 49.63 30.89 49.8 30.84C49.98 30.79 50.16 30.75 50.34 30.73C50.53 30.71 50.71 30.71 50.89 30.72C51.09 30.72 51.29 30.72 51.48 30.74C51.68 30.75 51.87 30.77 52.06 30.81C52.26 30.84 52.45 30.88 52.64 30.94C52.83 30.99 53.01 31.05 53.19 31.12" />
		<path id="Path_45" fill-rule="evenodd" class="shp0" d="M61.36 38.48C61.12 38.61 60.87 38.73 60.61 38.82C60.36 38.92 60.1 39 59.83 39.07C59.56 39.13 59.29 39.18 59.02 39.21C58.75 39.23 58.47 39.24 58.2 39.23C58 39.25 57.8 39.24 57.6 39.22C57.4 39.2 57.2 39.16 57.01 39.1C56.82 39.05 56.63 38.98 56.45 38.89C56.27 38.8 56.1 38.7 55.94 38.58C55.81 38.48 55.69 38.36 55.59 38.23C55.49 38.1 55.4 37.96 55.33 37.81C55.26 37.66 55.21 37.5 55.18 37.34C55.15 37.18 55.14 37.01 55.14 36.85C55.13 36.67 55.14 36.49 55.17 36.31C55.21 36.14 55.26 35.97 55.34 35.81C55.41 35.65 55.51 35.5 55.63 35.36C55.74 35.22 55.87 35.1 56.02 35C56.18 34.89 56.36 34.8 56.54 34.72C56.72 34.64 56.91 34.57 57.1 34.52C57.29 34.47 57.49 34.43 57.69 34.4C57.88 34.38 58.08 34.37 58.28 34.38C58.45 34.38 58.61 34.39 58.78 34.39C58.94 34.4 59.1 34.42 59.27 34.44C59.43 34.46 59.59 34.48 59.76 34.51C59.92 34.54 60.08 34.57 60.24 34.61L60.24 33.67C60.24 32.36 59.53 31.7 58.12 31.7C57.93 31.7 57.75 31.7 57.56 31.72C57.37 31.74 57.19 31.76 57.01 31.8C56.82 31.83 56.64 31.88 56.46 31.93C56.28 31.99 56.11 32.05 55.93 32.12L55.67 31.18C55.87 31.1 56.08 31.03 56.29 30.97C56.49 30.91 56.7 30.86 56.91 30.82C57.13 30.78 57.34 30.75 57.55 30.74C57.77 30.72 57.99 30.71 58.2 30.72C58.41 30.7 58.63 30.71 58.84 30.73C59.05 30.76 59.26 30.8 59.46 30.87C59.66 30.93 59.86 31.02 60.04 31.12C60.23 31.23 60.4 31.35 60.56 31.48C60.7 31.63 60.83 31.79 60.93 31.97C61.04 32.14 61.13 32.33 61.19 32.52C61.26 32.71 61.31 32.91 61.34 33.11C61.37 33.31 61.37 33.52 61.36 33.72L61.36 38.48ZM58.3 38.33C58.3 38.33 58.3 38.33 58.3 38.33C58.3 38.33 58.3 38.33 58.3 38.33L58.3 38.33ZM58.8 38.32C58.97 38.31 59.14 38.28 59.3 38.24C59.47 38.21 59.63 38.16 59.79 38.1C59.94 38.04 60.1 37.96 60.24 37.88L60.24 35.43C60.09 35.4 59.94 35.36 59.79 35.34C59.63 35.31 59.48 35.29 59.33 35.27C59.17 35.25 59.02 35.24 58.86 35.23C58.71 35.21 58.55 35.21 58.4 35.2C56.98 35.2 56.28 35.74 56.28 36.82C56.27 36.93 56.28 37.03 56.3 37.14C56.32 37.25 56.35 37.35 56.4 37.45C56.44 37.55 56.5 37.64 56.57 37.72C56.64 37.81 56.71 37.88 56.8 37.95C56.91 38.02 57.03 38.08 57.15 38.13C57.27 38.18 57.39 38.23 57.52 38.26C57.65 38.29 57.78 38.31 57.91 38.33C58.04 38.34 58.17 38.34 58.3 38.33C58.47 38.34 58.64 38.34 58.8 38.32Z" />
		<path id="Path_46" class="shp0" d="M67.32 38.63L67.55 37.59C67.79 37.69 68.04 37.77 68.29 37.85C68.54 37.92 68.8 37.98 69.06 38.03C69.31 38.08 69.57 38.12 69.84 38.15C70.1 38.18 70.36 38.2 70.62 38.21C70.79 38.22 70.97 38.21 71.14 38.2C71.31 38.18 71.48 38.15 71.65 38.11C71.82 38.06 71.98 38.01 72.14 37.94C72.3 37.87 72.46 37.79 72.6 37.7C72.82 37.51 73 37.28 73.12 37.01C73.24 36.75 73.3 36.47 73.31 36.18C73.31 35.89 73.25 35.6 73.13 35.34C73.02 35.08 72.84 34.84 72.63 34.65C72.46 34.54 72.28 34.44 72.11 34.35C71.93 34.25 71.75 34.17 71.56 34.09C71.38 34.01 71.19 33.93 71 33.87C70.81 33.8 70.62 33.74 70.43 33.69C70.22 33.63 70.01 33.56 69.81 33.48C69.61 33.4 69.41 33.31 69.22 33.21C69.03 33.11 68.84 33 68.66 32.87C68.48 32.75 68.31 32.62 68.15 32.48C68.02 32.35 67.9 32.21 67.8 32.05C67.71 31.9 67.62 31.73 67.56 31.56C67.5 31.39 67.45 31.21 67.42 31.03C67.4 30.85 67.39 30.66 67.4 30.48C67.39 30.28 67.4 30.07 67.44 29.87C67.48 29.67 67.54 29.47 67.62 29.28C67.71 29.1 67.81 28.92 67.94 28.76C68.07 28.59 68.21 28.45 68.37 28.32C68.56 28.19 68.77 28.07 68.98 27.97C69.19 27.87 69.41 27.78 69.63 27.72C69.86 27.65 70.09 27.61 70.32 27.58C70.56 27.56 70.79 27.55 71.03 27.57C71.26 27.56 71.49 27.57 71.72 27.59C71.95 27.61 72.18 27.64 72.41 27.68C72.64 27.72 72.86 27.77 73.08 27.83C73.31 27.9 73.53 27.97 73.74 28.05L73.5 29.04C73.31 28.97 73.11 28.91 72.92 28.86C72.72 28.81 72.52 28.76 72.32 28.73C72.12 28.69 71.92 28.66 71.71 28.64C71.51 28.62 71.31 28.61 71.1 28.6C69.43 28.6 68.6 29.22 68.6 30.47C68.59 30.6 68.59 30.73 68.61 30.85C68.63 30.98 68.67 31.1 68.72 31.22C68.77 31.34 68.83 31.45 68.9 31.55C68.97 31.65 69.06 31.75 69.15 31.83C69.29 31.93 69.44 32.03 69.58 32.11C69.73 32.2 69.88 32.28 70.04 32.35C70.19 32.42 70.35 32.49 70.51 32.54C70.67 32.6 70.83 32.65 70.99 32.7C71.46 32.85 71.83 32.98 72.11 33.1C72.19 33.13 72.27 33.16 72.35 33.2C72.43 33.24 72.51 33.27 72.59 33.31C72.67 33.35 72.74 33.39 72.82 33.43C72.9 33.47 72.97 33.51 73.05 33.56C73.12 33.6 73.2 33.64 73.27 33.68C73.34 33.73 73.41 33.78 73.47 33.83C73.54 33.88 73.6 33.94 73.66 34C73.73 34.05 73.79 34.11 73.84 34.18C73.89 34.24 73.94 34.31 73.98 34.37C74.03 34.44 74.07 34.51 74.11 34.58C74.15 34.65 74.19 34.72 74.22 34.8C74.25 34.87 74.28 34.95 74.31 35.02C74.34 35.12 74.37 35.21 74.4 35.31C74.42 35.4 74.44 35.5 74.46 35.6C74.48 35.69 74.49 35.79 74.5 35.89C74.5 35.99 74.51 36.09 74.5 36.19C74.52 36.41 74.51 36.63 74.47 36.85C74.43 37.07 74.36 37.28 74.26 37.48C74.17 37.69 74.05 37.87 73.91 38.05C73.77 38.22 73.6 38.37 73.42 38.5C73.22 38.63 73 38.75 72.78 38.85C72.56 38.94 72.33 39.03 72.09 39.09C71.86 39.15 71.62 39.2 71.38 39.23C71.14 39.25 70.9 39.26 70.65 39.25C70.37 39.26 70.08 39.25 69.8 39.22C69.52 39.2 69.23 39.16 68.95 39.11C68.67 39.06 68.4 38.99 68.12 38.92C67.85 38.84 67.58 38.74 67.32 38.64" />
		<path id="Path_47" fill-rule="evenodd" class="shp0" d="M79.72 30.72C79.98 30.7 80.24 30.71 80.5 30.75C80.75 30.79 81.01 30.86 81.25 30.95C81.49 31.05 81.73 31.17 81.94 31.31C82.16 31.46 82.36 31.63 82.54 31.82C82.71 32.02 82.86 32.24 82.99 32.48C83.12 32.71 83.23 32.95 83.31 33.21C83.39 33.46 83.45 33.72 83.49 33.98C83.52 34.25 83.53 34.51 83.52 34.78C83.53 35.07 83.52 35.35 83.49 35.64C83.46 35.92 83.4 36.2 83.31 36.48C83.23 36.75 83.13 37.02 83 37.28C82.87 37.53 82.72 37.78 82.55 38.01C82.37 38.21 82.17 38.4 81.95 38.56C81.73 38.72 81.49 38.85 81.24 38.96C80.99 39.06 80.73 39.13 80.46 39.18C80.19 39.22 79.92 39.24 79.65 39.22C79.49 39.22 79.33 39.21 79.17 39.2C79.01 39.18 78.85 39.15 78.7 39.12C78.54 39.09 78.38 39.05 78.23 38.99C78.08 38.94 77.93 38.88 77.79 38.82L77.79 42.03L76.65 42.03L76.65 31.48C76.89 31.36 77.13 31.25 77.38 31.15C77.63 31.06 77.88 30.98 78.14 30.91C78.4 30.85 78.66 30.8 78.92 30.77C79.18 30.74 79.45 30.72 79.71 30.72M77.79 37.8C77.93 37.87 78.06 37.94 78.21 37.99C78.35 38.05 78.49 38.1 78.64 38.13C78.79 38.17 78.94 38.2 79.09 38.22C79.24 38.24 79.39 38.25 79.54 38.25C79.74 38.27 79.93 38.26 80.13 38.22C80.32 38.19 80.51 38.14 80.69 38.06C80.87 37.98 81.04 37.88 81.2 37.77C81.36 37.65 81.5 37.52 81.63 37.37C81.76 37.18 81.87 36.99 81.97 36.78C82.06 36.58 82.14 36.36 82.2 36.15C82.26 35.93 82.31 35.7 82.33 35.48C82.35 35.25 82.36 35.03 82.34 34.8C82.35 34.6 82.34 34.41 82.32 34.21C82.29 34.01 82.25 33.82 82.2 33.63C82.14 33.44 82.07 33.25 81.98 33.08C81.89 32.9 81.79 32.73 81.68 32.57C81.56 32.42 81.42 32.29 81.27 32.18C81.12 32.06 80.95 31.97 80.78 31.89C80.61 31.82 80.42 31.76 80.24 31.73C80.05 31.7 79.86 31.69 79.67 31.7C79.51 31.7 79.34 31.71 79.18 31.73C79.02 31.75 78.86 31.77 78.7 31.81C78.54 31.85 78.39 31.9 78.23 31.96C78.08 32.02 77.93 32.09 77.79 32.17L77.79 37.8Z" />
		<path id="Path_48" fill-rule="evenodd" class="shp0" d="M92.26 38.67C92.05 38.77 91.83 38.85 91.61 38.92C91.38 38.99 91.16 39.05 90.93 39.1C90.7 39.15 90.46 39.18 90.23 39.21C90 39.23 89.76 39.24 89.53 39.23C89.25 39.25 88.97 39.24 88.69 39.19C88.42 39.15 88.14 39.08 87.88 38.99C87.62 38.89 87.37 38.77 87.13 38.63C86.89 38.48 86.66 38.31 86.46 38.12C86.26 37.91 86.09 37.68 85.94 37.43C85.79 37.19 85.67 36.93 85.57 36.66C85.48 36.38 85.41 36.1 85.37 35.82C85.33 35.53 85.32 35.25 85.33 34.96C85.32 34.68 85.34 34.41 85.37 34.14C85.41 33.86 85.47 33.6 85.56 33.33C85.65 33.07 85.76 32.82 85.89 32.58C86.02 32.34 86.17 32.11 86.35 31.89C86.51 31.7 86.7 31.53 86.91 31.37C87.12 31.22 87.34 31.1 87.58 30.99C87.81 30.89 88.06 30.82 88.31 30.77C88.56 30.72 88.82 30.71 89.07 30.72C89.3 30.7 89.53 30.72 89.75 30.76C89.97 30.79 90.19 30.86 90.4 30.94C90.61 31.03 90.81 31.14 91 31.27C91.18 31.4 91.35 31.55 91.5 31.72C91.65 31.89 91.78 32.08 91.89 32.28C92.01 32.48 92.1 32.69 92.18 32.9C92.25 33.12 92.31 33.34 92.34 33.57C92.37 33.79 92.39 34.02 92.38 34.25C92.38 34.33 92.38 34.41 92.38 34.49C92.37 34.57 92.37 34.65 92.37 34.73C92.36 34.81 92.36 34.88 92.35 34.96C92.34 35.04 92.34 35.12 92.33 35.2L86.5 35.2C86.49 35.41 86.51 35.62 86.55 35.83C86.58 36.03 86.64 36.24 86.71 36.43C86.79 36.63 86.88 36.81 86.99 36.99C87.11 37.17 87.24 37.33 87.38 37.48C87.53 37.62 87.7 37.73 87.87 37.83C88.05 37.94 88.23 38.02 88.42 38.08C88.61 38.15 88.81 38.2 89.01 38.22C89.21 38.25 89.41 38.26 89.61 38.25C89.82 38.25 90.03 38.23 90.24 38.21C90.44 38.19 90.65 38.15 90.86 38.11C91.06 38.06 91.26 38.01 91.46 37.94C91.66 37.88 91.86 37.8 92.05 37.72L92.26 38.67ZM89.07 31.69C88.91 31.68 88.74 31.69 88.58 31.72C88.42 31.75 88.26 31.8 88.1 31.86C87.95 31.92 87.8 32 87.67 32.1C87.53 32.19 87.41 32.3 87.29 32.42C87.18 32.56 87.07 32.71 86.98 32.86C86.89 33.02 86.81 33.18 86.74 33.35C86.68 33.51 86.63 33.69 86.59 33.86C86.55 34.04 86.53 34.22 86.52 34.4L91.24 34.4C91.25 34.37 91.25 34.35 91.25 34.32C91.25 34.3 91.26 34.27 91.26 34.24C91.26 34.22 91.26 34.19 91.26 34.17C91.26 34.14 91.26 34.12 91.26 34.09C91.26 33.94 91.26 33.79 91.24 33.63C91.21 33.48 91.18 33.33 91.13 33.19C91.09 33.04 91.03 32.9 90.96 32.77C90.89 32.63 90.8 32.5 90.71 32.38C90.61 32.26 90.5 32.16 90.38 32.07C90.25 31.97 90.12 31.9 89.98 31.84C89.83 31.78 89.69 31.73 89.53 31.71C89.38 31.68 89.23 31.67 89.07 31.68L89.07 31.69Z" />
		<path id="Path_49" class="shp0" d="M98.07 30.72C98.28 30.72 98.48 30.73 98.67 30.75C98.87 30.76 99.07 30.79 99.27 30.84C99.46 30.88 99.66 30.93 99.85 30.99C100.04 31.05 100.22 31.12 100.41 31.21L100.16 32.13C100 32.06 99.84 32 99.68 31.95C99.51 31.9 99.34 31.86 99.17 31.82C99 31.79 98.83 31.76 98.66 31.74C98.49 31.72 98.31 31.71 98.14 31.71C97.94 31.69 97.75 31.7 97.56 31.74C97.36 31.77 97.18 31.83 97 31.9C96.82 31.98 96.64 32.08 96.49 32.19C96.33 32.31 96.19 32.44 96.06 32.59C95.93 32.77 95.82 32.95 95.72 33.15C95.63 33.34 95.55 33.54 95.49 33.75C95.43 33.96 95.38 34.17 95.36 34.38C95.33 34.6 95.33 34.81 95.34 35.03C95.32 35.24 95.33 35.46 95.35 35.67C95.38 35.89 95.43 36.1 95.49 36.3C95.55 36.51 95.64 36.7 95.74 36.89C95.84 37.08 95.96 37.26 96.1 37.43C96.24 37.57 96.4 37.7 96.57 37.81C96.75 37.92 96.93 38.01 97.12 38.08C97.31 38.15 97.51 38.2 97.71 38.23C97.91 38.26 98.11 38.27 98.32 38.25C98.48 38.25 98.65 38.24 98.82 38.22C98.98 38.2 99.15 38.17 99.31 38.13C99.48 38.09 99.64 38.04 99.8 37.98C99.95 37.93 100.11 37.86 100.26 37.78L100.48 38.72C100.31 38.81 100.14 38.88 99.96 38.95C99.78 39.01 99.6 39.07 99.41 39.11C99.22 39.16 99.03 39.19 98.84 39.21C98.65 39.23 98.46 39.24 98.27 39.24C97.99 39.25 97.72 39.24 97.44 39.2C97.17 39.16 96.9 39.1 96.64 39C96.38 38.91 96.13 38.79 95.9 38.64C95.66 38.5 95.44 38.33 95.24 38.14C95.06 37.93 94.89 37.7 94.75 37.46C94.61 37.21 94.49 36.96 94.4 36.69C94.31 36.43 94.24 36.15 94.2 35.88C94.17 35.6 94.16 35.32 94.17 35.04C94.16 34.75 94.17 34.47 94.21 34.19C94.25 33.92 94.31 33.64 94.4 33.37C94.48 33.11 94.6 32.85 94.73 32.6C94.87 32.35 95.02 32.12 95.2 31.9C95.38 31.7 95.58 31.52 95.8 31.37C96.02 31.22 96.26 31.09 96.5 30.99C96.75 30.89 97.01 30.81 97.27 30.77C97.54 30.72 97.81 30.71 98.07 30.72" />
		<path id="Path_50" class="shp0" d="M103.74 39.04L102.61 39.04L102.61 30.91L103.74 30.91L103.74 39.04ZM103.74 29C103.66 29.07 103.57 29.12 103.48 29.16C103.38 29.2 103.28 29.22 103.18 29.22C103.07 29.22 102.97 29.2 102.88 29.16C102.78 29.12 102.69 29.07 102.62 29C102.58 28.96 102.55 28.92 102.53 28.88C102.5 28.83 102.48 28.79 102.46 28.74C102.45 28.69 102.43 28.64 102.43 28.59C102.42 28.55 102.42 28.49 102.42 28.44C102.42 28.39 102.42 28.34 102.43 28.3C102.44 28.25 102.46 28.2 102.48 28.15C102.5 28.11 102.52 28.06 102.55 28.02C102.57 27.98 102.61 27.94 102.64 27.91C102.75 27.8 102.88 27.73 103.03 27.7C103.18 27.67 103.33 27.68 103.47 27.74C103.61 27.8 103.73 27.9 103.81 28.02C103.9 28.15 103.94 28.29 103.94 28.44C103.94 28.49 103.94 28.55 103.93 28.6C103.92 28.65 103.91 28.69 103.89 28.74C103.87 28.79 103.85 28.84 103.83 28.88C103.8 28.92 103.77 28.96 103.74 29L103.74 29Z" />
		<path id="Path_51" fill-rule="evenodd" class="shp0" d="M112.27 38.48C112.03 38.61 111.78 38.73 111.53 38.82C111.27 38.92 111.01 39 110.74 39.07C110.48 39.13 110.21 39.18 109.93 39.21C109.66 39.23 109.39 39.24 109.11 39.23C108.91 39.25 108.71 39.24 108.51 39.22C108.31 39.2 108.12 39.16 107.92 39.1C107.73 39.05 107.54 38.98 107.36 38.89C107.18 38.8 107.01 38.7 106.85 38.58C106.72 38.48 106.6 38.36 106.5 38.23C106.4 38.1 106.31 37.96 106.25 37.81C106.18 37.66 106.13 37.5 106.09 37.34C106.06 37.18 106.05 37.01 106.05 36.85C106.04 36.67 106.05 36.49 106.09 36.31C106.12 36.14 106.17 35.97 106.25 35.81C106.33 35.65 106.42 35.5 106.54 35.36C106.65 35.22 106.78 35.1 106.93 35C107.1 34.89 107.27 34.8 107.45 34.72C107.64 34.64 107.82 34.57 108.02 34.52C108.21 34.47 108.4 34.43 108.6 34.4C108.8 34.38 109 34.37 109.19 34.38C109.36 34.38 109.52 34.39 109.69 34.39C109.85 34.4 110.02 34.42 110.18 34.44C110.34 34.46 110.51 34.48 110.67 34.51C110.83 34.54 110.99 34.57 111.15 34.6L111.15 33.67C111.15 32.36 110.45 31.7 109.03 31.7C108.85 31.7 108.66 31.7 108.47 31.72C108.29 31.74 108.1 31.76 107.92 31.8C107.74 31.83 107.55 31.88 107.38 31.93C107.2 31.99 107.02 32.05 106.85 32.12L106.59 31.18C106.79 31.1 106.99 31.03 107.2 30.97C107.41 30.91 107.62 30.86 107.83 30.82C108.04 30.78 108.25 30.75 108.47 30.74C108.68 30.72 108.9 30.71 109.11 30.72C109.33 30.7 109.54 30.71 109.75 30.73C109.96 30.76 110.17 30.8 110.37 30.87C110.57 30.93 110.77 31.02 110.95 31.12C111.14 31.23 111.31 31.35 111.48 31.48C111.62 31.63 111.74 31.79 111.85 31.97C111.95 32.14 112.04 32.33 112.11 32.52C112.17 32.71 112.22 32.91 112.25 33.11C112.28 33.31 112.28 33.52 112.27 33.72L112.27 38.48ZM109.21 38.33C109.38 38.34 109.55 38.34 109.72 38.32C109.88 38.31 110.05 38.28 110.22 38.24C110.38 38.21 110.54 38.16 110.7 38.1C110.86 38.04 111.01 37.96 111.15 37.88L111.16 35.43C111 35.4 110.85 35.36 110.7 35.34C110.55 35.31 110.39 35.29 110.24 35.27C110.08 35.25 109.93 35.24 109.77 35.22C109.62 35.21 109.47 35.21 109.31 35.2C107.9 35.2 107.19 35.74 107.19 36.82C107.19 36.87 107.19 36.92 107.19 36.98C107.19 37.03 107.2 37.09 107.21 37.14C107.22 37.19 107.23 37.24 107.25 37.3C107.27 37.35 107.29 37.4 107.31 37.45C107.33 37.5 107.36 37.54 107.39 37.59C107.41 37.64 107.44 37.68 107.48 37.72C107.51 37.76 107.55 37.8 107.59 37.84C107.63 37.88 107.67 37.91 107.71 37.95C107.82 38.02 107.94 38.08 108.06 38.13C108.18 38.18 108.3 38.23 108.43 38.26C108.56 38.29 108.68 38.32 108.82 38.33C108.95 38.34 109.08 38.34 109.21 38.33L109.21 38.33Z" />
		<path id="Path_52" class="shp0" d="M116.16 27.37L116.16 36.74C116.15 36.84 116.15 36.94 116.16 37.04C116.17 37.14 116.18 37.24 116.2 37.34C116.22 37.43 116.25 37.53 116.28 37.62C116.32 37.72 116.36 37.81 116.4 37.9C116.43 37.93 116.45 37.96 116.48 37.99C116.51 38.02 116.54 38.05 116.57 38.07C116.6 38.1 116.63 38.12 116.67 38.14C116.7 38.16 116.74 38.18 116.77 38.2C116.81 38.22 116.85 38.23 116.89 38.24C116.93 38.25 116.96 38.26 117 38.27C117.04 38.27 117.08 38.28 117.12 38.28C117.16 38.28 117.2 38.28 117.24 38.27C117.28 38.27 117.32 38.27 117.36 38.27C117.4 38.26 117.44 38.26 117.48 38.26C117.52 38.25 117.56 38.25 117.59 38.24C117.63 38.24 117.67 38.23 117.71 38.22L117.81 39.14C117.75 39.16 117.69 39.17 117.63 39.18C117.57 39.2 117.51 39.21 117.45 39.21C117.39 39.22 117.33 39.23 117.27 39.23C117.2 39.24 117.14 39.24 117.08 39.24C115.71 39.24 115.03 38.42 115.03 36.76L115.03 27.45L116.16 27.37Z" />
		<path id="Path_53" class="shp0" d="M120.88 39.04L119.75 39.04L119.75 30.91L120.88 30.91L120.88 39.04ZM120.87 29C120.8 29.07 120.71 29.12 120.61 29.16C120.52 29.2 120.42 29.22 120.31 29.22C120.21 29.22 120.11 29.2 120.01 29.16C119.92 29.12 119.83 29.07 119.76 29C119.72 28.96 119.69 28.92 119.67 28.88C119.64 28.83 119.62 28.79 119.6 28.74C119.58 28.69 119.57 28.64 119.56 28.6C119.56 28.55 119.55 28.49 119.56 28.44C119.56 28.25 119.65 28.06 119.79 27.92C119.93 27.79 120.12 27.71 120.32 27.71C120.51 27.71 120.7 27.79 120.84 27.92C120.99 28.06 121.07 28.25 121.08 28.44C121.08 28.49 121.08 28.55 121.07 28.6C121.06 28.65 121.05 28.69 121.03 28.74C121.01 28.79 120.99 28.84 120.96 28.88C120.94 28.92 120.91 28.96 120.87 29Z" />
		<path id="Path_54" class="shp0" d="M128.25 31.12L128.09 32.08C127.92 32.02 127.75 31.97 127.58 31.92C127.41 31.88 127.24 31.84 127.07 31.81C126.89 31.78 126.72 31.75 126.54 31.74C126.37 31.72 126.19 31.71 126.01 31.7C124.86 31.7 124.28 32.14 124.28 33C124.28 33.04 124.28 33.09 124.29 33.14C124.29 33.19 124.3 33.24 124.31 33.29C124.32 33.34 124.33 33.39 124.35 33.44C124.36 33.48 124.38 33.53 124.4 33.58C124.43 33.62 124.45 33.66 124.48 33.7C124.51 33.74 124.55 33.78 124.58 33.81C124.62 33.85 124.66 33.88 124.7 33.91C124.74 33.94 124.78 33.96 124.82 33.99C124.87 34.01 124.91 34.04 124.96 34.06C125 34.08 125.04 34.11 125.09 34.13C125.13 34.15 125.18 34.17 125.22 34.19C125.27 34.21 125.31 34.23 125.36 34.25C125.51 34.32 125.75 34.4 126.06 34.5C126.24 34.54 126.43 34.6 126.61 34.66C126.79 34.73 126.96 34.8 127.14 34.88C127.31 34.96 127.48 35.05 127.65 35.14C127.81 35.24 127.98 35.34 128.13 35.45C128.24 35.54 128.34 35.64 128.42 35.75C128.51 35.86 128.58 35.98 128.63 36.11C128.69 36.24 128.73 36.37 128.75 36.51C128.78 36.65 128.79 36.79 128.78 36.93C128.79 37.1 128.78 37.26 128.75 37.43C128.71 37.59 128.66 37.75 128.59 37.9C128.52 38.05 128.43 38.19 128.32 38.32C128.21 38.45 128.09 38.56 127.95 38.66C127.79 38.76 127.62 38.85 127.45 38.93C127.28 39 127.1 39.07 126.91 39.12C126.73 39.16 126.54 39.2 126.35 39.22C126.16 39.24 125.97 39.25 125.78 39.24C125.66 39.24 125.53 39.23 125.4 39.23C125.28 39.22 125.15 39.21 125.02 39.2C124.9 39.18 124.77 39.17 124.64 39.15C124.52 39.13 124.39 39.11 124.27 39.08C124.17 39.07 124.07 39.05 123.97 39.02C123.86 39 123.76 38.98 123.67 38.95C123.57 38.92 123.47 38.89 123.37 38.86C123.27 38.83 123.17 38.79 123.08 38.75L123.28 37.79C123.48 37.86 123.68 37.93 123.88 37.99C124.09 38.04 124.3 38.09 124.5 38.13C124.71 38.17 124.92 38.2 125.13 38.22C125.35 38.24 125.56 38.25 125.77 38.25C125.89 38.26 126.01 38.26 126.13 38.25C126.25 38.24 126.37 38.22 126.48 38.19C126.6 38.16 126.71 38.12 126.83 38.08C126.94 38.03 127.04 37.98 127.15 37.91C127.23 37.86 127.3 37.8 127.36 37.73C127.43 37.66 127.48 37.58 127.53 37.5C127.57 37.41 127.6 37.32 127.62 37.23C127.64 37.14 127.65 37.04 127.65 36.95C127.65 36.86 127.64 36.77 127.62 36.68C127.6 36.6 127.57 36.51 127.53 36.43C127.48 36.36 127.43 36.28 127.37 36.22C127.31 36.15 127.24 36.1 127.16 36.05C127.03 35.98 126.9 35.91 126.76 35.85C126.63 35.78 126.49 35.72 126.35 35.66C126.21 35.61 126.07 35.56 125.93 35.51C125.78 35.46 125.64 35.42 125.49 35.38C125.34 35.34 125.18 35.29 125.03 35.24C124.87 35.18 124.72 35.11 124.58 35.04C124.43 34.97 124.29 34.89 124.15 34.8C124.01 34.71 123.87 34.62 123.74 34.52C123.64 34.43 123.55 34.32 123.47 34.2C123.39 34.09 123.32 33.97 123.26 33.83C123.21 33.7 123.17 33.57 123.15 33.43C123.13 33.29 123.12 33.15 123.13 33.01C123.12 32.85 123.13 32.69 123.16 32.53C123.19 32.37 123.23 32.22 123.3 32.07C123.36 31.92 123.44 31.78 123.54 31.66C123.63 31.53 123.74 31.41 123.87 31.31C124.02 31.2 124.18 31.11 124.34 31.03C124.51 30.95 124.68 30.89 124.86 30.84C125.03 30.79 125.21 30.75 125.4 30.73C125.58 30.71 125.76 30.71 125.95 30.72C126.14 30.72 126.34 30.72 126.53 30.74C126.73 30.75 126.92 30.77 127.12 30.81C127.31 30.84 127.5 30.88 127.69 30.94C127.88 30.99 128.06 31.05 128.25 31.12" />
		<path id="Path_55" class="shp0" d="M134.53 39.08C134.43 39.1 134.33 39.13 134.23 39.15C134.13 39.17 134.03 39.18 133.93 39.2C133.83 39.21 133.72 39.22 133.62 39.23C133.52 39.23 133.42 39.24 133.32 39.24C131.73 39.24 130.94 38.38 130.94 36.66L130.94 31.87L129.71 31.87L129.71 30.92L130.94 30.92L130.94 29L132.07 28.92L132.07 30.92L134.27 30.92L134.27 31.87L132.07 31.87L132.07 36.66C132.06 36.77 132.06 36.88 132.07 36.98C132.08 37.09 132.1 37.2 132.13 37.3C132.16 37.41 132.2 37.51 132.25 37.61C132.3 37.7 132.35 37.8 132.42 37.88C132.49 37.95 132.56 38.01 132.64 38.06C132.73 38.11 132.81 38.15 132.9 38.18C132.99 38.21 133.08 38.23 133.18 38.25C133.27 38.26 133.37 38.26 133.46 38.25C133.55 38.26 133.63 38.25 133.71 38.25C133.8 38.24 133.88 38.24 133.96 38.23C134.04 38.21 134.13 38.2 134.21 38.18C134.29 38.17 134.37 38.15 134.45 38.13L134.53 39.08Z" />
		<path id="Path_56" class="shp1" d="M220.85 46.06C219.67 42.63 216.54 40.06 213.77 37.81C210.47 35.11 207.4 32.37 206.22 28.56L208.08 27.99C209.11 31.29 211.83 33.71 215.01 36.31C217.97 38.73 221.33 41.47 222.7 45.43L220.85 46.06Z" />
		<path id="Path_57" class="shp1" d="M211.45 35.6C211.2 35.03 211 34.44 210.87 33.83C210.73 33.22 210.66 32.6 210.64 31.98C210.63 31.36 210.67 30.74 210.78 30.12C210.89 29.51 211.05 28.91 211.27 28.33L213.09 29.03C212.92 29.49 212.78 29.97 212.7 30.46C212.62 30.95 212.58 31.44 212.59 31.94C212.6 32.43 212.66 32.92 212.77 33.41C212.88 33.89 213.03 34.36 213.23 34.82L211.45 35.6Z" />
		<path id="Path_58" class="shp1" d="M222.84 32.89C222.84 32.91 222.83 32.94 222.82 32.97C222.81 32.99 222.81 33.02 222.8 33.05C222.79 33.08 222.79 33.1 222.78 33.13C222.78 33.16 222.77 33.19 222.77 33.22L221.33 34.13C220.29 32.52 219.14 30.98 217.89 29.54C216.63 28.1 215.26 26.75 213.81 25.51C212.35 24.27 210.8 23.14 209.18 22.12C207.56 21.11 205.86 20.22 204.11 19.45L204.88 17.67C206.71 18.46 208.47 19.39 210.16 20.44C211.85 21.5 213.46 22.67 214.98 23.96C216.5 25.24 217.92 26.64 219.24 28.13C220.55 29.63 221.76 31.22 222.84 32.89" />
		<path id="Path_59" class="shp1" d="M211.18 23.17C211.15 22.35 211.07 21.53 210.95 20.71C210.82 19.9 210.65 19.09 210.44 18.3C210.22 17.5 209.96 16.72 209.65 15.96C209.35 15.2 209 14.45 208.6 13.73L210.32 12.8C210.75 13.59 211.13 14.41 211.46 15.24C211.8 16.07 212.08 16.93 212.32 17.79C212.55 18.66 212.74 19.54 212.88 20.42C213.01 21.31 213.1 22.21 213.13 23.1L211.18 23.17Z" />
		<path id="Path_60" class="shp1" d="M222.65 46.06L220.81 45.43C222.17 41.47 225.53 38.73 228.5 36.31C231.68 33.71 234.4 31.29 235.43 27.99L237.29 28.56C236.1 32.37 233.04 35.11 229.74 37.81C226.97 40.07 223.84 42.63 222.66 46.06" />
		<path id="Path_61" class="shp1" d="M232.06 35.6L230.27 34.81C230.47 34.36 230.63 33.89 230.74 33.41C230.84 32.92 230.9 32.43 230.91 31.94C230.93 31.44 230.89 30.95 230.81 30.46C230.72 29.97 230.59 29.49 230.41 29.03L232.23 28.33C232.45 28.91 232.62 29.51 232.72 30.12C232.83 30.74 232.88 31.36 232.86 31.98C232.85 32.6 232.77 33.22 232.64 33.83C232.5 34.44 232.31 35.03 232.06 35.6" />
		<path id="Path_62" class="shp1" d="M239.41 19.45C237.65 20.22 235.96 21.11 234.33 22.12C232.71 23.14 231.16 24.27 229.71 25.51C228.25 26.75 226.89 28.1 225.63 29.54C224.37 30.98 223.22 32.52 222.19 34.13L220.99 33.37C220.99 33.35 220.99 33.33 220.99 33.31C220.99 33.29 221 33.26 221 33.24C221 33.22 221 33.2 221 33.18C221 33.15 221 33.13 221 33.11C221 33.06 221 33.01 221 32.95C220.99 32.9 220.99 32.85 220.98 32.8C220.97 32.75 220.97 32.7 220.96 32.65C220.95 32.59 220.93 32.54 220.92 32.49C222 30.87 223.2 29.32 224.5 27.87C225.8 26.42 227.21 25.06 228.7 23.81C230.2 22.55 231.79 21.41 233.45 20.38C235.11 19.36 236.84 18.45 238.63 17.67L239.41 19.45Z" />
		<path id="Path_63" class="shp1" d="M232.33 23.17L230.38 23.1C230.41 22.2 230.5 21.31 230.63 20.42C230.77 19.53 230.95 18.65 231.19 17.79C231.43 16.92 231.71 16.07 232.05 15.24C232.38 14.4 232.76 13.59 233.19 12.8L234.9 13.72C234.51 14.45 234.16 15.19 233.86 15.96C233.55 16.72 233.29 17.5 233.07 18.3C232.86 19.09 232.68 19.9 232.56 20.71C232.44 21.52 232.36 22.35 232.33 23.17L232.33 23.17Z" />
		<path id="Path_64" class="shp1" d="M220.84 22.97C219.96 21.66 219.05 20.36 218.12 19.09C217.18 17.81 216.22 16.56 215.22 15.33C214.23 14.1 213.21 12.89 212.16 11.7C211.12 10.52 210.05 9.36 208.95 8.22L210.35 6.87C211.47 8.03 212.56 9.21 213.63 10.42C214.69 11.63 215.73 12.86 216.74 14.11C217.75 15.37 218.74 16.64 219.69 17.94C220.64 19.24 221.57 20.55 222.47 21.89L220.84 22.97Z" />
		<path id="Path_65" class="shp1" d="M216.75 15.19L214.89 14.62C215.16 13.76 215.44 12.91 215.73 12.06C216.02 11.21 216.32 10.36 216.63 9.52C216.95 8.67 217.27 7.83 217.61 7C217.94 6.17 218.29 5.34 218.65 4.51L220.44 5.29C220.09 6.1 219.75 6.91 219.42 7.73C219.09 8.54 218.77 9.37 218.46 10.19C218.16 11.02 217.86 11.85 217.57 12.68C217.29 13.52 217.02 14.36 216.75 15.2" />
		<path id="Path_66" class="shp1" d="M222.74 22.51L221.12 21.44C222.01 20.1 222.94 18.78 223.89 17.48C224.85 16.18 225.83 14.91 226.84 13.66C227.85 12.4 228.89 11.17 229.95 9.96C231.02 8.76 232.11 7.57 233.23 6.41L234.64 7.76C233.54 8.9 232.47 10.06 231.42 11.25C230.37 12.43 229.35 13.64 228.36 14.87C227.37 16.1 226.4 17.36 225.47 18.63C224.53 19.9 223.62 21.2 222.74 22.51" />
		<path id="Path_67" class="shp1" d="M226.83 14.74C226.57 13.9 226.29 13.06 226.01 12.22C225.72 11.39 225.43 10.56 225.12 9.73C224.81 8.91 224.49 8.09 224.16 7.27C223.83 6.45 223.49 5.64 223.14 4.83L224.93 4.06C225.29 4.88 225.64 5.71 225.97 6.54C226.31 7.38 226.63 8.21 226.95 9.06C227.26 9.9 227.56 10.75 227.85 11.6C228.14 12.45 228.42 13.3 228.69 14.16L226.83 14.74Z" />
		<path id="Path_68" class="shp1" d="M227.8 6C227.66 5.6 227.57 5.18 227.55 4.75C227.53 4.33 227.57 3.9 227.67 3.49C227.77 3.07 227.94 2.68 228.16 2.31C228.37 1.94 228.65 1.61 228.96 1.33C229.07 1.23 229.18 1.14 229.29 1.06C229.41 0.97 229.52 0.89 229.65 0.82C229.77 0.74 229.89 0.68 230.02 0.62C230.15 0.56 230.28 0.5 230.41 0.45L231.69 0L232.15 1.27C232.35 1.81 232.43 2.37 232.41 2.94C232.38 3.51 232.24 4.07 232 4.59C231.75 5.1 231.41 5.56 230.99 5.95C230.57 6.33 230.07 6.63 229.54 6.82C229.41 6.86 229.28 6.89 229.15 6.9C229.02 6.9 228.88 6.89 228.75 6.86C228.62 6.83 228.5 6.78 228.38 6.71C228.27 6.64 228.17 6.55 228.08 6.46C228.05 6.42 228.02 6.39 227.99 6.35C227.96 6.32 227.94 6.28 227.92 6.24C227.89 6.2 227.87 6.16 227.85 6.12C227.83 6.08 227.82 6.04 227.8 6Z" />
		<path id="Path_69" class="shp1" d="M220.99 16.42C220.58 16.02 220.26 15.54 220.04 15.02C219.83 14.49 219.71 13.93 219.71 13.36C219.71 12.79 219.83 12.22 220.04 11.7C220.26 11.17 220.58 10.69 220.99 10.29L221.95 9.34L222.91 10.29C223.31 10.69 223.63 11.17 223.85 11.7C224.07 12.22 224.18 12.79 224.18 13.36C224.18 13.93 224.07 14.49 223.85 15.02C223.63 15.54 223.31 16.02 222.91 16.42C222.78 16.55 222.63 16.65 222.46 16.71C222.3 16.78 222.12 16.82 221.95 16.82C221.77 16.82 221.59 16.78 221.43 16.71C221.26 16.65 221.11 16.55 220.99 16.42Z" />
		<path id="Path_70" class="shp1" d="M235.34 16.11C235.42 15.73 235.58 15.36 235.8 15.04C236.02 14.71 236.31 14.43 236.64 14.22C236.97 14 237.34 13.85 237.72 13.78C238.11 13.71 238.51 13.71 238.9 13.79L239.81 13.98L239.62 14.9C239.54 15.28 239.38 15.65 239.16 15.97C238.94 16.3 238.65 16.58 238.32 16.79C237.99 17.01 237.62 17.16 237.24 17.23C236.85 17.3 236.45 17.3 236.07 17.22C235.95 17.2 235.83 17.15 235.73 17.08C235.63 17.01 235.54 16.92 235.48 16.82C235.41 16.72 235.36 16.6 235.34 16.48C235.32 16.36 235.32 16.24 235.34 16.12" />
		<path id="Path_71" class="shp1" d="M233.38 25.4C233.53 24.85 233.78 24.33 234.12 23.88C234.47 23.42 234.9 23.04 235.39 22.75C235.89 22.46 236.43 22.28 237 22.2C237.56 22.12 238.14 22.16 238.69 22.3L240 22.64L239.66 23.95C239.58 24.22 239.49 24.49 239.36 24.75C239.24 25 239.09 25.24 238.92 25.47C238.74 25.7 238.55 25.91 238.34 26.09C238.12 26.28 237.89 26.45 237.65 26.59C237.4 26.74 237.14 26.85 236.87 26.95C236.6 27.04 236.32 27.11 236.04 27.15C235.76 27.18 235.47 27.2 235.19 27.18C234.9 27.16 234.62 27.12 234.35 27.04C234.22 27.01 234.09 26.96 233.98 26.89C233.87 26.82 233.77 26.73 233.68 26.63C233.59 26.54 233.51 26.42 233.46 26.3C233.4 26.18 233.37 26.05 233.35 25.92C233.34 25.88 233.34 25.83 233.34 25.79C233.33 25.75 233.34 25.7 233.34 25.66C233.34 25.62 233.35 25.57 233.35 25.53C233.36 25.49 233.37 25.44 233.38 25.4L233.38 25.4Z" />
		<path id="Path_72" class="shp1" d="M208.62 16.12C208.65 16.24 208.65 16.36 208.62 16.48C208.6 16.6 208.55 16.72 208.49 16.82C208.42 16.92 208.33 17.01 208.23 17.08C208.13 17.15 208.01 17.2 207.89 17.22C207.51 17.3 207.11 17.3 206.72 17.23C206.34 17.16 205.97 17.01 205.64 16.79C205.31 16.58 205.02 16.3 204.8 15.97C204.58 15.65 204.42 15.28 204.34 14.9L204.15 13.98L205.06 13.79C205.45 13.71 205.85 13.71 206.24 13.78C206.62 13.85 206.99 14 207.32 14.22C207.65 14.43 207.94 14.71 208.16 15.04C208.38 15.36 208.54 15.73 208.62 16.11" />
		<path id="Path_73" class="shp1" d="M210.57 25.4C210.6 25.49 210.61 25.57 210.62 25.66C210.62 25.75 210.62 25.84 210.6 25.93C210.59 26.01 210.57 26.1 210.54 26.18C210.51 26.27 210.48 26.35 210.43 26.42C210.39 26.5 210.33 26.57 210.27 26.64C210.22 26.7 210.15 26.76 210.08 26.82C210.01 26.87 209.93 26.92 209.85 26.96C209.77 27 209.69 27.03 209.6 27.05C209.05 27.19 208.48 27.22 207.91 27.15C207.35 27.07 206.81 26.88 206.31 26.59C205.82 26.3 205.39 25.92 205.05 25.47C204.7 25.02 204.45 24.5 204.3 23.95L203.96 22.64L205.27 22.3C205.82 22.16 206.4 22.12 206.96 22.2C207.53 22.28 208.07 22.46 208.57 22.75C209.06 23.04 209.49 23.42 209.84 23.88C210.18 24.33 210.43 24.85 210.58 25.4" />
		<path id="Path_74" class="shp1" d="M215.73 6C215.67 6.17 215.58 6.32 215.46 6.45C215.34 6.59 215.19 6.69 215.03 6.77C214.87 6.84 214.7 6.89 214.52 6.9C214.34 6.9 214.16 6.88 213.99 6.82C213.46 6.63 212.96 6.33 212.54 5.95C212.12 5.56 211.78 5.1 211.54 4.59C211.29 4.07 211.15 3.51 211.13 2.94C211.1 2.37 211.19 1.81 211.38 1.27L211.84 0L213.11 0.45C213.65 0.65 214.14 0.94 214.56 1.32C214.99 1.71 215.33 2.17 215.57 2.68C215.81 3.2 215.95 3.76 215.98 4.33C216.01 4.9 215.92 5.46 215.73 6" />
		<path id="Path_75" class="shp1" d="M219 35.45C218.98 35.57 218.93 35.68 218.86 35.79C218.79 35.89 218.7 35.97 218.59 36.04C218.49 36.11 218.38 36.15 218.26 36.17C218.13 36.2 218.01 36.19 217.89 36.17C217.5 36.09 217.14 35.93 216.82 35.71C216.49 35.48 216.21 35.2 216 34.87C215.78 34.54 215.64 34.17 215.57 33.78C215.49 33.39 215.5 33 215.58 32.61L215.78 31.7L216.7 31.89C216.79 31.91 216.89 31.94 216.98 31.97C217.08 32 217.17 32.03 217.26 32.07C217.35 32.11 217.44 32.15 217.52 32.2C217.61 32.25 217.69 32.3 217.77 32.36C218.02 32.52 218.24 32.72 218.42 32.96C218.6 33.19 218.75 33.44 218.86 33.72C218.97 33.99 219.04 34.28 219.06 34.57C219.09 34.87 219.07 35.16 219.01 35.45" />
		<path id="Path_76" class="shp1" d="M219 24.06C218.98 24.19 218.93 24.3 218.86 24.4C218.79 24.5 218.7 24.59 218.59 24.65C218.49 24.72 218.38 24.77 218.26 24.79C218.13 24.81 218.01 24.81 217.89 24.78C217.5 24.7 217.14 24.54 216.81 24.32C216.49 24.1 216.21 23.81 216 23.48C215.78 23.15 215.64 22.78 215.57 22.39C215.49 22.01 215.5 21.61 215.58 21.22L215.78 20.31L216.7 20.51C216.79 20.53 216.89 20.56 216.98 20.59C217.08 20.62 217.17 20.65 217.26 20.69C217.35 20.73 217.44 20.77 217.52 20.82C217.61 20.87 217.69 20.92 217.77 20.97C218.02 21.14 218.24 21.34 218.42 21.57C218.61 21.8 218.75 22.06 218.86 22.34C218.97 22.61 219.04 22.9 219.07 23.19C219.09 23.49 219.07 23.79 219.01 24.07" />
		<path id="Path_77" class="shp1" d="M224.37 35.45C224.3 35.16 224.28 34.87 224.31 34.57C224.33 34.28 224.4 33.99 224.51 33.72C224.62 33.44 224.77 33.19 224.95 32.96C225.14 32.72 225.35 32.52 225.6 32.36C225.68 32.3 225.76 32.25 225.85 32.2C225.93 32.15 226.02 32.11 226.11 32.07C226.2 32.03 226.3 32 226.39 31.97C226.48 31.94 226.58 31.91 226.68 31.89L227.59 31.7L227.79 32.61C227.87 33 227.88 33.39 227.81 33.78C227.73 34.17 227.59 34.54 227.37 34.87C227.16 35.2 226.88 35.48 226.56 35.71C226.23 35.93 225.87 36.09 225.48 36.17C225.36 36.19 225.24 36.2 225.12 36.17C225 36.15 224.88 36.11 224.78 36.04C224.67 35.97 224.58 35.89 224.51 35.79C224.44 35.68 224.39 35.57 224.37 35.45L224.37 35.45Z" />
		<path id="Path_78" class="shp1" d="M224.37 24.07C224.3 23.79 224.28 23.49 224.31 23.19C224.33 22.9 224.4 22.61 224.51 22.34C224.62 22.06 224.77 21.8 224.95 21.57C225.14 21.34 225.35 21.14 225.6 20.97C225.68 20.92 225.76 20.87 225.85 20.82C225.93 20.77 226.02 20.73 226.11 20.69C226.2 20.65 226.3 20.62 226.39 20.59C226.48 20.56 226.58 20.53 226.68 20.51L227.59 20.31L227.79 21.22C227.87 21.61 227.88 22.01 227.81 22.39C227.74 22.78 227.59 23.15 227.37 23.48C227.16 23.81 226.88 24.1 226.56 24.32C226.23 24.54 225.87 24.7 225.48 24.78C225.36 24.81 225.24 24.81 225.12 24.79C225 24.77 224.88 24.72 224.78 24.65C224.67 24.59 224.58 24.5 224.51 24.4C224.44 24.3 224.39 24.19 224.37 24.06L224.37 24.07Z" />
	</g>
</svg>