<svg xmlns="http://www.w3.org/2000/svg" width="240" height="48" viewBox="0 0 240 48">
  <g id="Group_5" data-name="Group 5" transform="translate(2946 -793)">
    <path id="Path_11" data-name="Path 11" d="M108.629,114.409l-1.3-1.084-1,1.132-1.364-1.132,1.136-1.311,1.3,1.117,1.007-1.165,1.363,1.165Zm-1.574-3.235a5.148,5.148,0,0,1-3.433-1.019,3.583,3.583,0,0,1-1.194-2.88,8.97,8.97,0,0,1,1.072-4l1.623.647a7.793,7.793,0,0,0-.633,2.734q0,2.3,3,2.3,2.682,0,3.377-1.52a17.692,17.692,0,0,1-2.776-.712l.422-2.038a18,18,0,0,0,4.611.631h.243v2.33h-.211c-.26,0-.454-.006-.583-.017a3.906,3.906,0,0,1-1.745,2.572,6.62,6.62,0,0,1-3.774.971" transform="translate(-3048 703)" fill="#1d465c"/>
    <path id="Path_12" data-name="Path 12" d="M121.927,105.335a14.848,14.848,0,0,0,3.815-.407,2.854,2.854,0,0,0-.6-1.917,2.031,2.031,0,0,0-1.591-.655,3.518,3.518,0,0,0-2.04.655,9.009,9.009,0,0,0-2.038,2.176,17.629,17.629,0,0,0,2.452.145Zm7.011,2.311a4.826,4.826,0,0,1-2.516-.631,14.548,14.548,0,0,1-4.936.7,10.719,10.719,0,0,1-4.951-.938,3.709,3.709,0,0,1-2.777.871h-.389q-.21,0-.365-.34a2.277,2.277,0,0,1,0-1.649c.1-.227.224-.341.365-.341h.374a2.067,2.067,0,0,0,1.412-.331,1.367,1.367,0,0,0,.325-1v-2.265l1.948-.146v1.942a8.237,8.237,0,0,1-.065,1.132l.243.1a10.257,10.257,0,0,1,2.922-3.518,5.835,5.835,0,0,1,3.377-1.076,3.552,3.552,0,0,1,2.688,1.059,3.85,3.85,0,0,1,1.014,2.775,9.986,9.986,0,0,1-.081,1.2,7.607,7.607,0,0,0,1.347.129h.471v2.329Z" transform="translate(-3048 703)" fill="#1d465c"/>
    <path id="Path_13" data-name="Path 13" d="M137.9,105.335a14.841,14.841,0,0,0,3.814-.407,2.854,2.854,0,0,0-.6-1.917,2.031,2.031,0,0,0-1.591-.655,3.518,3.518,0,0,0-2.04.655,9.008,9.008,0,0,0-2.038,2.176,17.638,17.638,0,0,0,2.452.145Zm7.01,2.311a4.826,4.826,0,0,1-2.516-.631,14.545,14.545,0,0,1-4.936.7,10.721,10.721,0,0,1-4.951-.938,3.71,3.71,0,0,1-2.776.871h-.39c-.141,0-.262-.113-.365-.34a2.277,2.277,0,0,1,0-1.649c.1-.227.224-.341.365-.341h.374a2.067,2.067,0,0,0,1.412-.331,1.367,1.367,0,0,0,.325-1v-2.265l1.948-.146v1.942a8.237,8.237,0,0,1-.065,1.132l.243.1a10.249,10.249,0,0,1,2.923-3.518,5.83,5.83,0,0,1,3.376-1.076,3.552,3.552,0,0,1,2.688,1.059,3.85,3.85,0,0,1,1.014,2.775,9.783,9.783,0,0,1-.081,1.2,7.609,7.609,0,0,0,1.348.129h.47v2.329Z" transform="translate(-3048 703)" fill="#1d465c"/>
    <path id="Path_14" data-name="Path 14" d="M149.558,97.052l1.493,1.278-1.233,1.394L148.324,98.5Zm-4.237,10.6c-.141,0-.262-.114-.366-.34a2.29,2.29,0,0,1,0-1.65c.1-.227.225-.34.366-.34h.615a34.3,34.3,0,0,0,6.039-.42q-2.451-2.33-3.328-2.33a1.061,1.061,0,0,0-.617.17,2.015,2.015,0,0,0-.519.655l-1.445-.549a4.374,4.374,0,0,1,1.12-1.8,2.31,2.31,0,0,1,1.559-.558q1.233,0,3.214,1.715.341.29,1.737,1.568a8.231,8.231,0,0,0,1.648,1.27,3.5,3.5,0,0,0,1.534.282h.243v2.33h-.341a4.277,4.277,0,0,1-3-1.051,31.357,31.357,0,0,1-8.231,1.051Z" transform="translate(-3048 703)" fill="#1d465c"/>
    <path id="Path_15" data-name="Path 15" d="M160.353,100.6l-1.3-1.083-1.007,1.132-1.363-1.132,1.136-1.31,1.3,1.116,1.007-1.164,1.364,1.164Zm-3.23,7.053q-.21,0-.366-.34a2.288,2.288,0,0,1,0-1.649q.156-.34.366-.34h.244a3.055,3.055,0,0,0,1.745-.34,1.182,1.182,0,0,0,.43-.987v-2.265l1.948-.146v2.2a7.51,7.51,0,0,1-.1,1.262,7.1,7.1,0,0,0,2.11.274h.1v2.33h-.438a4.66,4.66,0,0,1-2.792-.744,4.358,4.358,0,0,1-2.792.744Z" transform="translate(-3048 703)" fill="#1d465c"/>
    <path id="Path_16" data-name="Path 16" d="M163.6,107.648q-.21,0-.365-.34a2.288,2.288,0,0,1,0-1.649q.154-.34.365-.341h.13a8.008,8.008,0,0,0,1.754-.177q.064-1.02.064-2.621,0-2.313-.049-6.421l2.079-.178q.015,4.254.016,6.26,0,1.844-.073,2.871a7.8,7.8,0,0,1-.333,1.836,6.318,6.318,0,0,1-1.559.534,8.717,8.717,0,0,1-1.931.226Z" transform="translate(-3048 703)" fill="#1d465c"/>
    <path id="Path_17" data-name="Path 17" d="M171.7,107.646h-2.061V96.1l2.061-.178Z" transform="translate(-3048 703)" fill="#1d465c"/>
    <path id="Path_18" data-name="Path 18" d="M182.077,111.174a5.144,5.144,0,0,1-3.434-1.019,3.583,3.583,0,0,1-1.194-2.88,8.97,8.97,0,0,1,1.072-4l1.623.647a7.793,7.793,0,0,0-.633,2.734q0,2.3,3,2.3,2.682,0,3.377-1.52a17.692,17.692,0,0,1-2.776-.712l.422-2.038a18,18,0,0,0,4.611.631h.243v2.33h-.211c-.26,0-.454-.006-.583-.017a3.916,3.916,0,0,1-1.745,2.572,6.622,6.622,0,0,1-3.774.971" transform="translate(-3048 703)" fill="#1d465c"/>
    <path id="Path_19" data-name="Path 19" d="M198.049,107.663a2.777,2.777,0,0,1-2.209-.841,3.21,3.21,0,0,1-2.581.9,4.355,4.355,0,0,1-2.548-.711,3.529,3.529,0,0,1-2.144.63h-.178q-.21,0-.365-.339a2.28,2.28,0,0,1,0-1.65q.154-.34.365-.34h.438a1.467,1.467,0,0,0,1.031-.323,1.88,1.88,0,0,0,.43-1.214l.082-1.148,1.834-.146-.081,1.327a7.43,7.43,0,0,1-.146,1.132,2.767,2.767,0,0,0,1.364.323,2.032,2.032,0,0,0,1.184-.323,1.145,1.145,0,0,0,.471-1.019v-1.537l1.851-.129v1.877q0,1.179,1.266,1.18a3.48,3.48,0,0,0,1.364-.259,16.725,16.725,0,0,0-.471-3.122l1.932-.42a11.684,11.684,0,0,1,.341,2.652,8.815,8.815,0,0,1-.341,2.7A5.841,5.841,0,0,1,198.049,107.663Z" transform="translate(-3048 703)" fill="#1d465c"/>
    <path id="Path_20" data-name="Path 20" d="M206.851,105.318h1.166a4.5,4.5,0,0,0-.544-1.975,1.484,1.484,0,0,0-1.323-.9,1.211,1.211,0,0,0-.581.112,1.2,1.2,0,0,0-.458.373,1.8,1.8,0,0,0-.357,1.1,1.085,1.085,0,0,0,.113.543,1.1,1.1,0,0,0,.366.419,2.931,2.931,0,0,0,1.615.332Zm-2.081,5.758a7.178,7.178,0,0,1-1.786-.243l.194-1.925a7.174,7.174,0,0,0,1.3.116,4.325,4.325,0,0,0,2.273-.517,2.454,2.454,0,0,0,1.087-1.165,14.9,14.9,0,0,1-1.69.081,3.117,3.117,0,0,1-2.459-.817,3.311,3.311,0,0,1-.707-2.24,4.406,4.406,0,0,1,.933-2.846,2.881,2.881,0,0,1,2.345-1.165,3.052,3.052,0,0,1,2.545,1.324,6.142,6.142,0,0,1,1.05,3.639h.942v2.33h-1.206q-.942,3.426-4.822,3.427" transform="translate(-3048 703)" fill="#1d465c"/>
    <path id="Path_21" data-name="Path 21" d="M216.407,105.53a4.263,4.263,0,0,0,1.493-.243,8.615,8.615,0,0,0-.657-1.975,1.025,1.025,0,0,0-.95-.566,1.371,1.371,0,0,0-1,.406,7.192,7.192,0,0,0-1.065,1.685l-.148.29a6.424,6.424,0,0,0,2.325.4Zm4.492,2.117a3.126,3.126,0,0,1-2.094-.615,5.263,5.263,0,0,1-2.627.63,6.32,6.32,0,0,1-3.273-.777,2.782,2.782,0,0,1-1.978.761h-.13c-.14,0-.262-.114-.365-.34a2.28,2.28,0,0,1,0-1.65q.154-.34.365-.34h.276a1.237,1.237,0,0,0,1.1-.566,4.2,4.2,0,0,0,.374-.575l.419-.813L213,103.3l.044-.086c.017-.034.034-.065.049-.094a6.2,6.2,0,0,1,1.353-1.849,2.878,2.878,0,0,1,1.956-.629q2.239,0,3,3.155a2.606,2.606,0,0,0,.511,1.229,1.579,1.579,0,0,0,1.1.29h.357v2.33Z" transform="translate(-3048 703)" fill="#1d465c"/>
    <path id="Path_22" data-name="Path 22" d="M221.378,107.648q-.21,0-.365-.34a2.288,2.288,0,0,1,0-1.649q.154-.34.365-.341h.13a8.008,8.008,0,0,0,1.754-.177q.064-1.02.065-2.621,0-2.313-.049-6.421l2.078-.178q.015,4.254.016,6.26,0,1.844-.073,2.871a7.8,7.8,0,0,1-.333,1.836,6.325,6.325,0,0,1-1.558.534,8.732,8.732,0,0,1-1.932.226Z" transform="translate(-3048 703)" fill="#1d465c"/>
    <path id="Path_23" data-name="Path 23" d="M229.48,107.646h-2.062V96.1l2.062-.178Z" transform="translate(-3048 703)" fill="#1d465c"/>
    <path id="Path_24" data-name="Path 24" d="M249.512,129.041v-5.307h-6.121v5.307h-1.165v-11.29h1.165v4.983h6.121v-4.983h1.166v11.29Z" transform="translate(-3048 703)" fill="#1d465c"/>
    <path id="Path_25" data-name="Path 25" d="M254.959,122.581a4.8,4.8,0,0,0,0,4.791,2.46,2.46,0,0,0,3.764.008,4.891,4.891,0,0,0,0-4.806,2.461,2.461,0,0,0-3.764.007Zm4.589-.7a5.42,5.42,0,0,1,0,6.194,3.738,3.738,0,0,1-5.415,0,5.388,5.388,0,0,1,0-6.194,3.736,3.736,0,0,1,5.415,0Z" transform="translate(-3048 703)" fill="#1d465c"/>
    <path id="Path_26" data-name="Path 26" d="M267.3,121.123l-.162.952a6.843,6.843,0,0,0-2.073-.371q-1.732,0-1.731,1.29a1.283,1.283,0,0,0,.121.581.994.994,0,0,0,.421.411,4.826,4.826,0,0,0,.534.266c.156.065.391.145.7.242a6.443,6.443,0,0,1,2.072.952,1.787,1.787,0,0,1,.648,1.483,1.971,1.971,0,0,1-.826,1.727,3.709,3.709,0,0,1-2.169.581,7.955,7.955,0,0,1-1.516-.154,5.986,5.986,0,0,1-1.19-.331l.194-.968a7.137,7.137,0,0,0,2.494.469,2.422,2.422,0,0,0,1.375-.34,1.1,1.1,0,0,0,.5-.967,1.007,1.007,0,0,0-.485-.895,7.048,7.048,0,0,0-1.668-.669,4.811,4.811,0,0,1-1.748-.863,1.873,1.873,0,0,1-.615-1.511,2.05,2.05,0,0,1,.737-1.7,3.25,3.25,0,0,1,2.079-.589,6.053,6.053,0,0,1,2.3.4" transform="translate(-3048 703)" fill="#1d465c"/>
    <path id="Path_27" data-name="Path 27" d="M270.976,122.171V127.8a3.8,3.8,0,0,0,1.749.452,2.524,2.524,0,0,0,2.088-.887,4.013,4.013,0,0,0,.712-2.565,3.563,3.563,0,0,0-.663-2.234,2.374,2.374,0,0,0-2.007-.863,3.747,3.747,0,0,0-1.879.465Zm1.924-1.455a3.572,3.572,0,0,1,2.825,1.1,4.3,4.3,0,0,1,.979,2.962,5.008,5.008,0,0,1-.971,3.227,3.5,3.5,0,0,1-2.9,1.209,4.261,4.261,0,0,1-1.862-.4v3.21h-1.132V121.477a6.544,6.544,0,0,1,3.059-.755" transform="translate(-3048 703)" fill="#1d465c"/>
    <path id="Path_28" data-name="Path 28" d="M280.236,129.042H279.1V120.91h1.133ZM280.228,119a.822.822,0,0,1-1.117,0,.782.782,0,0,1-.2-.556.761.761,0,0,1,1.521,0A.786.786,0,0,1,280.228,119Z" transform="translate(-3048 703)" fill="#1d465c"/>
    <path id="Path_29" data-name="Path 29" d="M286.889,129.076a4.792,4.792,0,0,1-1.215.161q-2.379,0-2.379-2.58v-4.791h-1.231v-.952H283.3V119l1.133-.081v2h2.2v.952h-2.2v4.786a1.758,1.758,0,0,0,.35,1.226,1.365,1.365,0,0,0,1.044.371,3.5,3.5,0,0,0,.987-.129Z" transform="translate(-3048 703)" fill="#1d465c"/>
    <path id="Path_30" data-name="Path 30" d="M291.228,128.331a3.6,3.6,0,0,0,1.942-.451v-2.452a9.1,9.1,0,0,0-1.845-.226q-2.121,0-2.121,1.613a1.317,1.317,0,0,0,.524,1.129,2.491,2.491,0,0,0,1.5.387Zm3.057.146a6.149,6.149,0,0,1-3.156.755,3.485,3.485,0,0,1-2.267-.654,2.137,2.137,0,0,1-.6-.774,2.113,2.113,0,0,1-.192-.959,2.083,2.083,0,0,1,.2-1.037,2.1,2.1,0,0,1,.678-.81,3.982,3.982,0,0,1,2.267-.621,8.958,8.958,0,0,1,1.958.226v-.936q0-1.966-2.12-1.968a5.463,5.463,0,0,0-2.186.42l-.259-.936a6.353,6.353,0,0,1,2.526-.468,3.277,3.277,0,0,1,2.363.767,2.962,2.962,0,0,1,.793,2.234Z" transform="translate(-3048 703)" fill="#1d465c"/>
    <path id="Path_31" data-name="Path 31" d="M298.172,117.365v9.37a2.17,2.17,0,0,0,.242,1.162.93.93,0,0,0,.842.371,3.9,3.9,0,0,0,.47-.049l.1.92a3.365,3.365,0,0,1-.728.1q-2.055,0-2.056-2.484v-9.307Z" transform="translate(-3048 703)" fill="#1d465c"/>
    <path id="Path_32" data-name="Path 32" d="M324.806,110.789h-1.95V138h1.95Z" transform="translate(-3048 703)" fill="#5bae3a"/>
    <path id="Path_33" data-name="Path 33" d="M239.853,111.176a5.147,5.147,0,0,1-3.434-1.019,3.586,3.586,0,0,1-1.193-2.879,8.957,8.957,0,0,1,1.072-4l1.622.647a7.816,7.816,0,0,0-.633,2.734q0,2.3,3,2.3,2.681,0,3.376-1.52a17.9,17.9,0,0,1-2.775-.712l.422-2.038a18.044,18.044,0,0,0,4.611.63h.243v2.33h-.211c-.26,0-.455-.006-.583-.016a3.907,3.907,0,0,1-1.746,2.571,6.62,6.62,0,0,1-3.774.971" transform="translate(-3048 703)" fill="#1d465c"/>
    <path id="Path_34" data-name="Path 34" d="M250.389,96.132l1.494,1.278L250.649,98.8l-1.493-1.229Zm-1.428,6.713q0,1.132,1.526,1.975,1.64-.744,1.639-1.747a1.372,1.372,0,0,0-.471-1.068,1.735,1.735,0,0,0-1.2-.42,1.57,1.57,0,0,0-1.063.372,1.136,1.136,0,0,0-.43.89Zm-2.793,4.806c-.14,0-.262-.114-.365-.34a2.29,2.29,0,0,1,0-1.65c.1-.226.225-.34.365-.34h.408a13.742,13.742,0,0,0,1.672-.113,3.355,3.355,0,0,1-.941-2.377,3.149,3.149,0,0,1,.957-2.475,3.424,3.424,0,0,1,2.371-.858,3.309,3.309,0,0,1,2.3.84,2.938,2.938,0,0,1,.933,2.3,3.512,3.512,0,0,1-1.088,2.572,15.427,15.427,0,0,0,1.785.113h.52v2.33h-.956a8.8,8.8,0,0,1-3.8-.68,10.244,10.244,0,0,1-3.8.68Z" transform="translate(-3048 703)" fill="#1d465c"/>
    <path id="Path_35" data-name="Path 35" d="M262.224,96.828l1.25,1.051-1.023,1.165-1.25-1.019Zm1.542,4.221L262.483,100l-1.022,1.149-1.331-1.1,1.1-1.294,1.282,1.1,1.023-1.2,1.348,1.148Zm.942,6.665a2.677,2.677,0,0,1-2.176-.871,3.245,3.245,0,0,1-2.581.89,4.361,4.361,0,0,1-2.549-.712,3.527,3.527,0,0,1-2.143.631h-.178q-.21,0-.366-.34a2.29,2.29,0,0,1,0-1.65q.156-.341.366-.34h.438A1.463,1.463,0,0,0,256.55,105a1.879,1.879,0,0,0,.43-1.213l.081-1.165,1.835-.13-.082,1.327a7.329,7.329,0,0,1-.145,1.133,2.732,2.732,0,0,0,1.347.322,2.036,2.036,0,0,0,1.2-.331,1.153,1.153,0,0,0,.471-1.011v-1.52l1.851-.117v1.845q0,1.181,1.266,1.18t1.267-1.083v-2.071l1.834-.162v2.2a6.781,6.781,0,0,1-.049.842,3.951,3.951,0,0,0,1.786.274h.211v2.33h-.325a4.524,4.524,0,0,1-2.516-.728,3.162,3.162,0,0,1-2.3.792" transform="translate(-3048 703)" fill="#1d465c"/>
    <path id="Path_36" data-name="Path 36" d="M273.084,100.6l-1.3-1.084-1.007,1.132-1.364-1.132,1.137-1.31,1.3,1.116,1.006-1.165,1.364,1.165Zm-3.23,7.052q-.211,0-.366-.339a2.29,2.29,0,0,1,0-1.65q.156-.341.366-.34h.244a3.063,3.063,0,0,0,1.745-.339,1.185,1.185,0,0,0,.334-.443,1.171,1.171,0,0,0,.1-.545v-2.265l1.948-.146v2.2a7.51,7.51,0,0,1-.1,1.262,7.1,7.1,0,0,0,2.11.275h.1v2.329h-.438a4.653,4.653,0,0,1-2.792-.744,4.358,4.358,0,0,1-2.792.744Z" transform="translate(-3048 703)" fill="#1d465c"/>
    <path id="Path_37" data-name="Path 37" d="M285.959,107.714a2.674,2.674,0,0,1-2.175-.871,3.247,3.247,0,0,1-2.581.89,4.349,4.349,0,0,1-2.549-.712,3.529,3.529,0,0,1-2.143.631h-.179q-.21,0-.365-.34a2.29,2.29,0,0,1,0-1.65c.1-.226.225-.34.365-.34h.439A1.46,1.46,0,0,0,277.8,105a1.878,1.878,0,0,0,.431-1.213l.081-1.165,1.835-.129-.082,1.326a7.338,7.338,0,0,1-.146,1.133,2.749,2.749,0,0,0,1.347.323,2.052,2.052,0,0,0,1.2-.331,1.175,1.175,0,0,0,.366-.446,1.161,1.161,0,0,0,.105-.566v-1.52l1.85-.116v1.844q0,1.181,1.267,1.181t1.266-1.084v-2.071l1.834-.161v2.2a6.775,6.775,0,0,1-.048.842,3.963,3.963,0,0,0,1.786.275h.21v2.329h-.324a4.512,4.512,0,0,1-2.516-.728,3.169,3.169,0,0,1-2.306.793" transform="translate(-3048 703)" fill="#1d465c"/>
    <path id="Path_38" data-name="Path 38" d="M296.966,105.531c.331,0,.662-.016.991-.048a5.625,5.625,0,0,0,.065-.809,2.467,2.467,0,0,0-.358-1.383,1.135,1.135,0,0,0-1.006-.542,1.4,1.4,0,0,0-1.023.413,7.061,7.061,0,0,0-1.072,1.69c-.075.151-.116.243-.129.274a7.062,7.062,0,0,0,2.532.407Zm-.373,2.137a6.665,6.665,0,0,1-3.361-.808,2.711,2.711,0,0,1-2,.792h-.129q-.21,0-.366-.34a2.288,2.288,0,0,1,0-1.649c.1-.228.225-.34.366-.34h.276a1.245,1.245,0,0,0,1-.453,7.729,7.729,0,0,0,.885-1.473c.022-.043.038-.074.048-.1l.041-.08a.74.74,0,0,0,.041-.1,6.291,6.291,0,0,1,1.355-1.844,2.9,2.9,0,0,1,1.973-.631,2.726,2.726,0,0,1,2.24,1.084,4.153,4.153,0,0,1,.86,2.671,7.271,7.271,0,0,1-.552,2.912,8.332,8.332,0,0,1-2.681.356" transform="translate(-3048 703)" fill="#1d465c"/>
    <path id="Path_39" data-name="Path 39" d="M106.8,118.946q-1.02,2.272-2.218,5.758h4.435q-1.2-3.486-2.215-5.758Zm3.612,10.1q-.453-1.565-1.049-3.322H104.25q-.6,1.758-1.052,3.322H102a91.167,91.167,0,0,1,4.193-11.29h1.214a85.551,85.551,0,0,1,4.209,11.29Z" transform="translate(-3048 703)" fill="#1d465c"/>
    <path id="Path_40" data-name="Path 40" d="M114.427,117.367v9.371a2.158,2.158,0,0,0,.243,1.161.92.92,0,0,0,.371.3.937.937,0,0,0,.47.074,3.851,3.851,0,0,0,.467-.049l.1.92a3.314,3.314,0,0,1-.729.1q-2.055,0-2.055-2.484v-9.307Z" transform="translate(-3048 703)" fill="#1d465c"/>
    <path id="Path_41" data-name="Path 41" d="M119.089,122.252v6.791h-1.133v-7.5a7.182,7.182,0,0,1,3.318-.823,3.08,3.08,0,0,1,2.315.838,5.66,5.66,0,0,1,2.9-.838,3.168,3.168,0,0,1,2.355.8,2.955,2.955,0,0,1,.785,2.169v5.355h-1.133v-5.29a2.144,2.144,0,0,0-.5-1.493,1.969,1.969,0,0,0-1.537-.556,4.072,4.072,0,0,0-2.332.71,4.277,4.277,0,0,1,.227,1.419v5.21h-1.118v-5.29a1.786,1.786,0,0,0-1.991-2.049,4.368,4.368,0,0,0-2.153.548" transform="translate(-3048 703)" fill="#1d465c"/>
    <path id="Path_42" data-name="Path 42" d="M133.682,122.583a4.81,4.81,0,0,0,0,4.791,2.46,2.46,0,0,0,3.764.008,4.884,4.884,0,0,0,0-4.806,2.462,2.462,0,0,0-3.764.007Zm4.59-.7a5.424,5.424,0,0,1,0,6.194,3.737,3.737,0,0,1-5.415,0,5.384,5.384,0,0,1,0-6.194,3.736,3.736,0,0,1,5.415,0Z" transform="translate(-3048 703)" fill="#1d465c"/>
    <path id="Path_43" data-name="Path 43" d="M142.861,122.583a4.8,4.8,0,0,0,0,4.791,2.458,2.458,0,0,0,3.763.008,4.884,4.884,0,0,0,0-4.806,2.46,2.46,0,0,0-3.763.007Zm4.589-.7a5.424,5.424,0,0,1,0,6.194,3.738,3.738,0,0,1-5.415,0,5.388,5.388,0,0,1,0-6.194,3.735,3.735,0,0,1,5.415,0Z" transform="translate(-3048 703)" fill="#1d465c"/>
    <path id="Path_44" data-name="Path 44" d="M155.2,121.124l-.162.952a6.831,6.831,0,0,0-2.072-.371q-1.732,0-1.732,1.29a1.283,1.283,0,0,0,.121.581,1,1,0,0,0,.421.411,4.917,4.917,0,0,0,.534.266c.157.065.391.145.7.242a6.439,6.439,0,0,1,2.073.952,1.79,1.79,0,0,1,.647,1.483,1.973,1.973,0,0,1-.825,1.727,3.71,3.71,0,0,1-2.17.581,7.945,7.945,0,0,1-1.515-.154,5.959,5.959,0,0,1-1.189-.331l.194-.968a7.125,7.125,0,0,0,2.492.469,2.428,2.428,0,0,0,1.377-.34,1.1,1.1,0,0,0,.5-.967.987.987,0,0,0-.121-.513,1,1,0,0,0-.364-.382,7.064,7.064,0,0,0-1.668-.669,4.823,4.823,0,0,1-1.749-.863,1.878,1.878,0,0,1-.615-1.511,2.05,2.05,0,0,1,.737-1.7,3.251,3.251,0,0,1,2.08-.589,6.051,6.051,0,0,1,2.3.4" transform="translate(-3048 703)" fill="#1d465c"/>
    <path id="Path_45" data-name="Path 45" d="M160.3,128.333a3.6,3.6,0,0,0,1.943-.451V125.43a9.11,9.11,0,0,0-1.846-.226q-2.121,0-2.121,1.613a1.314,1.314,0,0,0,.525,1.129,2.493,2.493,0,0,0,1.5.387Zm3.058.146a6.163,6.163,0,0,1-3.157.755,3.482,3.482,0,0,1-2.266-.654,2.127,2.127,0,0,1-.793-1.734,2.092,2.092,0,0,1,.874-1.846,3.978,3.978,0,0,1,2.266-.621,8.967,8.967,0,0,1,1.959.226v-.936q0-1.968-2.121-1.968a5.478,5.478,0,0,0-2.185.419l-.26-.935a6.353,6.353,0,0,1,2.526-.468,3.274,3.274,0,0,1,2.363.767,2.968,2.968,0,0,1,.794,2.234Z" transform="translate(-3048 703)" fill="#1d465c"/>
    <path id="Path_46" data-name="Path 46" d="M169.319,128.626l.227-1.033a9.144,9.144,0,0,0,3.075.613,3.336,3.336,0,0,0,1.982-.508,2.024,2.024,0,0,0,.024-3.048,7.862,7.862,0,0,0-2.2-.959,6,6,0,0,1-2.282-1.21,2.629,2.629,0,0,1-.745-2,2.579,2.579,0,0,1,.971-2.161,4.206,4.206,0,0,1,2.655-.755,7.573,7.573,0,0,1,2.719.483l-.242.988a8.116,8.116,0,0,0-2.4-.436q-2.506,0-2.506,1.871a1.666,1.666,0,0,0,.558,1.363,5.673,5.673,0,0,0,1.838.863q.7.227,1.117.4a8.236,8.236,0,0,1,.939.46,2.794,2.794,0,0,1,.792.621,2.9,2.9,0,0,1,.47.846,3.287,3.287,0,0,1,.194,1.162,2.616,2.616,0,0,1-1.084,2.314,4.76,4.76,0,0,1-2.768.751,8.533,8.533,0,0,1-3.335-.613" transform="translate(-3048 703)" fill="#1d465c"/>
    <path id="Path_47" data-name="Path 47" d="M179.792,122.172v5.63a3.8,3.8,0,0,0,1.749.452,2.524,2.524,0,0,0,2.088-.887,4.014,4.014,0,0,0,.712-2.565,3.563,3.563,0,0,0-.663-2.234,2.374,2.374,0,0,0-2.007-.863,3.747,3.747,0,0,0-1.879.465Zm1.924-1.454a3.572,3.572,0,0,1,2.825,1.1,4.3,4.3,0,0,1,.979,2.962,5.008,5.008,0,0,1-.971,3.227,3.5,3.5,0,0,1-2.9,1.209,4.261,4.261,0,0,1-1.862-.4v3.21h-1.133V121.479a6.548,6.548,0,0,1,3.06-.755" transform="translate(-3048 703)" fill="#1d465c"/>
    <path id="Path_48" data-name="Path 48" d="M191.075,121.689a2.286,2.286,0,0,0-1.781.733,3.3,3.3,0,0,0-.776,1.975h4.726a2.234,2.234,0,0,0,.016-.306,2.661,2.661,0,0,0-.55-1.709,1.964,1.964,0,0,0-1.635-.7Zm3.189,6.98a6.412,6.412,0,0,1-2.736.565,4.18,4.18,0,0,1-3.068-1.113,4.251,4.251,0,0,1-1.125-3.162,4.535,4.535,0,0,1,1.012-3.064,3.413,3.413,0,0,1,2.728-1.178,3.053,3.053,0,0,1,2.428,1,3.714,3.714,0,0,1,.875,2.533,8.64,8.64,0,0,1-.049.951H188.5a3.177,3.177,0,0,0,.882,2.283,3.129,3.129,0,0,0,2.226.766,6.27,6.27,0,0,0,2.444-.533Z" transform="translate(-3048 703)" fill="#1d465c"/>
    <path id="Path_49" data-name="Path 49" d="M200.075,120.722a5.461,5.461,0,0,1,2.332.484l-.243.92a5.538,5.538,0,0,0-2.024-.42,2.527,2.527,0,0,0-2.08.887,3.755,3.755,0,0,0-.72,2.436,3.415,3.415,0,0,0,.758,2.4,2.872,2.872,0,0,0,2.218.823,4.455,4.455,0,0,0,1.942-.468l.227.935a4.722,4.722,0,0,1-2.215.517,4.035,4.035,0,0,1-3.027-1.1,4.256,4.256,0,0,1-1.069-3.1A4.614,4.614,0,0,1,197.2,121.9a3.615,3.615,0,0,1,2.874-1.178" transform="translate(-3048 703)" fill="#1d465c"/>
    <path id="Path_50" data-name="Path 50" d="M205.743,129.044H204.61v-8.132h1.133ZM205.735,119a.822.822,0,0,1-1.117,0,.786.786,0,0,1-.2-.556.755.755,0,0,1,.223-.536.761.761,0,0,1,1.3.536A.787.787,0,0,1,205.735,119Z" transform="translate(-3048 703)" fill="#1d465c"/>
    <path id="Path_51" data-name="Path 51" d="M211.212,128.333a3.6,3.6,0,0,0,1.943-.451V125.43a9.092,9.092,0,0,0-1.845-.226q-2.121,0-2.121,1.613a1.3,1.3,0,0,0,.12.63,1.32,1.32,0,0,0,.4.5,2.493,2.493,0,0,0,1.5.387Zm3.058.146a6.157,6.157,0,0,1-3.156.755,3.48,3.48,0,0,1-2.266-.654,2.132,2.132,0,0,1-.794-1.734,2.09,2.09,0,0,1,.875-1.846,3.978,3.978,0,0,1,2.266-.621,8.974,8.974,0,0,1,1.959.226v-.936q0-1.968-2.121-1.968a5.471,5.471,0,0,0-2.185.419l-.26-.935a6.353,6.353,0,0,1,2.526-.468,3.277,3.277,0,0,1,2.363.767,2.962,2.962,0,0,1,.793,2.234Z" transform="translate(-3048 703)" fill="#1d465c"/>
    <path id="Path_52" data-name="Path 52" d="M218.16,117.367v9.371a2.158,2.158,0,0,0,.243,1.161.913.913,0,0,0,.371.3.937.937,0,0,0,.47.074,3.851,3.851,0,0,0,.467-.049l.1.92a3.314,3.314,0,0,1-.729.1q-2.055,0-2.056-2.484v-9.307Z" transform="translate(-3048 703)" fill="#1d465c"/>
    <path id="Path_53" data-name="Path 53" d="M222.881,129.044H221.75v-8.132h1.131ZM222.873,119a.822.822,0,0,1-1.117,0,.782.782,0,0,1-.2-.556.761.761,0,0,1,1.521,0A.782.782,0,0,1,222.873,119Z" transform="translate(-3048 703)" fill="#1d465c"/>
    <path id="Path_54" data-name="Path 54" d="M230.249,121.124l-.162.952a6.831,6.831,0,0,0-2.072-.371q-1.732,0-1.732,1.29a1.283,1.283,0,0,0,.121.581,1,1,0,0,0,.421.411,4.917,4.917,0,0,0,.534.266c.156.065.391.145.7.242a6.448,6.448,0,0,1,2.073.952,1.79,1.79,0,0,1,.647,1.483,1.971,1.971,0,0,1-.826,1.727,3.707,3.707,0,0,1-2.169.581,7.945,7.945,0,0,1-1.515-.154,5.987,5.987,0,0,1-1.19-.331l.2-.968a7.125,7.125,0,0,0,2.492.469,2.423,2.423,0,0,0,1.376-.34,1.095,1.095,0,0,0,.5-.967,1.007,1.007,0,0,0-.485-.895,7.064,7.064,0,0,0-1.668-.669,4.823,4.823,0,0,1-1.749-.863,1.878,1.878,0,0,1-.615-1.511,2.05,2.05,0,0,1,.737-1.7,3.251,3.251,0,0,1,2.08-.589,6.051,6.051,0,0,1,2.3.4" transform="translate(-3048 703)" fill="#1d465c"/>
    <path id="Path_55" data-name="Path 55" d="M236.53,129.077a4.783,4.783,0,0,1-1.214.161q-2.38,0-2.38-2.58v-4.791h-1.23v-.952h1.23V119l1.133-.08v2h2.2v.952h-2.2v4.786a1.768,1.768,0,0,0,.35,1.226,1.364,1.364,0,0,0,1.044.371,3.51,3.51,0,0,0,.988-.129Z" transform="translate(-3048 703)" fill="#1d465c"/>
    <path id="Path_56" data-name="Path 56" d="M322.852,136.063c-1.186-3.436-4.314-6-7.08-8.252-3.3-2.7-6.367-5.439-7.555-9.246l1.866-.578c1.028,3.3,3.747,5.72,6.929,8.321,2.963,2.421,6.322,5.166,7.687,9.123Z" transform="translate(-3048 703)" fill="#5bae3a"/>
    <path id="Path_57" data-name="Path 57" d="M313.45,125.6a9.55,9.55,0,0,1-.175-7.271l1.819.7a7.6,7.6,0,0,0,.137,5.786Z" transform="translate(-3048 703)" fill="#5bae3a"/>
    <path id="Path_58" data-name="Path 58" d="M324.843,122.887a40.857,40.857,0,0,0-17.961-15.217l-.775,1.783a38.874,38.874,0,0,1,17.22,14.674l1.443-.911a2.46,2.46,0,0,1,.073-.33" transform="translate(-3048 703)" fill="#5bae3a"/>
    <path id="Path_59" data-name="Path 59" d="M313.181,113.168a21.566,21.566,0,0,0-2.576-9.442l1.716-.923a23.5,23.5,0,0,1,2.809,10.3Z" transform="translate(-3048 703)" fill="#5bae3a"/>
    <path id="Path_60" data-name="Path 60" d="M324.653,136.063l-1.844-.632c1.365-3.957,4.721-6.7,7.687-9.123,3.182-2.6,5.9-5.022,6.929-8.321l1.866.578c-1.188,3.807-4.252,6.546-7.556,9.246-2.763,2.257-5.893,4.816-7.079,8.252" transform="translate(-3048 703)" fill="#5bae3a"/>
    <path id="Path_61" data-name="Path 61" d="M334.058,125.6l-1.784-.785a7.6,7.6,0,0,0,.137-5.786l1.819-.7a9.55,9.55,0,0,1-.175,7.271" transform="translate(-3048 703)" fill="#5bae3a"/>
    <path id="Path_62" data-name="Path 62" d="M340.626,107.671a40.88,40.88,0,0,0-17.706,14.823,2.416,2.416,0,0,1,.081.615,2.6,2.6,0,0,1-.014.265l1.2.755a38.874,38.874,0,0,1,17.22-14.674Z" transform="translate(-3048 703)" fill="#5bae3a"/>
    <path id="Path_63" data-name="Path 63" d="M334.327,113.168l-1.949-.069a23.527,23.527,0,0,1,2.809-10.3l1.716.923A21.566,21.566,0,0,0,334.327,113.168Z" transform="translate(-3048 703)" fill="#5bae3a"/>
    <path id="Path_64" data-name="Path 64" d="M322.843,112.97a107.053,107.053,0,0,0-11.895-14.753l1.406-1.346a109.01,109.01,0,0,1,12.112,15.022Z" transform="translate(-3048 703)" fill="#5bae3a"/>
    <path id="Path_65" data-name="Path 65" d="M318.754,105.195l-1.865-.575a99.138,99.138,0,0,1,3.761-10.106l1.791.774a97.458,97.458,0,0,0-3.687,9.91" transform="translate(-3048 703)" fill="#5bae3a"/>
    <path id="Path_66" data-name="Path 66" d="M324.74,112.513l-1.623-1.078a109.1,109.1,0,0,1,12.112-15.023l1.406,1.347a106.934,106.934,0,0,0-11.892,14.753" transform="translate(-3048 703)" fill="#5bae3a"/>
    <path id="Path_67" data-name="Path 67" d="M328.827,104.739a97.189,97.189,0,0,0-3.686-9.91l1.788-.774a98.9,98.9,0,0,1,3.761,10.106Z" transform="translate(-3048 703)" fill="#5bae3a"/>
    <path id="Path_68" data-name="Path 68" d="M329.8,96a4.326,4.326,0,0,1,1.162-4.674,4.351,4.351,0,0,1,1.453-.873L333.693,90l.46,1.27a4.328,4.328,0,0,1-2.615,5.547,1.356,1.356,0,0,1-1.462-.361A1.343,1.343,0,0,1,329.8,96" transform="translate(-3048 703)" fill="#5bae3a"/>
    <path id="Path_69" data-name="Path 69" d="M322.987,106.421a4.321,4.321,0,0,1,0-6.128l.959-.956.959.956a4.324,4.324,0,0,1,0,6.128,1.362,1.362,0,0,1-1.918,0Z" transform="translate(-3048 703)" fill="#5bae3a"/>
    <path id="Path_70" data-name="Path 70" d="M337.34,106.115a3.007,3.007,0,0,1,3.556-2.323l.917.191-.191.914a3.007,3.007,0,0,1-3.556,2.323.934.934,0,0,1-.726-1.1" transform="translate(-3048 703)" fill="#5bae3a"/>
    <path id="Path_71" data-name="Path 71" d="M335.381,115.4a4.352,4.352,0,0,1,5.308-3.1l1.311.341-.343,1.307a4.336,4.336,0,0,1-2.01,2.644,4.358,4.358,0,0,1-3.3.452,1.351,1.351,0,0,1-1-1.122A1.333,1.333,0,0,1,335.381,115.4Z" transform="translate(-3048 703)" fill="#5bae3a"/>
    <path id="Path_72" data-name="Path 72" d="M310.621,106.115a3.007,3.007,0,0,0-3.556-2.323l-.917.191.191.914a3.007,3.007,0,0,0,3.556,2.323.934.934,0,0,0,.726-1.1" transform="translate(-3048 703)" fill="#5bae3a"/>
    <path id="Path_73" data-name="Path 73" d="M312.58,115.4a4.351,4.351,0,0,0-5.308-3.1l-1.312.341.344,1.307a4.35,4.35,0,0,0,5.3,3.1,1.353,1.353,0,0,0,.827-.624,1.337,1.337,0,0,0,.142-1.024" transform="translate(-3048 703)" fill="#5bae3a"/>
    <path id="Path_74" data-name="Path 74" d="M317.729,96a4.333,4.333,0,0,0-2.615-5.547L313.839,90l-.46,1.27a4.33,4.33,0,0,0,2.615,5.547A1.353,1.353,0,0,0,317.729,96" transform="translate(-3048 703)" fill="#5bae3a"/>
    <path id="Path_75" data-name="Path 75" d="M321.008,125.451a2.99,2.99,0,0,0-1.233-3.095,3.012,3.012,0,0,0-1.077-.464l-.917-.195-.2.913a3,3,0,0,0,2.309,3.558.937.937,0,0,0,1.113-.717" transform="translate(-3048 703)" fill="#5bae3a"/>
    <path id="Path_76" data-name="Path 76" d="M321.008,114.074a2.991,2.991,0,0,0-1.233-3.1,3.012,3.012,0,0,0-1.077-.464l-.917-.2-.2.913a3,3,0,0,0,2.309,3.559.937.937,0,0,0,1.113-.717" transform="translate(-3048 703)" fill="#5bae3a"/>
    <path id="Path_77" data-name="Path 77" d="M326.365,125.451a2.99,2.99,0,0,1,1.233-3.095,3.013,3.013,0,0,1,1.077-.464l.916-.195.2.913a3,3,0,0,1-2.309,3.558.939.939,0,0,1-1.114-.717Z" transform="translate(-3048 703)" fill="#5bae3a"/>
    <path id="Path_78" data-name="Path 78" d="M326.365,114.074a2.991,2.991,0,0,1,1.233-3.1,3.013,3.013,0,0,1,1.077-.464l.916-.2.2.913a3,3,0,0,1-2.309,3.559.939.939,0,0,1-1.114-.717Z" transform="translate(-3048 703)" fill="#5bae3a"/>
  </g>
</svg>
